<svg width="31" height="30" viewBox="0 0 31 30" fill="none" xmlns="http://www.w3.org/2000/svg">
<path d="M18.2299 14.9984L30.4273 3.21194C30.7919 2.85909 30.9967 2.38052 30.9967 1.88151C30.9967 1.3825 30.7919 0.903933 30.4273 0.551081C30.0627 0.19823 29.5683 0 29.0527 0C28.5371 0 28.0426 0.19823 27.6781 0.551081L15.5 12.3563L3.32195 0.551081C2.95738 0.19823 2.46291 4.43041e-07 1.94732 4.46759e-07C1.43174 4.50477e-07 0.937268 0.19823 0.572694 0.551081C0.20812 0.903933 0.00330461 1.3825 0.0033046 1.88151C0.0033046 2.38052 0.20812 2.85909 0.572694 3.21194L12.7701 14.9984L0.572694 26.7849C0.391227 26.9591 0.247193 27.1663 0.1489 27.3947C0.0506066 27.623 0 27.8679 0 28.1153C0 28.3627 0.0506066 28.6076 0.1489 28.8359C0.247193 29.0643 0.391227 29.2715 0.572694 29.4457C0.752679 29.6214 0.966814 29.7608 1.20275 29.8559C1.43868 29.951 1.69174 30 1.94732 30C2.20291 30 2.45597 29.951 2.6919 29.8559C2.92783 29.7608 3.14197 29.6214 3.32195 29.4457L15.5 17.6405L27.6781 29.4457C27.858 29.6214 28.0722 29.7608 28.3081 29.8559C28.544 29.951 28.7971 30 29.0527 30C29.3083 30 29.5613 29.951 29.7973 29.8559C30.0332 29.7608 30.2473 29.6214 30.4273 29.4457C30.6088 29.2715 30.7528 29.0643 30.8511 28.8359C30.9494 28.6076 31 28.3627 31 28.1153C31 27.8679 30.9494 27.623 30.8511 27.3947C30.7528 27.1663 30.6088 26.9591 30.4273 26.7849L18.2299 14.9984Z" fill="white"/>
</svg>
