<svg width="207" height="48" viewBox="0 0 207 48" fill="none" xmlns="http://www.w3.org/2000/svg">
<path d="M12.3371 7.54635C12.4411 7.16811 12.6662 7.00298 13.0122 7.05095C13.3702 7.09724 13.5464 7.31466 13.5407 7.7032C13.3159 9.62531 13.0588 11.5338 12.7696 13.4287C11.7102 20.2431 10.2437 26.9636 8.37016 33.5903C8.21023 33.9158 7.94709 34.0258 7.58073 33.9201C7.26537 33.7466 7.15543 33.4835 7.25092 33.1307C7.7658 31.2887 8.25523 29.4382 8.71922 27.5792C10.3298 20.9776 11.5357 14.3 12.3371 7.54635ZM0.887444 10.7659C0.722813 10.8013 0.571855 10.7621 0.434571 10.6482C0.297287 10.5344 0.217719 10.4002 0.195868 10.2458C0.147122 9.90127 0.320497 9.67075 0.715994 9.5542C2.50833 9.11883 4.31166 8.71826 6.12596 8.35249C12.4786 7.09011 18.8923 6.38858 25.3673 6.24791C25.5353 6.23626 25.6862 6.27549 25.8202 6.36559C25.9524 6.44382 26.0311 6.57203 26.0563 6.75022C26.0782 6.90465 26.039 7.05561 25.9387 7.20309C25.8384 7.35058 25.7042 7.43014 25.5362 7.4418C23.724 7.4801 21.9127 7.56676 20.102 7.70178C13.6131 8.1716 7.20821 9.19298 0.887444 10.7659Z" fill="white"/>
<path d="M14.3257 25.968C14.1967 25.9984 14.0771 25.9668 13.967 25.8733C13.8568 25.7799 13.7933 25.6737 13.7765 25.5549C13.7379 25.2817 13.8764 25.1046 14.1921 25.0236C15.0594 24.816 15.9259 24.5601 16.7917 24.2559C17.6574 23.9516 18.4656 23.5404 19.2163 23.0222C19.882 22.5887 20.4282 22.0388 20.855 21.3726C21.0454 21.0912 21.1128 20.7969 21.0572 20.4897C21.0014 20.3522 20.8929 20.2706 20.7318 20.2449C20.5808 20.2057 20.4392 20.1894 20.3068 20.196C19.4635 20.2305 18.7191 20.4934 18.0737 20.9846C17.4283 21.4758 16.9735 22.1157 16.7095 22.9043C16.476 23.6523 16.4725 24.398 16.6989 25.1414C16.8087 25.4894 17.0204 25.7442 17.3341 25.9058C17.619 26.0352 17.9184 26.0958 18.2323 26.0877C18.9637 26.0327 19.6257 25.7876 20.2185 25.3523C20.8163 24.9527 21.3497 24.4834 21.8187 23.9444C22.0175 23.7224 22.2432 23.6905 22.4958 23.8486C22.7059 24.0491 22.7379 24.2748 22.5916 24.5258C21.9594 25.2817 21.1789 25.9313 20.2501 26.4747C19.3331 27.0165 18.3674 27.1713 17.3531 26.9392C16.6679 26.7211 16.1874 26.3225 15.9116 25.7436C15.6477 25.1629 15.5391 24.524 15.5859 23.8267C15.6326 23.1294 15.7861 22.5018 16.0465 21.9439C16.5076 21.0062 17.1999 20.2903 18.1236 19.7961C18.5515 19.5659 19.0251 19.4019 19.5445 19.3042C20.074 19.1929 20.5779 19.2004 21.0562 19.3266C21.5769 19.4953 21.8997 19.8495 22.0245 20.3892C22.0849 20.9017 21.9774 21.3834 21.7019 21.8344C21.1867 22.6464 20.5241 23.3158 19.714 23.8424C18.9056 24.3809 18.0397 24.8124 17.1163 25.1369C16.1928 25.4615 15.2626 25.7385 14.3257 25.968Z" fill="white"/>
<path d="M25.0904 19.192C24.9873 18.8915 25.0614 18.6872 25.3126 18.5789C25.5758 18.469 25.7988 18.5465 25.9817 18.8114C26.2863 19.4226 26.6631 19.9873 27.112 20.5054C27.9285 21.4804 28.9056 22.3055 30.0432 22.9806C31.1792 23.6439 32.3859 24.0366 33.6634 24.1588C33.9636 24.2253 34.0974 24.4003 34.0648 24.6836C34.0322 24.9669 33.8589 25.1126 33.545 25.1207C32.7595 25.05 32.0021 24.8785 31.2729 24.6061C29.9281 24.0935 28.7091 23.3572 27.616 22.3971C26.555 21.493 25.7132 20.4247 25.0904 19.192ZM24.2674 27.5058C23.9856 27.6547 23.7565 27.6205 23.5804 27.4031C23.4025 27.1738 23.4266 26.9583 23.6525 26.7567C24.4354 26.2097 25.1836 25.6312 25.8971 25.0214C28.338 23.0038 30.3255 20.6081 31.8597 17.8343C32.0059 17.5834 32.2181 17.4988 32.4963 17.5806C32.7574 17.7133 32.8479 17.9247 32.7678 18.2147C32.3357 19.015 31.8571 19.7855 31.3318 20.5263C29.3938 23.2725 27.039 25.5989 24.2674 27.5058Z" fill="white"/>
<path d="M37.5083 17.035C37.6648 16.7706 37.8719 16.6928 38.1297 16.8017C38.3976 16.8971 38.4856 17.0906 38.3936 17.3824C37.3947 19.5715 36.6434 21.8408 36.1397 24.1901C36.0715 24.4784 35.8914 24.619 35.5996 24.6118C35.3231 24.5419 35.1885 24.361 35.1956 24.0692C35.713 21.6452 36.4839 19.3005 37.5083 17.035ZM43.6635 16.2186C43.7962 15.9575 44.0016 15.8679 44.2798 15.9497C44.5307 16.0959 44.6212 16.3073 44.5513 16.5838C43.7795 18.9225 43.1833 21.3031 42.7627 23.7255C42.6724 24.0291 42.4915 24.1638 42.2201 24.1295C41.947 24.0833 41.8131 23.9083 41.8186 23.6046C42.2513 21.0957 42.8662 18.6337 43.6635 16.2186ZM44.1656 19.5101C44.4795 19.5021 44.6566 19.6406 44.697 19.9257C44.7121 20.0326 44.6797 20.1462 44.5998 20.2666C44.5318 20.3853 44.4316 20.4479 44.2992 20.4545C41.2756 20.4946 38.3412 21.0371 35.4961 22.0819C35.1922 22.1612 34.9862 22.0752 34.8779 21.824C34.768 21.5608 34.848 21.3556 35.118 21.2084C38.0311 20.1297 41.0469 19.5637 44.1656 19.5101Z" fill="white"/>
<path d="M46.2858 17.538C46.4863 17.3278 46.712 17.2959 46.9629 17.4421C47.173 17.6426 47.205 17.8684 47.0587 18.1193C46.6829 18.7177 46.4784 19.3707 46.4453 20.0782C46.4279 20.3836 46.4546 20.7009 46.5254 21.0302C46.6081 21.3578 46.7834 21.6117 47.0513 21.7919C47.6006 22.0776 48.1783 22.1353 48.7843 21.9647C49.3885 21.7823 49.9056 21.497 50.3354 21.1091C51.2663 20.2382 51.7938 19.1699 51.9176 17.9043C51.9693 17.3275 51.7909 16.8378 51.3826 16.4351C50.9605 16.1071 50.4847 15.9987 49.9552 16.11C49.3526 16.3043 48.9109 16.6939 48.6302 17.2789C48.3494 17.8639 48.1408 18.4448 48.0043 19.0215C47.9344 19.298 47.7594 19.4318 47.4795 19.4229C47.1911 19.3547 47.0514 19.1806 47.0602 18.9006C47.1643 18.4376 47.2939 17.983 47.4489 17.537C47.6158 17.0892 47.842 16.6755 48.1275 16.2959C48.7003 15.5484 49.45 15.1515 50.3765 15.1052C51.1434 15.13 51.7792 15.4278 52.2841 15.9985C52.7905 16.666 52.9762 17.4213 52.841 18.2644C52.5894 19.9116 51.8012 21.2349 50.4764 22.2342C49.7801 22.7083 49.0162 22.9618 48.1848 22.9947C47.786 23.0026 47.3959 22.9427 47.0143 22.8149C46.6327 22.6872 46.3046 22.467 46.0302 22.1545C45.7778 21.8266 45.6163 21.4557 45.5456 21.0416C45.4732 20.6156 45.4568 20.1999 45.4963 19.7944C45.5873 18.9818 45.8505 18.2296 46.2858 17.538Z" fill="white"/>
<path d="M53.8408 22.3761C53.5861 22.5455 53.352 22.518 53.1385 22.2937C52.9692 22.039 52.9966 21.8049 53.2209 21.5914C55.727 19.0072 58.04 16.2565 60.1597 13.3392C60.3262 13.146 60.5189 13.0945 60.7376 13.1847C60.9683 13.2733 61.0716 13.4465 61.0475 13.7044C60.6862 16.1183 60.4845 18.5461 60.4422 20.9877C60.3756 21.2879 60.1896 21.4293 59.8842 21.412C59.5959 21.3437 59.4544 21.1577 59.4599 20.854C59.4903 18.4141 59.6862 15.9872 60.0474 13.5732C60.356 13.6992 60.6587 13.826 60.9555 13.9537C58.7848 16.9387 56.4132 19.7462 53.8408 22.3761Z" fill="white"/>
<path d="M62.7863 15.2032C62.9868 14.9931 63.2125 14.9611 63.4634 15.1074C63.6736 15.3079 63.7055 15.5336 63.5593 15.7845C63.1835 16.383 62.979 17.0359 62.9458 17.7434C62.9284 18.0488 62.9552 18.3662 63.026 18.6954C63.1087 19.023 63.284 19.2769 63.5518 19.4571C64.1012 19.7429 64.6788 19.8005 65.2848 19.6299C65.8891 19.4475 66.4061 19.1623 66.8359 18.7743C67.7669 17.9034 68.2943 16.8352 68.4182 15.5696C68.4698 14.9928 68.2915 14.503 67.8831 14.1003C67.461 13.7723 66.9853 13.6639 66.4557 13.7752C65.8531 13.9695 65.4114 14.3592 65.1307 14.9442C64.85 15.5292 64.6413 16.11 64.5048 16.6868C64.4349 16.9632 64.2599 17.097 63.98 17.0882C63.6916 17.0199 63.5519 16.8458 63.5608 16.5659C63.6649 16.1028 63.7944 15.6482 63.9494 15.2022C64.1163 14.7545 64.3425 14.3408 64.6281 13.9611C65.2009 13.2136 65.9505 12.8167 66.877 12.7704C67.6439 12.7952 68.2798 13.093 68.7847 13.6638C69.2911 14.3313 69.4767 15.0866 69.3416 15.9297C69.0899 17.5769 68.3017 18.9001 66.9769 19.8994C66.2806 20.3736 65.5168 20.6271 64.6853 20.6599C64.2866 20.6679 63.8964 20.608 63.5148 20.4802C63.1332 20.3524 62.8052 20.1323 62.5307 19.8197C62.2784 19.4919 62.1168 19.1209 62.0461 18.7068C61.9737 18.2809 61.9573 17.8651 61.9969 17.4597C62.0879 16.647 62.351 15.8949 62.7863 15.2032Z" fill="white"/>
<path d="M70.1407 15.9256C69.8605 16.0865 69.6256 16.0531 69.4359 15.8254C69.258 15.5962 69.2855 15.362 69.5182 15.1231C69.9735 14.7436 70.3999 14.3319 70.7975 13.8879C71.2054 13.4303 71.6428 13.011 72.1099 12.6298C72.7503 12.103 73.4795 11.8181 74.2973 11.775C75.0828 11.8456 75.5429 12.2713 75.6776 13.052C75.6768 13.6458 75.4988 14.186 75.1435 14.6725C74.8069 15.2048 74.4439 15.7227 74.0547 16.2261C73.8728 16.4821 73.7028 16.7364 73.5447 16.989C73.5056 17.0551 73.4954 17.0686 73.5141 17.0296C73.4954 17.0686 73.4758 17.1017 73.4554 17.1288C73.4282 17.1933 73.4001 17.2518 73.3712 17.3043C73.3269 17.4196 73.2886 17.5341 73.2562 17.6478C73.2358 17.6749 73.2298 17.6757 73.2384 17.6503C73.2452 17.613 73.2452 17.613 73.2384 17.6503C73.2417 17.674 73.2391 17.6986 73.2306 17.7241C73.2255 17.7733 73.2203 17.8225 73.2152 17.8717C73.2066 17.8971 73.1999 17.892 73.1948 17.8564C73.2017 17.8191 73.2076 17.8182 73.2126 17.8539C73.216 17.8776 73.2194 17.9014 73.2227 17.9251C73.2261 17.9489 73.2286 17.9667 73.2303 17.9786C73.2236 17.9311 73.221 17.9133 73.2227 17.9251C73.2227 17.9251 73.2244 17.937 73.2278 17.9608C73.2447 17.9947 73.2608 18.0227 73.276 18.0448C73.2794 18.0686 73.2667 18.0643 73.2379 18.032C73.2209 17.9981 73.2269 17.9972 73.2557 18.0295C73.2862 18.0737 73.3158 18.1119 73.3446 18.1442C73.3141 18.1 73.3133 18.0941 73.3421 18.1264C73.3811 18.1451 73.3946 18.1553 73.3828 18.157C73.4065 18.1536 73.4192 18.1578 73.4209 18.1697C73.4582 18.1766 73.4956 18.1834 73.5329 18.1902C73.6194 18.2022 73.7059 18.2142 73.7924 18.2262C73.7924 18.2262 73.8111 18.2296 73.8484 18.2365C73.8841 18.2314 73.89 18.2306 73.8662 18.2339C73.8543 18.2356 73.8781 18.2323 73.9375 18.2239C73.9986 18.2273 74.058 18.2189 74.1157 18.1987C74.1751 18.1902 74.1989 18.1869 74.187 18.1886C74.1632 18.1919 74.1802 18.1835 74.2379 18.1632C74.3075 18.1412 74.3763 18.1133 74.4442 18.0795C74.4781 18.0625 74.5062 18.0465 74.5282 18.0312C74.4841 18.0617 74.4841 18.0617 74.5282 18.0312C74.6505 17.9533 74.7592 17.8653 74.8544 17.767C75.0582 17.5806 75.2681 17.351 75.4839 17.0781C75.7202 16.7781 75.9573 16.484 76.1952 16.1959C76.7611 15.4857 77.4203 14.8774 78.1726 14.3711C78.429 14.2137 78.6632 14.2411 78.875 14.4535C79.046 14.7201 79.0194 14.9602 78.7951 15.1737C77.9986 15.7105 77.3089 16.3594 76.7259 17.1205C76.2839 17.7646 75.758 18.3298 75.1482 18.8159C74.5623 19.2139 73.9242 19.3284 73.2338 19.1595C72.5486 18.9414 72.209 18.4684 72.2151 17.7405C72.3024 17.1587 72.5246 16.6304 72.8815 16.1558C73.2436 15.632 73.6125 15.1133 73.9882 14.5997C74.0799 14.4776 74.1709 14.3497 74.261 14.2157C74.3001 14.1496 74.3341 14.0903 74.363 14.0377C74.392 13.9852 74.3971 13.9784 74.3783 14.0174C74.3869 13.9919 74.4005 13.9597 74.4192 13.9207C74.4872 13.802 74.5434 13.685 74.5876 13.5697C74.6149 13.5053 74.637 13.4476 74.654 13.3967C74.6626 13.3713 74.6575 13.3781 74.6387 13.4171C74.6319 13.4544 74.6311 13.4485 74.6362 13.3993C74.6447 13.3738 74.6533 13.3484 74.6618 13.3229C74.6669 13.2737 74.6712 13.2186 74.6747 13.1575C74.6712 13.2186 74.667 13.2313 74.6619 13.1957C74.6569 13.16 74.6586 13.1295 74.6671 13.1041C74.6723 13.0549 74.6706 13.043 74.6621 13.0684C74.6147 12.9903 74.5825 12.9343 74.5656 12.9003C74.5623 12.8766 74.5479 12.8604 74.5224 12.8519C74.4953 12.8315 74.469 12.8171 74.4436 12.8085C74.4707 12.8289 74.4393 12.8213 74.3494 12.7855C74.3868 12.7923 74.3808 12.7932 74.3316 12.788C74.2807 12.771 74.2375 12.765 74.2018 12.77C74.2494 12.7633 74.2494 12.7633 74.2018 12.77C74.1543 12.7768 74.1187 12.7818 74.0949 12.7852C73.8217 12.8238 73.534 12.9312 73.2317 13.1072C73.1298 13.158 73.0178 13.2223 72.8955 13.3002C72.7528 13.4052 72.622 13.5086 72.5031 13.6102C72.0954 13.9829 71.7021 14.3718 71.3232 14.7768C70.9562 15.1802 70.562 15.5631 70.1407 15.9256Z" fill="white"/>
<path d="M80.1242 10.9506C80.2807 10.6861 80.4878 10.6083 80.7455 10.7172C81.0016 10.8143 81.0904 11.0138 81.012 11.3157C80.1115 13.5152 79.4442 15.7786 79.0101 18.1059C78.9062 18.3993 78.7185 18.5289 78.4471 18.4946C78.1757 18.4603 78.0486 18.2904 78.066 17.985C78.5121 15.5712 79.1981 13.2263 80.1242 10.9506ZM78.9309 18.3171C78.6609 18.4643 78.4378 18.4292 78.2617 18.2118C78.0974 17.9927 78.1214 17.7773 78.3338 17.5655C81.2416 15.3364 83.9715 12.9205 86.5235 10.3177C86.7103 10.1822 86.9037 10.1791 87.1038 10.3083C87.2698 10.4545 87.3205 10.6412 87.2557 10.8684C86.5604 13.1479 86.0271 15.459 85.6558 17.8017C85.5773 18.1037 85.3964 18.2383 85.1131 18.2057C84.8417 18.1714 84.7079 17.9965 84.7117 17.6809C85.1069 15.25 85.659 12.8574 86.368 10.5033C86.6121 10.6869 86.8561 10.8705 87.1002 11.054C84.5499 13.6687 81.8268 16.0897 78.9309 18.3171Z" fill="white"/>
<path d="M88.9981 9.69493C89.1546 9.43044 89.3617 9.35267 89.6195 9.46161C89.8755 9.55866 89.9644 9.75815 89.8859 10.0601C88.9854 12.2595 88.3181 14.5229 87.884 16.8503C87.7801 17.1437 87.5925 17.2732 87.321 17.239C87.0496 17.2047 86.9226 17.0348 86.9399 16.7294C87.386 14.3155 88.0721 11.9707 88.9981 9.69493ZM87.8048 17.0614C87.5349 17.2087 87.3118 17.1736 87.1356 16.9562C86.9713 16.7371 86.9954 16.5216 87.2077 16.3098C90.1155 14.0808 92.8454 11.6649 95.3974 9.0621C95.5842 8.92661 95.7777 8.92347 95.9777 9.05269C96.1438 9.19884 96.1944 9.38554 96.1297 9.61282C95.4344 11.8923 94.901 14.2034 94.5297 16.5461C94.4513 16.848 94.2704 16.9827 93.9871 16.9501C93.7156 16.9158 93.5818 16.7408 93.5856 16.4252C93.9808 13.9943 94.5329 11.6018 95.2419 9.24769C95.486 9.43126 95.7301 9.61483 95.9742 9.79841C93.4239 12.4131 90.7008 14.8341 87.8048 17.0614Z" fill="white"/>
<path d="M47.5165 36.8205C47.8186 36.7292 48.0493 36.8178 48.2084 37.0861C48.2996 37.3882 48.2111 37.6189 47.9428 37.778C46.7697 38.2227 46.1374 39.0634 46.0458 40.3002C46.0519 40.8568 46.2328 41.3219 46.5886 41.6957C46.9547 42.0559 47.4176 42.2448 47.9775 42.2625C48.5714 42.2633 49.0781 42.0765 49.4977 41.7021C49.9292 41.326 50.2343 40.8708 50.4132 40.3366C50.6023 39.7888 50.6387 39.2323 50.5223 38.6671C50.3821 38.1902 50.067 37.8894 49.5768 37.7649C49.3376 37.7018 49.0908 37.6701 48.8363 37.6697C48.5393 37.7118 48.233 37.7309 47.9174 37.7271C47.6103 37.6978 47.3356 37.5973 47.0932 37.4256C46.8508 37.2539 46.6135 37.0755 46.3813 36.8902C46.2287 36.7543 46.1577 36.5947 46.1681 36.4114C46.1887 36.2146 46.2958 36.0723 46.4894 35.9843C47.4926 35.6242 48.4671 35.1895 49.4129 34.68C50.3179 34.2248 51.161 33.6753 51.9424 33.0316C53.1841 31.9592 53.896 30.6104 54.0781 28.9852C54.1312 28.5899 54.1241 28.1971 54.0567 27.8068C54.0046 27.4385 53.8931 27.1211 53.722 26.8544C53.6797 26.812 53.6331 26.7822 53.5822 26.7652C53.5075 26.7515 53.4337 26.7438 53.3608 26.742C53.0978 26.7671 52.8414 26.8397 52.5919 26.9598C51.2489 27.574 50.155 28.4921 49.3101 29.7144C48.8222 30.3771 48.4242 31.1181 48.116 31.9372C47.8078 32.7563 47.7498 33.5885 47.9421 34.4337C47.9623 34.5763 47.9265 34.7086 47.8347 34.8306C47.7413 34.9408 47.6292 35.0051 47.4985 35.0236C47.2015 35.0656 47.0049 34.9177 46.9086 34.58C46.6743 33.4377 46.7963 32.3299 47.2745 31.2565C47.6898 30.2526 48.2382 29.3329 48.9198 28.4973C49.5418 27.7549 50.2586 27.1264 51.0704 26.6117C51.6461 26.2273 52.2607 25.9464 52.9141 25.7692C53.7119 25.5836 54.3181 25.8431 54.7329 26.5478C55.1338 27.412 55.2565 28.3216 55.1008 29.2767C54.8166 31.2072 53.9186 32.7823 52.4069 34.0019C51.5763 34.6405 50.7034 35.1941 49.7883 35.6629C48.8527 36.1588 47.8892 36.586 46.8978 36.9443C46.9288 36.6492 46.9657 36.3531 47.0085 36.0562C47.2745 36.3094 47.5644 36.5168 47.8781 36.6784C48.0528 36.7143 48.2284 36.7137 48.4049 36.6766C48.595 36.6497 48.7876 36.6406 48.9827 36.6493C49.77 36.647 50.4432 36.9092 51.0025 37.4359C51.2736 37.7248 51.4487 38.0635 51.5279 38.4521C51.6174 38.8272 51.6474 39.2107 51.618 39.6027C51.5645 40.3373 51.3396 41.0174 50.9434 41.6429C50.5149 42.2973 49.9451 42.7657 49.2338 43.0481C48.5224 43.3305 47.7936 43.3609 47.0474 43.1394C46.3215 42.8907 45.7808 42.4522 45.4254 41.8239C45.0699 41.1956 44.9486 40.51 45.0616 39.767C45.3435 38.3336 46.1618 37.3514 47.5165 36.8205Z" fill="white"/>
<path d="M64.8708 33.5833C65.0273 33.3188 65.2344 33.2411 65.4922 33.35C65.7601 33.4454 65.8481 33.6389 65.7561 33.9306C64.7572 36.1198 64.0059 38.389 63.5022 40.7384C63.4339 41.0267 63.2539 41.1673 62.9621 41.1601C62.6856 41.0902 62.5509 40.9093 62.5581 40.6175C63.0755 38.1935 63.8464 35.8488 64.8708 33.5833ZM71.026 32.7669C71.1587 32.5058 71.3641 32.4162 71.6423 32.498C71.8932 32.6442 71.9837 32.8556 71.9138 33.1321C71.142 35.4708 70.5459 37.8514 70.1252 40.2738C70.0349 40.5774 69.854 40.7121 69.5826 40.6778C69.3095 40.6316 69.1756 40.4566 69.1811 40.1529C69.6138 37.644 70.2287 35.182 71.026 32.7669ZM71.5281 36.0584C71.842 36.0504 72.0191 36.1889 72.0595 36.474C72.0746 36.5809 72.0422 36.6945 71.9623 36.8149C71.8943 36.9336 71.7941 36.9962 71.6617 37.0028C68.6381 37.0429 65.7037 37.5854 62.8585 38.6302C62.5547 38.7095 62.3487 38.6235 62.2404 38.3723C62.1305 38.1091 62.2105 37.9039 62.4805 37.7567C65.3935 36.678 68.4094 36.112 71.5281 36.0584Z" fill="white"/>
<path d="M73.6483 34.0863C73.8488 33.8761 74.0745 33.8442 74.3254 33.9904C74.5355 34.1909 74.5675 34.4166 74.4212 34.6676C74.0454 35.266 73.841 35.919 73.8078 36.6265C73.7904 36.9319 73.8171 37.2492 73.8879 37.5785C73.9707 37.906 74.1459 38.1599 74.4138 38.3402C74.9631 38.6259 75.5408 38.6836 76.1468 38.513C76.751 38.3306 77.2681 38.0453 77.6979 37.6574C78.6289 36.7865 79.1563 35.7182 79.2801 34.4526C79.3318 33.8758 79.1534 33.3861 78.7451 32.9834C78.323 32.6554 77.8472 32.547 77.3177 32.6582C76.7151 32.8526 76.2734 33.2422 75.9927 33.8272C75.7119 34.4122 75.5033 34.9931 75.3668 35.5698C75.2969 35.8463 75.1219 35.9801 74.842 35.9712C74.5536 35.903 74.4139 35.7289 74.4227 35.4489C74.5268 34.9859 74.6564 34.5313 74.8114 34.0853C74.9783 33.6375 75.2045 33.2238 75.4901 32.8441C76.0629 32.0966 76.8125 31.6998 77.739 31.6535C78.5059 31.6783 79.1418 31.976 79.6466 32.5468C80.1531 33.2143 80.3387 33.9696 80.2035 34.8127C79.9519 36.4599 79.1637 37.7832 77.8389 38.7825C77.1426 39.2566 76.3787 39.5101 75.5473 39.543C75.1485 39.5509 74.7584 39.491 74.3768 39.3632C73.9952 39.2355 73.6672 39.0153 73.3927 38.7027C73.1403 38.3749 72.9788 38.004 72.9081 37.5899C72.8357 37.1639 72.8193 36.7482 72.8588 36.3427C72.9498 35.5301 73.213 34.7779 73.6483 34.0863Z" fill="white"/>
<path d="M81.0027 34.8087C80.7225 34.9695 80.4876 34.9361 80.2978 34.7085C80.12 34.4792 80.1474 34.2451 80.3802 34.0062C80.8354 33.6267 81.2619 33.215 81.6595 32.7709C82.0673 32.3134 82.5048 31.894 82.9719 31.5129C83.6123 30.986 84.3414 30.7011 85.1593 30.6581C85.9448 30.7287 86.4049 31.1543 86.5396 31.935C86.5388 32.5289 86.3608 33.0691 86.0055 33.5555C85.6688 34.0879 85.3059 34.6057 84.9167 35.1092C84.7348 35.3651 84.5648 35.6194 84.4066 35.872C84.3675 35.9381 84.3573 35.9517 84.376 35.9127C84.3573 35.9517 84.3378 35.9847 84.3174 36.0119C84.2901 36.0763 84.2621 36.1348 84.2331 36.1874C84.1889 36.3027 84.1506 36.4172 84.1182 36.5308C84.0978 36.5579 84.0918 36.5588 84.1003 36.5333C84.1072 36.496 84.1072 36.496 84.1003 36.5333C84.1037 36.5571 84.1011 36.5817 84.0926 36.6071C84.0874 36.6563 84.0823 36.7055 84.0771 36.7547C84.0686 36.7802 84.0618 36.7751 84.0568 36.7394C84.0636 36.7021 84.0696 36.7013 84.0746 36.7369C84.078 36.7607 84.0813 36.7844 84.0847 36.8082C84.0881 36.8319 84.0906 36.8498 84.0923 36.8616C84.0855 36.8141 84.083 36.7963 84.0847 36.8082C84.0847 36.8082 84.0864 36.8201 84.0897 36.8438C84.1067 36.8778 84.1227 36.9058 84.138 36.9279C84.1414 36.9516 84.1286 36.9474 84.0998 36.9151C84.0829 36.8811 84.0888 36.8803 84.1176 36.9126C84.1481 36.9567 84.1778 36.9949 84.2066 37.0272C84.1761 36.9831 84.1752 36.9771 84.204 37.0094C84.243 37.0281 84.2566 37.0383 84.2447 37.04C84.2685 37.0366 84.2812 37.0409 84.2829 37.0528C84.3202 37.0596 84.3575 37.0664 84.3949 37.0733C84.4814 37.0853 84.5679 37.0973 84.6544 37.1093C84.6544 37.1093 84.6731 37.1127 84.7104 37.1195C84.746 37.1145 84.752 37.1136 84.7282 37.117C84.7163 37.1187 84.7401 37.1153 84.7995 37.1069C84.8606 37.1104 84.92 37.102 84.9777 37.0817C85.0371 37.0733 85.0608 37.0699 85.0489 37.0716C85.0252 37.075 85.0422 37.0665 85.0999 37.0462C85.1695 37.0243 85.2382 36.9964 85.3062 36.9625C85.3401 36.9456 85.3681 36.9295 85.3902 36.9143C85.346 36.9448 85.346 36.9448 85.3902 36.9143C85.5125 36.8364 85.6212 36.7483 85.7163 36.65C85.9202 36.4636 86.13 36.234 86.3459 35.9611C86.5821 35.6611 86.8192 35.3671 87.0572 35.0789C87.6231 34.3687 88.2823 33.7605 89.0346 33.2542C89.291 33.0967 89.5251 33.1242 89.7369 33.3366C89.908 33.6032 89.8813 33.8432 89.6571 34.0567C88.8606 34.5935 88.1709 35.2425 87.5879 36.0035C87.1458 36.6477 86.6199 37.2128 86.0102 37.699C85.4243 38.0969 84.7861 38.2115 84.0958 38.0426C83.4106 37.8245 83.071 37.3515 83.0771 36.6236C83.1644 36.0417 83.3865 35.5135 83.7435 35.0389C84.1056 34.5151 84.4745 33.9963 84.8501 33.4827C84.9419 33.3607 85.0329 33.2327 85.123 33.0988C85.1621 33.0327 85.1961 32.9733 85.225 32.9208C85.2539 32.8682 85.259 32.8614 85.2403 32.9004C85.2488 32.875 85.2624 32.8428 85.2812 32.8038C85.3492 32.6851 85.4053 32.5681 85.4496 32.4528C85.4768 32.3883 85.499 32.3307 85.516 32.2798C85.5245 32.2543 85.5194 32.2611 85.5007 32.3001C85.4939 32.3374 85.493 32.3315 85.4982 32.2823C85.5067 32.2569 85.5152 32.2314 85.5237 32.206C85.5289 32.1568 85.5332 32.1017 85.5367 32.0406C85.5332 32.1017 85.529 32.1144 85.5239 32.0787C85.5189 32.0431 85.5206 32.0126 85.5291 31.9871C85.5343 31.9379 85.5326 31.926 85.5241 31.9515C85.4767 31.8734 85.4445 31.8173 85.4276 31.7834C85.4242 31.7596 85.4098 31.7435 85.3844 31.735C85.3573 31.7146 85.331 31.7001 85.3055 31.6916C85.3327 31.712 85.3013 31.7043 85.2114 31.6686C85.2487 31.6754 85.2428 31.6762 85.1936 31.6711C85.1427 31.654 85.0995 31.648 85.0638 31.6531C85.1113 31.6464 85.1113 31.6464 85.0638 31.6531C85.0163 31.6598 84.9807 31.6649 84.9569 31.6682C84.6837 31.7069 84.3959 31.8142 84.0937 31.9903C83.9918 32.0411 83.8797 32.1054 83.7575 32.1833C83.6148 32.2883 83.484 32.3916 83.3651 32.4933C82.9574 32.866 82.5641 33.2549 82.1852 33.6599C81.8181 34.0632 81.424 34.4462 81.0027 34.8087Z" fill="white"/>
<path d="M89.3283 30.5771C89.3202 30.2632 89.4469 30.0878 89.7082 30.0508C89.827 30.034 89.9407 30.0664 90.0491 30.1479C90.1678 30.216 90.2305 30.3162 90.2371 30.4485C90.3595 32.7698 91.2197 34.7808 92.8174 36.4813C92.9715 36.714 92.9475 36.9294 92.7453 37.1277C92.511 37.2699 92.2955 37.2459 92.0989 37.0556C90.386 35.2259 89.4624 33.0664 89.3283 30.5771ZM95.3927 29.1192C95.5254 28.8581 95.7147 28.7828 95.9606 28.8935C96.2167 28.9905 96.3173 29.1883 96.2627 29.4869C95.7584 30.9759 95.1838 32.4386 94.5388 33.8749C93.3936 36.3998 92.0177 38.7938 90.4113 41.0568C88.8235 43.2808 87.0307 45.3399 85.0328 47.2342C84.7985 47.3764 84.5822 47.3465 84.384 47.1443C84.2417 46.9099 84.2658 46.6945 84.4561 46.4979C85.5468 45.4712 86.5798 44.3798 87.5553 43.224C89.2887 41.1732 90.8068 38.9712 92.1097 36.6178C93.4431 34.2238 94.5375 31.7243 95.3927 29.1192Z" fill="white"/>
<path d="M112.123 28.406C112.122 28.7454 111.985 28.9344 111.712 28.973C111.593 28.9898 111.474 28.9583 111.353 28.8784C111.233 28.7985 111.169 28.6864 111.16 28.5422C111.141 27.9754 110.871 27.6077 110.35 27.439C109.882 27.3841 109.428 27.4726 108.988 27.7045C108.088 28.1953 107.4 28.8985 106.924 29.8141C106.368 30.7653 106.136 31.7856 106.23 32.875C106.284 33.34 106.493 33.7101 106.86 33.9855C107.258 34.2321 107.694 34.3158 108.167 34.2367C108.714 34.1593 109.181 33.9479 109.568 33.6023C109.954 33.2448 110.244 32.8099 110.438 32.2978C110.581 32.0231 110.781 31.9402 111.039 32.0492C111.308 32.1564 111.404 32.361 111.325 32.6629C111.024 33.4447 110.556 34.0744 109.921 34.5521C109.296 35.0161 108.564 35.2408 107.726 35.2261C107.034 35.215 106.441 34.9657 105.948 34.478C105.502 33.9837 105.268 33.3989 105.245 32.7235C105.215 31.3101 105.595 30.0143 106.385 28.8361C107.098 27.7053 108.086 26.9414 109.351 26.5444C109.932 26.3653 110.501 26.4059 111.059 26.6663C111.72 27.0574 112.075 27.6373 112.123 28.406Z" fill="white"/>
<path d="M113.421 28.4586C113.621 28.2485 113.847 28.2166 114.098 28.3628C114.308 28.5633 114.34 28.789 114.194 29.04C113.818 29.6384 113.613 30.2914 113.58 30.9989C113.563 31.3043 113.589 31.6216 113.66 31.9509C113.743 32.2784 113.918 32.5323 114.186 32.7125C114.735 32.9983 115.313 33.0559 115.919 32.8854C116.523 32.7029 117.04 32.4177 117.47 32.0297C118.401 31.1589 118.929 30.0906 119.052 28.825C119.104 28.2482 118.926 27.7584 118.517 27.3558C118.095 27.0277 117.62 26.9194 117.09 27.0306C116.487 27.225 116.046 27.6146 115.765 28.1996C115.484 28.7846 115.276 29.3655 115.139 29.9422C115.069 30.2187 114.894 30.3525 114.614 30.3436C114.326 30.2754 114.186 30.1013 114.195 29.8213C114.299 29.3582 114.429 28.9037 114.584 28.4576C114.751 28.0099 114.977 27.5962 115.262 27.2165C115.835 26.469 116.585 26.0722 117.511 26.0259C118.278 26.0507 118.914 26.3484 119.419 26.9192C119.925 27.5867 120.111 28.342 119.976 29.1851C119.724 30.8323 118.936 32.1556 117.611 33.1549C116.915 33.629 116.151 33.8825 115.32 33.9153C114.921 33.9233 114.531 33.8634 114.149 33.7356C113.768 33.6079 113.44 33.3877 113.165 33.0751C112.913 32.7473 112.751 32.3764 112.68 31.9623C112.608 31.5363 112.592 31.1206 112.631 30.7151C112.722 29.9025 112.985 29.1503 113.421 28.4586Z" fill="white"/>
<path d="M132.086 24.8542C132.388 24.763 132.619 24.8515 132.778 25.1198C132.869 25.422 132.781 25.6526 132.513 25.8117C131.339 26.2564 130.707 27.0972 130.616 28.334C130.622 28.8905 130.803 29.3557 131.158 29.7294C131.524 30.0896 131.987 30.2786 132.547 30.2963C133.141 30.2971 133.648 30.1103 134.067 29.7358C134.499 29.3597 134.804 28.9046 134.983 28.3703C135.172 27.8225 135.208 27.2661 135.092 26.7009C134.952 26.2239 134.637 25.9232 134.146 25.7987C133.907 25.7356 133.661 25.7038 133.406 25.7035C133.109 25.7455 132.803 25.7646 132.487 25.7608C132.18 25.7316 131.905 25.6311 131.663 25.4594C131.421 25.2877 131.183 25.1092 130.951 24.924C130.798 24.788 130.727 24.6284 130.738 24.4452C130.758 24.2484 130.866 24.106 131.059 24.018C132.062 23.658 133.037 23.2232 133.983 22.7138C134.888 22.2585 135.731 21.7091 136.512 21.0654C137.754 19.993 138.466 18.6442 138.648 17.0189C138.701 16.6237 138.694 16.2309 138.626 15.8405C138.574 15.4723 138.463 15.1548 138.292 14.8882C138.249 14.8457 138.203 14.816 138.152 14.7989C138.077 14.7853 138.003 14.7775 137.931 14.7757C137.667 14.8008 137.411 14.8735 137.162 14.9936C135.819 15.6077 134.725 16.5259 133.88 17.7481C133.392 18.4109 132.994 19.1518 132.686 19.9709C132.378 20.7901 132.32 21.6222 132.512 22.4675C132.532 22.61 132.496 22.7423 132.404 22.8644C132.311 22.9745 132.199 23.0389 132.068 23.0573C131.771 23.0994 131.575 22.9515 131.478 22.6137C131.244 21.4715 131.366 20.3637 131.844 19.2903C132.26 18.2864 132.808 17.3666 133.49 16.531C134.112 15.7887 134.828 15.1601 135.64 14.6454C136.216 14.261 136.83 13.9802 137.484 13.8029C138.282 13.6173 138.888 13.8769 139.303 14.5816C139.704 15.4458 139.826 16.3554 139.671 17.3104C139.386 19.241 138.488 20.816 136.977 22.0357C136.146 22.6742 135.273 23.2279 134.358 23.6967C133.422 24.1926 132.459 24.6197 131.468 24.9781C131.499 24.6829 131.535 24.3869 131.578 24.09C131.844 24.3432 132.134 24.5506 132.448 24.7122C132.623 24.748 132.798 24.7474 132.975 24.7103C133.165 24.6834 133.357 24.6744 133.552 24.6831C134.34 24.6808 135.013 24.943 135.572 25.4697C135.843 25.7585 136.018 26.0972 136.098 26.4859C136.187 26.861 136.217 27.2445 136.188 27.6364C136.134 28.371 135.909 29.0511 135.513 29.6767C135.085 30.3311 134.515 30.7994 133.804 31.0819C133.092 31.3643 132.363 31.3947 131.617 31.1731C130.891 30.9244 130.351 30.4859 129.995 29.8577C129.64 29.2294 129.518 28.5437 129.631 27.8007C129.913 26.3674 130.732 25.3852 132.086 24.8542Z" fill="white"/>
<path d="M139.567 24.541C139.757 24.3444 139.965 24.315 140.19 24.4527C140.385 24.6311 140.415 24.839 140.279 25.0764C140.132 25.3273 140 25.5884 139.881 25.8598C139.646 26.3413 139.503 26.8705 139.451 27.4473C139.411 28.0225 139.618 28.5021 140.072 28.8862C140.518 29.2108 140.981 29.3149 141.462 29.1985C141.942 29.0821 142.376 28.8511 142.763 28.5054C143.616 27.7668 144.164 26.847 144.408 25.7462C144.573 24.7657 144.253 24.0051 143.449 23.4645C143.083 23.274 142.688 23.2208 142.264 23.3051C141.795 23.4199 141.38 23.6543 141.018 24.0084C140.666 24.349 140.377 24.7414 140.149 25.1857C139.921 25.6299 139.737 26.0861 139.597 26.5542C139.253 27.6329 138.96 28.7286 138.717 29.8413C138.383 31.2458 138.093 32.6681 137.849 34.1083C137.366 36.9514 137.038 39.8091 136.863 42.6815C136.803 42.9444 136.64 43.0765 136.373 43.0779C136.109 43.0062 135.982 42.8364 135.992 42.5683C136.01 42.1781 136.033 41.787 136.063 41.3951C136.292 38.2242 136.721 35.0858 137.348 31.9799C137.64 30.533 137.976 29.098 138.356 27.6749C138.604 26.513 139.018 25.4124 139.597 24.373C139.902 23.8695 140.288 23.4331 140.757 23.0639C141.236 22.681 141.774 22.4535 142.369 22.3814C143.601 22.3525 144.501 22.8915 145.07 23.9986C145.332 24.5673 145.415 25.1554 145.32 25.7627C145.222 26.3581 145.018 26.9262 144.706 27.4671C144.4 28.0436 144.008 28.5656 143.529 29.0333C143.049 29.501 142.491 29.8345 141.853 30.0338C141.221 30.1959 140.608 30.1433 140.013 29.8761C139.417 29.6089 138.99 29.1604 138.732 28.5306C138.514 27.8465 138.508 27.1627 138.714 26.4792C138.919 25.7838 139.203 25.1377 139.567 24.541Z" fill="white"/>
<path d="M146.073 27.7463C145.944 27.7767 145.824 27.7451 145.714 27.6517C145.604 27.5582 145.54 27.4521 145.524 27.3333C145.485 27.06 145.624 26.8829 145.939 26.8019C146.807 26.5944 147.673 26.3385 148.539 26.0342C149.405 25.7299 150.213 25.3187 150.963 24.8005C151.629 24.367 152.175 23.8172 152.602 23.1509C152.793 22.8695 152.86 22.5752 152.804 22.268C152.749 22.1305 152.64 22.0489 152.479 22.0233C152.328 21.984 152.186 21.9677 152.054 21.9743C151.211 22.0089 150.466 22.2717 149.821 22.7629C149.175 23.2541 148.721 23.894 148.457 24.6826C148.223 25.4306 148.22 26.1763 148.446 26.9198C148.556 27.2678 148.768 27.5226 149.081 27.6842C149.366 27.8135 149.666 27.8741 149.979 27.8661C150.711 27.811 151.373 27.5659 151.966 27.1306C152.563 26.731 153.097 26.2617 153.566 25.7228C153.765 25.5008 153.99 25.4688 154.243 25.627C154.453 25.8275 154.485 26.0532 154.339 26.3041C153.707 27.06 152.926 27.7096 151.997 28.2531C151.08 28.7948 150.115 28.9496 149.1 28.7175C148.415 28.4994 147.935 28.1009 147.659 27.5219C147.395 26.9413 147.286 26.3023 147.333 25.605C147.38 24.9077 147.533 24.2801 147.794 23.7222C148.255 22.7846 148.947 22.0686 149.871 21.5744C150.299 21.3442 150.772 21.1803 151.292 21.0825C151.821 20.9713 152.325 20.9787 152.803 21.1049C153.324 21.2736 153.647 21.6278 153.772 22.1675C153.832 22.68 153.724 23.1618 153.449 23.6127C152.934 24.4248 152.271 25.0941 151.461 25.6207C150.653 26.1592 149.787 26.5907 148.863 26.9152C147.94 27.2398 147.01 27.5168 146.073 27.7463Z" fill="white"/>
<path d="M155.675 28.0416C155.509 28.2348 155.313 28.2626 155.087 28.1248C154.894 27.9583 154.866 27.7623 155.004 27.5368C155.366 26.9282 155.721 26.3085 156.068 25.6778C156.454 24.9809 156.808 24.2704 157.129 23.5464C157.613 22.5086 158.115 21.4802 158.638 20.4612C158.777 20.2476 158.942 20.1697 159.132 20.2277C159.334 20.2839 159.445 20.4317 159.467 20.671C159.447 21.5583 159.415 22.4414 159.369 23.3203C159.324 24.1991 159.315 25.0789 159.343 25.9595C159.112 25.871 158.888 25.7816 158.669 25.6914C159.581 24.9444 160.362 24.0826 161.011 23.1061C161.38 22.545 161.724 21.9754 162.042 21.3972C162.36 20.819 162.704 20.2553 163.075 19.7061C163.221 19.54 163.391 19.4978 163.584 19.5795C163.776 19.6493 163.863 19.7945 163.846 20.0151C163.717 20.6512 163.607 21.2848 163.515 21.9158C163.439 22.5809 163.381 23.2434 163.341 23.9033C163.262 24.8839 163.134 25.8594 162.956 26.8297C162.872 27.096 162.708 27.2162 162.462 27.1904C162.214 27.1528 162.1 26.9931 162.121 26.7115C162.224 26.0669 162.314 25.418 162.391 24.7649C162.467 24.0998 162.523 23.4314 162.562 22.7595C162.656 21.801 162.801 20.8536 162.996 19.9172C163.252 20.0143 163.509 20.1173 163.766 20.2262C163.386 20.789 163.031 21.3663 162.703 21.958C162.374 22.5497 162.026 23.1262 161.657 23.6873C160.963 24.6942 160.144 25.5856 159.2 26.3615C159.067 26.4529 158.925 26.4731 158.772 26.422C158.618 26.359 158.529 26.2444 158.505 26.078C158.473 25.1618 158.476 24.2464 158.517 23.3319C158.555 22.4055 158.589 21.4859 158.617 20.5731C158.894 20.643 159.164 20.7138 159.429 20.7854C159.077 21.4654 158.737 22.1495 158.41 22.838C158.067 23.5773 157.717 24.3175 157.361 25.0585C156.839 26.0775 156.277 27.0719 155.675 28.0416Z" fill="white"/>
<path d="M164.747 25.104C164.618 25.1343 164.499 25.1028 164.389 25.0093C164.278 24.9158 164.215 24.8097 164.198 24.6909C164.159 24.4177 164.298 24.2406 164.614 24.1595C165.481 23.952 166.348 23.6961 167.213 23.3918C168.079 23.0876 168.887 22.6764 169.638 22.1582C170.304 21.7247 170.85 21.1748 171.277 20.5086C171.467 20.2272 171.534 19.9329 171.479 19.6257C171.423 19.4882 171.315 19.4066 171.153 19.3809C171.002 19.3417 170.861 19.3254 170.728 19.332C169.885 19.3665 169.141 19.6293 168.495 20.1205C167.85 20.6117 167.395 21.2516 167.131 22.0403C166.898 22.7882 166.894 23.5339 167.12 24.2774C167.23 24.6254 167.442 24.8802 167.756 25.0418C168.041 25.1711 168.34 25.2318 168.654 25.2237C169.385 25.1687 170.047 24.9235 170.64 24.4883C171.238 24.0886 171.771 23.6194 172.24 23.0804C172.439 22.8584 172.665 22.8265 172.917 22.9846C173.128 23.1851 173.159 23.4108 173.013 23.6617C172.381 24.4176 171.601 25.0673 170.672 25.6107C169.755 26.1524 168.789 26.3073 167.775 26.0751C167.09 25.857 166.609 25.4585 166.333 24.8796C166.069 24.2989 165.961 23.66 166.007 22.9627C166.054 22.2654 166.208 21.6378 166.468 21.0799C166.929 20.1422 167.622 19.4263 168.545 18.932C168.973 18.7019 169.447 18.5379 169.966 18.4402C170.496 18.3289 171 18.3364 171.478 18.4626C171.999 18.6312 172.321 18.9854 172.446 19.5252C172.507 20.0377 172.399 20.5194 172.123 20.9704C171.608 21.7824 170.946 22.4517 170.136 22.9783C169.327 23.5168 168.461 23.9483 167.538 24.2729C166.614 24.5974 165.684 24.8745 164.747 25.104Z" fill="white"/>
<path d="M176.668 17.7645C176.825 17.5 177.032 17.4222 177.29 17.5312C177.558 17.6265 177.645 17.8201 177.553 18.1118C176.555 20.301 175.803 22.5702 175.3 24.9195C175.231 25.2079 175.051 25.3485 174.759 25.3413C174.483 25.2714 174.348 25.0905 174.356 24.7986C174.873 22.3747 175.644 20.03 176.668 17.7645ZM182.823 16.9481C182.956 16.687 183.162 16.5973 183.44 16.6791C183.691 16.8254 183.781 17.0368 183.711 17.3132C182.939 19.652 182.343 22.0326 181.923 24.455C181.832 24.7586 181.651 24.8932 181.38 24.8589C181.107 24.8127 180.973 24.6378 180.979 24.3341C181.411 21.8252 182.026 19.3632 182.823 16.9481ZM183.325 20.2396C183.639 20.2315 183.817 20.37 183.857 20.6552C183.872 20.7621 183.84 20.8757 183.76 20.9961C183.692 21.1148 183.591 21.1774 183.459 21.184C180.435 21.2241 177.501 21.7665 174.656 22.8113C174.352 22.8907 174.146 22.8047 174.038 22.5534C173.928 22.2903 174.008 22.0851 174.278 21.9378C177.191 20.8592 180.207 20.2931 183.325 20.2396Z" fill="white"/>
<path d="M184.812 22.2649C184.683 22.2953 184.563 22.2638 184.453 22.1703C184.343 22.0768 184.279 21.9707 184.262 21.8519C184.224 21.5787 184.362 21.4015 184.678 21.3205C185.545 21.113 186.412 20.8571 187.278 20.5528C188.143 20.2486 188.952 19.8373 189.702 19.3191C190.368 18.8857 190.914 18.3358 191.341 17.6695C191.531 17.3881 191.599 17.0938 191.543 16.7867C191.487 16.6492 191.379 16.5676 191.218 16.5419C191.067 16.5027 190.925 16.4864 190.793 16.493C189.949 16.5275 189.205 16.7903 188.56 17.2815C187.914 17.7727 187.46 18.4126 187.195 19.2013C186.962 19.9492 186.958 20.6949 187.185 21.4384C187.295 21.7864 187.506 22.0412 187.82 22.2028C188.105 22.3321 188.404 22.3928 188.718 22.3847C189.45 22.3297 190.112 22.0845 190.704 21.6493C191.302 21.2496 191.836 20.7803 192.305 20.2414C192.503 20.0194 192.729 19.9875 192.982 20.1456C193.192 20.3461 193.224 20.5718 193.078 20.8227C192.445 21.5786 191.665 22.2283 190.736 22.7717C189.819 23.3134 188.853 23.4682 187.839 23.2361C187.154 23.018 186.673 22.6195 186.398 22.0405C186.134 21.4599 186.025 20.8209 186.072 20.1236C186.119 19.4263 186.272 18.7987 186.532 18.2409C186.994 17.3032 187.686 16.5872 188.61 16.093C189.037 15.8628 189.511 15.6989 190.03 15.6012C190.56 15.4899 191.064 15.4973 191.542 15.6235C192.063 15.7922 192.386 16.1464 192.51 16.6861C192.571 17.1986 192.463 17.6804 192.188 18.1313C191.673 18.9434 191.01 19.6127 190.2 20.1393C189.392 20.6778 188.526 21.1093 187.602 21.4339C186.679 21.7584 185.749 22.0354 184.812 22.2649Z" fill="white"/>
<path d="M194.414 22.5603C194.247 22.7535 194.051 22.7812 193.826 22.6435C193.633 22.4769 193.605 22.2809 193.743 22.0554C194.105 21.4468 194.46 20.8271 194.807 20.1964C195.193 19.4995 195.547 18.7891 195.868 18.065C196.351 17.0272 196.854 15.9988 197.376 14.9798C197.516 14.7662 197.681 14.6883 197.871 14.7463C198.072 14.8026 198.184 14.9503 198.206 15.1896C198.186 16.077 198.153 16.9601 198.108 17.8389C198.063 18.7178 198.054 19.5975 198.082 20.4782C197.851 20.3896 197.626 20.3002 197.408 20.21C198.32 19.463 199.101 18.6012 199.75 17.6248C200.119 17.0636 200.463 16.494 200.781 15.9158C201.099 15.3377 201.443 14.774 201.814 14.2247C201.96 14.0586 202.129 14.0164 202.323 14.0981C202.514 14.168 202.602 14.3131 202.584 14.5337C202.456 15.1698 202.346 15.8034 202.254 16.4345C202.178 17.0995 202.12 17.762 202.08 18.422C202.001 19.4026 201.872 20.378 201.695 21.3483C201.611 21.6146 201.446 21.7349 201.2 21.7091C200.953 21.6714 200.839 21.5118 200.86 21.2301C200.963 20.5855 201.053 19.9366 201.13 19.2835C201.205 18.6185 201.262 17.95 201.301 17.2782C201.395 16.3196 201.54 15.3722 201.734 14.4359C201.99 14.5329 202.247 14.6359 202.505 14.7448C202.124 15.3076 201.77 15.8849 201.442 16.4766C201.113 17.0684 200.765 17.6448 200.396 18.2059C199.702 19.2129 198.883 20.1043 197.939 20.8801C197.806 20.9715 197.664 20.9917 197.511 20.9406C197.357 20.8776 197.268 20.763 197.244 20.5967C197.212 19.6804 197.215 18.765 197.256 17.8505C197.294 16.9241 197.328 16.0045 197.356 15.0917C197.632 15.1617 197.903 15.2324 198.168 15.3041C197.815 15.984 197.476 16.6682 197.149 17.3566C196.806 18.0959 196.456 18.8361 196.1 19.5771C195.578 20.5961 195.016 21.5905 194.414 22.5603Z" fill="white"/>
<path d="M205.883 0.725774C205.959 0.4001 206.145 0.258667 206.441 0.301482C206.748 0.330736 206.909 0.520138 206.922 0.869684C206.823 2.39832 206.731 3.93205 206.646 5.47088C206.377 10.8526 206.267 16.2362 206.314 21.6217C206.327 21.9713 206.179 22.1679 205.87 22.2116C205.739 22.2301 205.608 22.2002 205.476 22.122C205.354 22.0302 205.288 21.9122 205.28 21.768C205.267 20.2188 205.266 18.668 205.276 17.1155C205.314 11.6452 205.516 6.18201 205.883 0.725774ZM205.035 24.5291C205.015 24.3865 205.044 24.2551 205.124 24.1347C205.218 24.0245 205.336 23.9594 205.478 23.9392C205.621 23.919 205.746 23.9497 205.855 24.0313C205.965 24.1248 206.036 24.242 206.068 24.3828C206.205 24.9209 206.253 25.4716 206.211 26.0348C206.134 26.3486 205.937 26.4977 205.62 26.482C205.484 26.4648 205.372 26.4019 205.284 26.2932C205.196 26.1845 205.16 26.0563 205.175 25.9087C205.182 25.7866 205.183 25.6653 205.178 25.5448C205.185 25.5923 205.186 25.6407 205.181 25.6899C205.173 25.2911 205.124 24.9042 205.035 24.5291Z" fill="white"/>
</svg>
