<svg width="159" height="159" viewBox="0 0 159 159" fill="none" xmlns="http://www.w3.org/2000/svg">
<rect width="159" height="159" rx="10" fill="#292929"/>
<path d="M47.9785 26.6807H47.9932C48.2505 26.675 48.5061 26.7262 48.7412 26.8311C48.971 26.9336 49.1751 27.0853 49.3408 27.2744C50.167 28.3916 50.865 29.598 51.4219 30.8711L51.4268 30.8809L51.4307 30.8896L67.9775 65.8027L64.9688 70.6758L47.8184 34.1191L46.5225 34.3936L45.7334 71.6465C45.6365 74.8166 46.179 77.2336 47.4609 78.7344C48.2146 79.6166 49.2715 80.205 50.585 80.5469C50.4173 80.5425 50.2588 80.5372 50.1104 80.5371H50.1113L45.3232 80.4561L45.3115 80.4551L45.2998 80.4561L40.7021 80.5371L40.668 80.5381L40.6348 80.542C40.4587 80.5625 40.2633 80.5776 40.0479 80.5898C40.1391 80.5601 40.2311 80.5305 40.3213 80.4971C41.3457 80.1174 42.2708 79.5108 43.0273 78.7227L43.0449 78.7041L43.0615 78.6846C44.2943 77.1899 44.9289 74.8019 44.9307 71.6807L45.7334 30.6123L45.7383 30.3838L45.6035 30.1982C44.7111 28.9707 43.531 27.9808 42.167 27.3154C41.7122 27.0936 41.2413 26.9107 40.7598 26.7666L41.0049 26.7744C41.6546 26.858 42.4981 26.8574 43.5293 26.8574C44.5769 26.8574 45.5477 26.8729 46.3379 26.7705C47.0264 26.6813 47.5614 26.6807 47.9785 26.6807Z" fill="white" stroke="white" stroke-width="1.36035"/>
<path d="M93.7266 26.6803C94.1214 26.6875 94.5157 26.7167 94.9072 26.7682V26.7692C95.3711 26.837 95.9412 26.8523 96.5898 26.8561L97.2637 26.858L97.2764 26.857L100.086 26.8014C99.2644 27.0292 98.4649 27.3421 97.7002 27.7359L97.6641 27.7545L97.6299 27.777C96.0765 28.8293 95.5225 30.7499 95.5225 33.1695V33.1988L96.5078 56.1959L92.1045 54.1276L91.3047 33.8502L90 33.608L77.1436 63.441L76.5166 63.0904L91.6201 28.5104C92.2769 27.1339 92.9787 26.6813 93.7266 26.6813V26.6803Z" fill="white" stroke="white" stroke-width="1.36035"/>
<path d="M105.317 68.8658C110.639 68.8658 114.846 70.0062 118.034 72.2398L118.339 72.4595C121.494 74.7893 123.119 78.3368 123.137 83.233V83.2427L123.138 83.2525C123.249 86.6966 122.259 90.0864 120.312 92.9293C118.577 95.3595 116.243 97.295 113.541 98.5504L112.996 98.7925L112.989 98.7955C110.513 99.8782 107.871 100.516 105.182 100.688C108.143 100.287 110.933 99.0044 113.173 96.98L113.444 96.7291L113.452 96.7203C116.345 93.876 117.746 89.9224 117.737 84.9566C117.727 80.1552 116.472 76.2856 113.898 73.4302L113.645 73.1568C112.324 71.7678 110.729 70.6691 108.96 69.9302C107.422 69.2877 105.783 68.9299 104.121 68.8716C104.54 68.8667 104.938 68.8658 105.317 68.8658Z" fill="white" stroke="white" stroke-width="1.36035"/>
<path d="M95.0051 88.1391V117.58C94.912 119.127 95.1928 120.674 95.8264 122.088L95.8538 122.15L95.8928 122.205C96.2974 122.773 96.8116 123.255 97.4045 123.623C97.9924 123.987 98.6467 124.23 99.3293 124.341V124.342C99.7682 124.424 100.209 124.493 100.651 124.557L92.7815 124.476H92.7737L92.7649 124.477L86.7024 124.557C86.881 124.522 87.0598 124.487 87.2375 124.447L87.2366 124.446C87.8122 124.319 88.3498 124.057 88.804 123.681C89.2587 123.305 89.6165 122.824 89.8489 122.282L89.8606 122.254L89.8704 122.226C90.3246 120.842 90.5201 119.387 90.4485 117.933V85.5102L95.0051 88.1391Z" fill="white" stroke="white" stroke-width="1.36035"/>
<path d="M55.011 119.008L110.989 39.3048" stroke="white" stroke-width="1.67323"/>
</svg>
