<svg width="50" height="50" viewBox="0 0 50 50" fill="none" xmlns="http://www.w3.org/2000/svg">
<path d="M43.6407 42.2445H6.33234C6.23604 42.2403 6.14467 42.2007 6.07567 42.1334C6.00668 42.0661 5.96488 41.9757 5.95825 41.8795V0.364985C5.96488 0.268821 6.00668 0.178469 6.07567 0.111155C6.14467 0.0438415 6.23604 0.00425505 6.33234 0H43.6133C43.7096 0.00425505 43.801 0.0438415 43.87 0.111155C43.939 0.178469 43.9808 0.268821 43.9874 0.364985V41.7883C43.9982 41.8942 43.9684 42.0001 43.904 42.0848C43.8397 42.1695 43.7456 42.2266 43.6407 42.2445ZM6.81592 41.4233H43.3122V0.821189H6.81592V41.4233Z" fill="white"/>
<path d="M46.9711 47.6278H3.02951C2.93482 47.6214 2.84565 47.5809 2.77855 47.5138C2.71144 47.4467 2.67096 47.3575 2.66455 47.2629V41.8796C2.67096 41.7849 2.71144 41.6958 2.77855 41.6287C2.84565 41.5616 2.93482 41.5211 3.02951 41.5146H46.9711C47.0658 41.5211 47.1549 41.5616 47.222 41.6287C47.2891 41.6958 47.3296 41.7849 47.336 41.8796V47.2629C47.3296 47.3575 47.2891 47.4467 47.222 47.5138C47.1549 47.5809 47.0658 47.6214 46.9711 47.6278ZM3.49485 46.8067H46.597V42.2446H3.49485V46.8067Z" fill="white"/>
<path d="M46.1404 15.9673H43.6404C43.5457 15.9609 43.4565 15.9204 43.3894 15.8533C43.3223 15.7862 43.2818 15.697 43.2754 15.6024V8.1206C43.2818 8.02592 43.3223 7.93677 43.3894 7.86967C43.4565 7.80256 43.5457 7.76202 43.6404 7.75562H46.1404C46.2351 7.76202 46.3242 7.80256 46.3913 7.86967C46.4584 7.93677 46.4989 8.02592 46.5053 8.1206V15.6024C46.5966 15.7848 46.4141 15.9673 46.1404 15.9673ZM44.0144 15.1462H45.675V8.48559H44.0144V15.1462Z" fill="white"/>
<path d="M46.1404 33.1204H43.6404C43.5457 33.114 43.4565 33.0734 43.3894 33.0063C43.3223 32.9392 43.2818 32.8501 43.2754 32.7554V25.2736C43.2818 25.1789 43.3223 25.0898 43.3894 25.0227C43.4565 24.9556 43.5457 24.9151 43.6404 24.9087H46.1404C46.2351 24.9151 46.3242 24.9556 46.3913 25.0227C46.4584 25.0898 46.4989 25.1789 46.5053 25.2736V32.7554C46.5966 32.9379 46.4141 33.1204 46.1404 33.1204ZM44.0144 32.2992H45.675V25.6386H44.0144V32.2992Z" fill="white"/>
<path d="M39.4893 42.2445H29.7995C29.7048 42.2381 29.6157 42.1975 29.5486 42.1304C29.4815 42.0633 29.441 41.9742 29.4346 41.8795V4.28827C29.441 4.19358 29.4815 4.10444 29.5486 4.03734C29.6157 3.97023 29.7048 3.92974 29.7995 3.92334H39.4893C39.585 3.9295 39.6752 3.96967 39.7438 4.03661C39.8125 4.10355 39.8549 4.19279 39.8634 4.28827V41.8795C39.8549 41.975 39.8125 42.0643 39.7438 42.1312C39.6752 42.1981 39.585 42.2383 39.4893 42.2445ZM30.2649 41.4233H39.1243V4.65326H30.2649V41.4233Z" fill="white"/>
<path d="M29.7993 42.2445H10.511C10.4154 42.2383 10.3251 42.1981 10.2565 42.1312C10.1879 42.0643 10.1455 41.975 10.137 41.8795V4.28827C10.1455 4.19279 10.1879 4.10355 10.2565 4.03661C10.3251 3.96967 10.4154 3.9295 10.511 3.92334H29.7993C29.894 3.92974 29.9832 3.97023 30.0503 4.03734C30.1174 4.10444 30.1579 4.19358 30.1643 4.28827V41.8795C30.2647 42.062 30.0548 42.2445 29.7993 42.2445ZM10.9672 41.4233H29.4344V4.65326H10.9672V41.4233Z" fill="white"/>
<path d="M39.4893 33.3941H29.7995C29.7048 33.3877 29.6157 33.3472 29.5486 33.2801C29.4815 33.2129 29.441 33.1238 29.4346 33.0291V4.28827C29.441 4.19358 29.4815 4.10444 29.5486 4.03734C29.6157 3.97023 29.7048 3.92974 29.7995 3.92334H39.4893C39.585 3.9295 39.6752 3.96967 39.7438 4.03661C39.8125 4.10355 39.8549 4.19279 39.8634 4.28827V33.0291C39.8549 33.1246 39.8125 33.2139 39.7438 33.2808C39.6752 33.3478 39.585 33.3879 39.4893 33.3941ZM30.2649 32.5729H39.1243V4.65326H30.2649V32.5729Z" fill="white"/>
<path d="M18.3577 18.7959C18.2665 18.7959 18.1661 18.7959 18.1661 18.7046C18.0745 18.651 18.0055 18.5659 17.9719 18.4652C17.9384 18.3645 17.9425 18.2551 17.9836 18.1572L23.6679 8.3032C23.7245 8.2123 23.8113 8.14421 23.9131 8.11085C24.0148 8.07749 24.125 8.08096 24.2245 8.1207C24.3161 8.17435 24.3851 8.25941 24.4186 8.36011C24.4522 8.46081 24.4481 8.57026 24.407 8.66813L18.6862 18.5222C18.6555 18.5895 18.61 18.6491 18.5532 18.6965C18.4963 18.7439 18.4295 18.7779 18.3577 18.7959Z" fill="white"/>
<path d="M15.958 22.8103C15.8668 22.8103 15.7664 22.8104 15.7664 22.7191C15.6748 22.6655 15.6058 22.5804 15.5723 22.4797C15.5387 22.379 15.5429 22.2696 15.584 22.1717L17.1533 19.5257C17.2086 19.4334 17.2953 19.3641 17.3975 19.3306C17.4998 19.2971 17.6107 19.3015 17.7099 19.3432C17.8015 19.3968 17.8705 19.4819 17.904 19.5826C17.9376 19.6833 17.9334 19.7928 17.8924 19.8907L16.3686 22.5366C16.3303 22.6143 16.2722 22.6805 16.2001 22.7286C16.128 22.7766 16.0445 22.8048 15.958 22.8103Z" fill="white"/>
<path d="M19.4617 22.7189C19.3704 22.7189 19.2792 22.7189 19.2792 22.6277C19.1861 22.5755 19.1158 22.4905 19.0821 22.3892C19.0483 22.288 19.0535 22.1778 19.0967 22.0802L22.6916 15.9671C22.7469 15.8748 22.8336 15.8055 22.9358 15.772C23.0381 15.7385 23.149 15.743 23.2482 15.7846C23.3397 15.8383 23.4087 15.9233 23.4423 16.024C23.4759 16.1247 23.4717 16.2342 23.4306 16.3321L19.8266 22.4452C19.7924 22.5169 19.7413 22.5792 19.6777 22.6269C19.6142 22.6745 19.5401 22.7061 19.4617 22.7189Z" fill="white"/>
<path d="M34.5071 24.0875C34.4159 24.0875 34.3246 24.0875 34.3246 23.9963C34.2299 23.9456 34.1577 23.8612 34.1222 23.7598C34.0867 23.6584 34.0906 23.5475 34.133 23.4488L36.2589 19.8904C36.3142 19.7981 36.4009 19.7289 36.5032 19.6954C36.6054 19.6618 36.7163 19.6663 36.8155 19.7079C36.9071 19.7616 36.9761 19.8466 37.0096 19.9473C37.0432 20.048 37.039 20.1575 36.9979 20.2554L34.872 23.8138C34.872 24.0875 34.6896 24.0875 34.5071 24.0875Z" fill="white"/>
<path d="M33.9506 28.011C33.8594 28.011 33.7681 28.011 33.7681 27.9198C33.6766 27.8661 33.6076 27.7811 33.574 27.6804C33.5404 27.5797 33.5446 27.4702 33.5857 27.3723L35.7024 23.8139C35.7591 23.723 35.8458 23.655 35.9476 23.6216C36.0493 23.5882 36.1596 23.5917 36.259 23.6314C36.3521 23.6836 36.4224 23.7687 36.4561 23.8699C36.4899 23.9711 36.4846 24.0813 36.4415 24.1789L34.3247 27.7373C34.289 27.8096 34.2363 27.8723 34.1712 27.9199C34.106 27.9676 34.0304 27.9988 33.9506 28.011Z" fill="white"/>
<path d="M49.3705 49.9999H0.629606C0.534921 49.9935 0.445777 49.953 0.378672 49.8859C0.311566 49.8188 0.271053 49.7296 0.264648 49.6349V47.2627C0.271053 47.168 0.311566 47.0788 0.378672 47.0117C0.445777 46.9446 0.534921 46.9041 0.629606 46.8977H49.3705C49.4651 46.9041 49.5543 46.9446 49.6214 47.0117C49.6885 47.0788 49.729 47.168 49.7354 47.2627V49.6349C49.729 49.7296 49.6885 49.8188 49.6214 49.8859C49.5543 49.953 49.4651 49.9935 49.3705 49.9999ZM1.09494 49.1787H48.9964V47.6276H1.09494V49.1787Z" fill="white"/>
<path d="M46.9711 45.5292H7.73752C7.64072 45.5292 7.5479 45.4908 7.47945 45.4223C7.41101 45.3539 7.37256 45.261 7.37256 45.1642C7.37256 45.0675 7.41101 44.9746 7.47945 44.9062C7.5479 44.8377 7.64072 44.7993 7.73752 44.7993H46.9711C47.0679 44.7993 47.1607 44.8377 47.2291 44.9062C47.2976 44.9746 47.336 45.0675 47.336 45.1642C47.336 45.261 47.2976 45.3539 47.2291 45.4223C47.1607 45.4908 47.0679 45.5292 46.9711 45.5292Z" fill="white"/>
</svg>
