<svg width="60" height="60" viewBox="0 0 60 60" fill="none" xmlns="http://www.w3.org/2000/svg">
<rect width="60" height="60" rx="30" fill="#5667CA"/>
<path d="M15 18.75V46.5C15 47.0962 15.2366 47.668 15.6578 48.0898C16.0791 48.5117 16.6505 48.7491 17.2467 48.75H42.7533C43.0488 48.7504 43.3414 48.6925 43.6144 48.5796C43.8874 48.4666 44.1354 48.3008 44.3441 48.0918C44.5529 47.8827 44.7183 47.6345 44.8308 47.3613C44.9434 47.0881 45.0009 46.7954 45 46.5V18.75M15 18.75H45M15 18.75V13.75C15 13.087 15.2634 12.4511 15.7322 11.9822C16.2011 11.5134 16.837 11.25 17.5 11.25H42.5C43.163 11.25 43.7989 11.5134 44.2678 11.9822C44.7366 12.4511 45 13.087 45 13.75V18.75M30 18.75V48.75M15 33.75H45M22.5 23.75V28.75M20 26.25H25M25 38.75L20 43.75M20 38.75L25 43.75M35 26.25H40M35 38.75H40M35 43.75H40" stroke="white" stroke-width="1.5" stroke-linecap="round" stroke-linejoin="round"/>
</svg>
