<svg width="60" height="60" viewBox="0 0 60 60" fill="none" xmlns="http://www.w3.org/2000/svg">
<path d="M5.62499 9.80739V28.8424C5.62608 34.8588 7.44974 40.7337 10.8557 45.6931C14.2617 50.6526 19.0901 54.4639 24.705 56.6249L27.3075 57.6249C29.0406 58.2915 30.9594 58.2915 32.6925 57.6249L35.295 56.6249C40.9098 54.4639 45.7383 50.6526 49.1443 45.6931C52.5502 40.7337 54.3739 34.8588 54.375 28.8424V9.80739C54.3788 9.0913 54.1762 8.38927 53.7913 7.78538C53.4065 7.18148 52.8557 6.70132 52.205 6.40239C45.2046 3.34687 37.6379 1.80404 30 1.87489C22.3621 1.80404 14.7954 3.34687 7.79499 6.40239C7.14426 6.70132 6.59349 7.18148 6.20863 7.78538C5.82377 8.38927 5.62114 9.0913 5.62499 9.80739Z" stroke="#5667CA" stroke-width="3" stroke-linecap="round" stroke-linejoin="round"/>
<path d="M43 28.125C42.6406 30.6146 41.5734 32.9485 39.9255 34.8489C38.2775 36.7493 36.1181 38.1361 33.7045 38.8442C31.2908 39.5523 28.7245 39.5519 26.311 38.8431C23.8975 38.1343 21.7386 36.7468 20.0912 34.846C18.4438 32.9451 17.3773 30.6109 17.0187 28.1212C16.66 25.6314 17.0244 23.0911 18.0684 20.8026C19.1124 18.5141 20.792 16.5738 22.9074 15.2126C25.0227 13.8515 27.4846 13.1268 30 13.125" stroke="#313131" stroke-width="3" stroke-linecap="round" stroke-linejoin="round"/>
<path d="M43.125 16.4048L31.16 28.3698C30.8521 28.6769 30.4349 28.8494 30 28.8494C29.565 28.8494 29.1479 28.6769 28.84 28.3698L25.09 24.6073" stroke="#313131" stroke-width="3" stroke-linecap="round" stroke-linejoin="round"/>
</svg>
