<svg width="60" height="60" viewBox="0 0 60 60" fill="none" xmlns="http://www.w3.org/2000/svg">
<rect width="60" height="60" rx="30" fill="#5667CA"/>
<path d="M13.75 16.5384V29.2284C13.7508 33.2393 14.9665 37.1559 17.2372 40.4622C19.5078 43.7685 22.7268 46.3094 26.47 47.7501L28.205 48.4168C29.3604 48.8612 30.6396 48.8612 31.795 48.4168L33.53 47.7501C37.2733 46.3094 40.4923 43.7685 42.7629 40.4622C45.0335 37.1559 46.2493 33.2393 46.25 29.2284V16.5384C46.2526 16.061 46.1175 15.593 45.8609 15.1904C45.6044 14.7878 45.2372 14.4677 44.8034 14.2684C40.1364 12.2314 35.0919 11.2029 30 11.2501C24.9081 11.2029 19.8636 12.2314 15.1967 14.2684C14.7629 14.4677 14.3957 14.7878 14.1391 15.1904C13.8826 15.593 13.7475 16.061 13.75 16.5384Z" stroke="white" stroke-width="1.5" stroke-linecap="round" stroke-linejoin="round"/>
<path d="M38.6666 28.75C38.427 30.4097 37.7156 31.9657 36.6169 33.2326C35.5183 34.4995 34.0787 35.424 32.4696 35.8961C30.8605 36.3682 29.1496 36.3679 27.5406 35.8954C25.9316 35.4228 24.4924 34.4979 23.3941 33.2306C22.2958 31.9634 21.5848 30.4072 21.3457 28.7474C21.1067 27.0876 21.3496 25.3941 22.0456 23.8684C22.7416 22.3427 23.8613 21.0492 25.2715 20.1417C26.6817 19.2343 28.323 18.7512 29.9999 18.75" stroke="white" stroke-width="1.5" stroke-linecap="round" stroke-linejoin="round"/>
<path d="M38.7501 20.9368L30.7735 28.9134C30.5682 29.1182 30.2901 29.2332 30.0001 29.2332C29.7102 29.2332 29.4321 29.1182 29.2268 28.9134L26.7268 26.4051" stroke="white" stroke-width="1.5" stroke-linecap="round" stroke-linejoin="round"/>
</svg>
