<svg width="50" height="45" viewBox="0 0 50 45" fill="none" xmlns="http://www.w3.org/2000/svg">
<path d="M16.6828 17.3172C16.6338 17.3237 16.5842 17.3182 16.5374 17.301C16.4905 17.2839 16.4478 17.2555 16.4121 17.218L10.9986 11.3642C10.8182 11.1657 10.8182 10.8681 10.9986 10.7689L18.8482 2.23621C18.8852 2.19791 18.9295 2.16914 18.9779 2.15198C19.0263 2.13482 19.0775 2.12972 19.1279 2.13702C19.1769 2.13054 19.2266 2.13609 19.2734 2.15325C19.3202 2.1704 19.3629 2.19871 19.3986 2.23621L24.8121 8.09003C24.9926 8.28846 24.9926 8.58609 24.8121 8.68531L16.9625 17.218C16.8723 17.218 16.8001 17.3172 16.6828 17.3172ZM11.937 11.0665L16.6828 16.325L23.9008 8.48692L19.155 3.22838L11.937 11.0665Z" fill="white"/>
<path d="M12.8572 21.4844C12.8068 21.4917 12.7556 21.4866 12.7072 21.4694C12.6589 21.4523 12.6146 21.4235 12.5775 21.3852L7.16402 15.5314C6.98357 15.3329 6.98357 15.0353 7.16402 14.9361L9.72643 12.158C9.76207 12.1205 9.80483 12.0922 9.85163 12.075C9.89844 12.0579 9.94812 12.0523 9.9971 12.0588C10.0461 12.0523 10.0958 12.0579 10.1426 12.075C10.1894 12.0922 10.2321 12.1205 10.2678 12.158L15.6813 18.0118C15.8617 18.2102 15.8617 18.5078 15.6813 18.6071L13.1279 21.3852C13.0923 21.4227 13.0495 21.451 13.0027 21.4681C12.9559 21.4853 12.9062 21.4909 12.8572 21.4844ZM8.01214 15.2337L12.758 20.4922L14.77 18.3094L10.0242 13.0509L8.01214 15.2337Z" fill="white"/>
<path d="M14.6798 17.9124C14.6308 17.9189 14.5812 17.9133 14.5344 17.8962C14.4876 17.879 14.4448 17.8506 14.4091 17.8131L10.3851 13.4476C10.2046 13.2492 10.2046 12.9515 10.3851 12.8523L11.6663 11.4633C11.7019 11.4258 11.7447 11.3974 11.7915 11.3803C11.8383 11.3631 11.888 11.3576 11.937 11.364C11.9873 11.3574 12.0384 11.3629 12.0867 11.38C12.135 11.3972 12.1793 11.4256 12.2167 11.4633L16.2317 15.8288C16.4121 16.0272 16.4121 16.3249 16.2317 16.4241L14.9956 17.8131C14.9956 17.9124 14.8603 17.9124 14.6798 17.9124ZM11.3054 13.1499L14.6798 16.9202L15.4106 16.1264L12.0272 12.3562L11.3054 13.1499Z" fill="white"/>
<path d="M23.6211 7.79239C23.5721 7.79887 23.5225 7.79331 23.4757 7.77616C23.4289 7.759 23.3861 7.73064 23.3504 7.69313L23.2602 7.59394L18.8753 2.83154C18.785 2.73233 18.785 2.63309 18.785 2.43465C18.785 2.23622 18.8753 2.13701 18.9655 2.13701C20.4947 1.03418 22.235 0.334952 24.0506 0.0939971C25.8661 -0.146957 27.7077 0.0768568 29.4316 0.747954L29.7023 1.04565C29.7925 1.14487 29.7023 1.34327 29.6121 1.44248L24.0181 7.59394C23.8016 7.79237 23.7113 7.79239 23.6211 7.79239ZM19.7865 2.6331L23.6211 6.80022L28.5474 1.44248C27.093 0.953115 25.5611 0.806237 24.0516 1.01138C22.5421 1.21652 21.0889 1.76909 19.7865 2.6331Z" fill="white"/>
<path d="M25.9038 21.2858C25.8548 21.2922 25.8051 21.2867 25.7583 21.2696C25.7115 21.2524 25.6687 21.2241 25.6331 21.1866L19.1549 14.1421C18.9654 13.9437 18.9654 13.6461 19.1549 13.5469L21.4286 11.0664C21.4663 11.0292 21.5107 11.0012 21.5588 10.9841C21.607 10.967 21.658 10.9613 21.7083 10.9672C21.7573 10.9608 21.807 10.9663 21.8538 10.9834C21.9006 11.0006 21.9433 11.0289 21.979 11.0664L28.4571 18.1108C28.6466 18.3092 28.6466 18.6069 28.4571 18.7061L26.1745 21.1866C26.1745 21.2858 26.0842 21.2858 25.9038 21.2858ZM20.0662 13.8445L25.994 20.2936L27.7263 18.4085L21.7985 11.9594L20.0662 13.8445Z" fill="white"/>
<path d="M17.8738 11.8602C17.5981 11.8751 17.3229 11.8203 17.0695 11.6999C16.8161 11.5795 16.5912 11.3967 16.4121 11.1657C16.0612 10.7291 15.8769 10.1605 15.8978 9.57825C15.9025 8.99369 16.0978 8.4304 16.4482 7.9908C16.8381 7.5644 17.3603 7.31623 17.9099 7.29627C18.1842 7.29298 18.456 7.35309 18.7078 7.47273C18.9596 7.59238 19.1857 7.7689 19.3715 7.9908C19.7331 8.42222 19.9273 8.99175 19.9129 9.57825C19.9115 10.1617 19.7194 10.7251 19.3715 11.1657C19.1887 11.4022 18.9579 11.5883 18.6978 11.7089C18.4377 11.8296 18.1554 11.8814 17.8738 11.8602ZM17.8738 8.38763C17.7182 8.37827 17.5628 8.40934 17.4202 8.47829C17.2775 8.54723 17.1516 8.65214 17.0527 8.78452C16.8412 9.02763 16.7108 9.34236 16.6828 9.67744C16.6688 9.84877 16.6955 10.0212 16.7604 10.1778C16.8252 10.3343 16.926 10.4696 17.0527 10.5704C17.2782 10.8002 17.5674 10.9399 17.8738 10.9673C18.0302 10.9856 18.1883 10.9586 18.3323 10.889C18.4763 10.8194 18.6013 10.7095 18.6948 10.5704C18.9037 10.3264 19.0309 10.0115 19.0557 9.67744C19.0635 9.50789 19.0349 9.33872 18.9722 9.18359C18.9095 9.02846 18.8145 8.89177 18.6948 8.78452C18.6013 8.6454 18.4763 8.53555 18.3323 8.46593C18.1883 8.39631 18.0302 8.36932 17.8738 8.38763Z" fill="white"/>
<path d="M26.3639 24.56C26.3135 24.5666 26.2625 24.5612 26.2142 24.544C26.1659 24.5269 26.1216 24.4985 26.0842 24.4608L24.4421 22.6749C24.2617 22.4765 24.2617 22.1788 24.4421 22.0795L29.2782 16.8211C29.3159 16.7839 29.3602 16.7559 29.4084 16.7388C29.4566 16.7217 29.5075 16.7159 29.5579 16.7219C29.6069 16.7154 29.6565 16.7209 29.7033 16.738C29.7501 16.7552 29.7929 16.7836 29.8286 16.8211L31.4707 18.607C31.6511 18.8054 31.6511 19.1031 31.4707 19.2023L26.6346 24.4608C26.5444 24.4608 26.4541 24.56 26.3639 24.56ZM25.2631 22.278L26.3639 23.4686L30.5594 18.9047L29.4316 17.714L25.2631 22.278Z" fill="white"/>
<path d="M45.3474 44.6018C44.7356 44.6213 44.127 44.4988 43.5611 44.2424C42.9953 43.986 42.4849 43.6014 42.0632 43.1136C39.2301 40.0379 35.9459 35.7716 32.7519 31.6045C30.5595 28.7272 28.5474 26.0483 26.6347 23.7663C26.5918 23.7323 26.5569 23.6876 26.5328 23.6358C26.5088 23.5841 26.4962 23.5268 26.4962 23.4687C26.4962 23.4106 26.5088 23.3533 26.5328 23.3015C26.5569 23.2498 26.5918 23.2051 26.6347 23.171L30.379 19.1031C30.4099 19.056 30.4506 19.0176 30.4977 18.9911C30.5447 18.9647 30.5968 18.9509 30.6497 18.9509C30.7025 18.9509 30.7546 18.9647 30.8017 18.9911C30.8487 19.0176 30.8894 19.056 30.9204 19.1031C33.0226 21.1867 35.576 23.4687 38.1384 25.8499C41.8737 29.3225 45.7985 32.7951 48.6316 35.8708C49.0653 36.3456 49.4095 36.9099 49.6444 37.5314C49.8792 38.1528 50.0001 38.8192 50.0001 39.4922C50.0001 40.1652 49.8792 40.8316 49.6444 41.4531C49.4095 42.0745 49.0653 42.6388 48.6316 43.1136C47.7349 44.0274 46.5691 44.5557 45.3474 44.6018ZM27.4557 23.5679C29.2602 25.8499 31.2903 28.3303 33.3925 31.1084C36.5865 35.2755 39.8707 39.4426 42.6045 42.5183C43.3307 43.2723 44.2949 43.6867 45.2936 43.6742C46.2923 43.6616 47.2475 43.223 47.9579 42.4509C48.6682 41.6788 49.0781 40.6335 49.1011 39.5355C49.1241 38.4375 48.7584 37.3726 48.0812 36.5653C45.3744 33.5888 41.4226 30.017 37.6782 26.5444C35.1249 24.2624 32.7519 22.0796 30.7399 20.0953L27.4557 23.5679Z" fill="white"/>
<path d="M29.0075 41.8238H1.46173C1.36602 41.8238 1.27422 41.7819 1.20654 41.7075C1.13885 41.6331 1.10083 41.5321 1.10083 41.4269C1.10083 41.3216 1.13885 41.2207 1.20654 41.1462C1.27422 41.0718 1.36602 41.03 1.46173 41.03H29.0256C29.1202 41.0367 29.2094 41.0804 29.2773 41.1532C29.3451 41.226 29.3871 41.323 29.3955 41.4269C29.4004 41.4829 29.3934 41.5395 29.3752 41.5922C29.357 41.6448 29.3281 41.6922 29.2905 41.7306C29.253 41.7689 29.208 41.7973 29.1589 41.8135C29.1098 41.8296 29.058 41.8331 29.0075 41.8238Z" fill="white"/>
<path d="M36.6497 44.9988H17.6031C17.5557 44.9988 17.5088 44.9885 17.465 44.9686C17.4212 44.9486 17.3814 44.9194 17.3479 44.8825C17.3144 44.8457 17.2878 44.8019 17.2697 44.7538C17.2515 44.7056 17.2422 44.654 17.2422 44.6019C17.2422 44.5498 17.2515 44.4982 17.2697 44.45C17.2878 44.4019 17.3144 44.3581 17.3479 44.3213C17.3814 44.2844 17.4212 44.2552 17.465 44.2352C17.5088 44.2153 17.5557 44.2051 17.6031 44.2051H36.6497C36.7433 44.212 36.8315 44.2561 36.8978 44.329C36.9642 44.402 37.0042 44.4989 37.0106 44.6019C37.0147 44.6552 37.0082 44.7088 36.9915 44.759C36.9748 44.8092 36.9483 44.8548 36.914 44.8926C36.8796 44.9304 36.8381 44.9594 36.7925 44.9778C36.7468 44.9961 36.6981 45.0033 36.6497 44.9988Z" fill="white"/>
<path d="M41.0527 44.9988H38.6798C38.6324 44.9988 38.5854 44.9885 38.5416 44.9686C38.4979 44.9486 38.4581 44.9194 38.4246 44.8825C38.391 44.8457 38.3645 44.8019 38.3463 44.7538C38.3282 44.7056 38.3188 44.654 38.3188 44.6019C38.3188 44.5498 38.3282 44.4982 38.3463 44.45C38.3645 44.4019 38.391 44.3581 38.4246 44.3213C38.4581 44.2844 38.4979 44.2552 38.5416 44.2352C38.5854 44.2153 38.6324 44.2051 38.6798 44.2051H41.0527C41.1001 44.2051 41.147 44.2153 41.1908 44.2352C41.2346 44.2552 41.2744 44.2844 41.3079 44.3213C41.3414 44.3581 41.368 44.4019 41.3861 44.45C41.4042 44.4982 41.4136 44.5498 41.4136 44.6019C41.4136 44.654 41.4042 44.7056 41.3861 44.7538C41.368 44.8019 41.3414 44.8457 41.3079 44.8825C41.2744 44.9194 41.2346 44.9486 41.1908 44.9686C41.147 44.9885 41.1001 44.9988 41.0527 44.9988Z" fill="white"/>
<path d="M9.38356 44.8994H0.361025C0.31363 44.8994 0.266705 44.8892 0.222918 44.8693C0.179132 44.8493 0.13934 44.8201 0.105827 44.7832C0.0723145 44.7464 0.0457317 44.7026 0.0275947 44.6545C0.0094577 44.6063 0.00012207 44.5547 0.00012207 44.5026C0.00012207 44.4505 0.0094577 44.3989 0.0275947 44.3507C0.0457317 44.3026 0.0723145 44.2588 0.105827 44.222C0.13934 44.1851 0.179132 44.1559 0.222918 44.1359C0.266705 44.116 0.31363 44.1057 0.361025 44.1057H9.38356C9.47815 44.1124 9.56744 44.1561 9.63529 44.2289C9.70314 44.3017 9.74506 44.3988 9.75348 44.5026C9.7578 44.5568 9.75112 44.6113 9.73393 44.6623C9.71673 44.7133 9.68945 44.7595 9.65405 44.7975C9.61865 44.8354 9.57602 44.8643 9.52924 44.8819C9.48246 44.8996 9.4327 44.9055 9.38356 44.8994Z" fill="white"/>
</svg>
