<svg width="60" height="60" viewBox="0 0 60 60" fill="none" xmlns="http://www.w3.org/2000/svg">
<g clip-path="url(#clip0_35_201)">
<path d="M54.375 46.875H28.125L13.125 58.125V46.875H5.625C4.63044 46.875 3.67661 46.4799 2.97335 45.7766C2.27009 45.0734 1.875 44.1196 1.875 43.125V5.625C1.875 4.63044 2.27009 3.67661 2.97335 2.97335C3.67661 2.27009 4.63044 1.875 5.625 1.875H54.375C55.3696 1.875 56.3234 2.27009 57.0266 2.97335C57.7299 3.67661 58.125 4.63044 58.125 5.625V43.125C58.125 44.1196 57.7299 45.0734 57.0266 45.7766C56.3234 46.4799 55.3696 46.875 54.375 46.875Z" stroke="#5667CA" stroke-width="3" stroke-linecap="round" stroke-linejoin="round"/>
<path d="M24.375 16.8749C24.375 15.15 24.9696 13.4778 26.0586 12.1401C27.1475 10.8024 28.6643 9.88095 30.3533 9.53099C32.0424 9.18103 33.8004 9.42396 35.3312 10.2189C36.8621 11.0137 38.0721 12.312 38.7575 13.8949C39.3025 15.1574 39.4925 16.5449 39.3025 17.9074C39.1136 19.269 38.5541 20.5526 37.6851 21.6178C36.8161 22.683 35.671 23.4889 34.375 23.9474C33.644 24.2058 33.011 24.6846 32.5633 25.3176C32.1156 25.9507 31.8751 26.707 31.875 27.4824V28.1249" stroke="#313131" stroke-width="3" stroke-linecap="round" stroke-linejoin="round"/>
<path d="M31.875 37.5C31.6264 37.5 31.3879 37.4012 31.2121 37.2254C31.0363 37.0496 30.9375 36.8111 30.9375 36.5625C30.9375 36.3139 31.0363 36.0754 31.2121 35.8996C31.3879 35.7238 31.6264 35.625 31.875 35.625M31.875 37.5C32.1236 37.5 32.3621 37.4012 32.5379 37.2254C32.7137 37.0496 32.8125 36.8111 32.8125 36.5625C32.8125 36.3139 32.7137 36.0754 32.5379 35.8996C32.3621 35.7238 32.1236 35.625 31.875 35.625" stroke="#313131" stroke-width="3"/>
</g>
<defs>
<clipPath id="clip0_35_201">
<rect width="60" height="60" fill="white"/>
</clipPath>
</defs>
</svg>
