<svg width="60" height="60" viewBox="0 0 60 60" fill="none" xmlns="http://www.w3.org/2000/svg">
<rect width="60" height="60" rx="30" fill="#5667CA"/>
<g clip-path="url(#clip0_34_117)">
<path d="M21.24 20.0167V12.915C21.2404 12.4735 21.416 12.0503 21.7281 11.7382C22.0403 11.426 22.4635 11.2504 22.905 11.25H39.0583L48.7417 21.0167V47.0867C48.7408 47.5275 48.5652 47.9501 48.2535 48.2618C47.9418 48.5736 47.5192 48.7491 47.0783 48.75H36.2133" stroke="white" stroke-width="1.5" stroke-linecap="round" stroke-linejoin="round"/>
<path d="M38.71 11.2834V19.6018C38.7108 20.0427 38.8864 20.4652 39.1981 20.777C39.5099 21.0887 39.9324 21.2642 40.3733 21.2651H48.6916M42.9516 27.5051H31.2233M42.9516 40.8134H38.2933M42.9516 34.1601H33.7183M11.2583 43.7251L12.5066 48.7168H29.975L31.2233 43.7251M11.2583 43.7251C11.2587 42.4015 11.7848 41.1323 12.7209 40.1965C13.657 39.2608 14.9264 38.7351 16.25 38.7351H18.745V34.2918C17.7933 33.7424 17.0496 32.8943 16.6291 31.8791C16.2086 30.8639 16.1348 29.7383 16.4192 28.6769C16.7036 27.6155 17.3303 26.6776 18.2021 26.0087C19.0738 25.3398 20.142 24.9772 21.2408 24.9772C22.3396 24.9772 23.4078 25.3398 24.2795 26.0087C25.1513 26.6776 25.778 27.6155 26.0624 28.6769C26.3468 29.7383 26.273 30.8639 25.8525 31.8791C25.432 32.8943 24.6883 33.7424 23.7366 34.2918V38.7334H26.2316C27.5552 38.7334 28.8246 39.2608 29.7607 40.1965C30.6968 41.1323 31.2229 42.4015 31.2233 43.7251M11.2583 43.7251H31.2233" stroke="white" stroke-width="1.5" stroke-linecap="round" stroke-linejoin="round"/>
</g>
<defs>
<clipPath id="clip0_34_117">
<rect width="40" height="40" fill="white" transform="translate(10 10)"/>
</clipPath>
</defs>
</svg>
