<svg width="56" height="54" viewBox="0 0 56 54" fill="none" xmlns="http://www.w3.org/2000/svg">
<path d="M16.2899 11.5002H10.0199C9.91378 11.5002 9.81204 11.4581 9.73703 11.3831C9.66202 11.308 9.61987 11.2063 9.61987 11.1002C9.61987 10.9941 9.66202 10.8924 9.73703 10.8174C9.81204 10.7424 9.91378 10.7002 10.0199 10.7002H16.2899C16.396 10.7002 16.4977 10.7424 16.5727 10.8174C16.6477 10.8924 16.6899 10.9941 16.6899 11.1002C16.6899 11.2063 16.6477 11.308 16.5727 11.3831C16.4977 11.4581 16.396 11.5002 16.2899 11.5002Z" fill="white"/>
<path d="M16.2899 16.5002H10.0199C9.91378 16.5002 9.81204 16.4581 9.73703 16.3831C9.66202 16.308 9.61987 16.2063 9.61987 16.1002C9.61987 15.9941 9.66202 15.8924 9.73703 15.8174C9.81204 15.7424 9.91378 15.7002 10.0199 15.7002H16.2899C16.396 15.7002 16.4977 15.7424 16.5727 15.8174C16.6477 15.8924 16.6899 15.9941 16.6899 16.1002C16.6899 16.2063 16.6477 16.308 16.5727 16.3831C16.4977 16.4581 16.396 16.5002 16.2899 16.5002Z" fill="white"/>
<path d="M16.2899 18.4001H10.0199C9.96734 18.4001 9.91532 18.3897 9.86679 18.3696C9.81826 18.3495 9.77417 18.32 9.73703 18.2829C9.69989 18.2458 9.67043 18.2017 9.65033 18.1531C9.63023 18.1046 9.61987 18.0526 9.61987 18.0001C9.61987 17.9475 9.63023 17.8955 9.65033 17.847C9.67043 17.7985 9.69989 17.7544 9.73703 17.7172C9.77417 17.6801 9.81826 17.6506 9.86679 17.6305C9.91532 17.6104 9.96734 17.6001 10.0199 17.6001H16.2899C16.3424 17.6001 16.3944 17.6104 16.443 17.6305C16.4915 17.6506 16.5356 17.6801 16.5727 17.7172C16.6099 17.7544 16.6393 17.7985 16.6594 17.847C16.6795 17.8955 16.6899 17.9475 16.6899 18.0001C16.6899 18.0526 16.6795 18.1046 16.6594 18.1531C16.6393 18.2017 16.6099 18.2458 16.5727 18.2829C16.5356 18.32 16.4915 18.3495 16.443 18.3696C16.3944 18.3897 16.3424 18.4001 16.2899 18.4001Z" fill="white"/>
<path d="M24.8899 20.4001H9.88989C9.83736 20.4001 9.78535 20.3897 9.73682 20.3696C9.68829 20.3495 9.64417 20.32 9.60703 20.2829C9.56988 20.2458 9.54043 20.2017 9.52032 20.1531C9.50022 20.1046 9.48987 20.0526 9.48987 20.0001C9.48987 19.9475 9.50022 19.8955 9.52032 19.847C9.54043 19.7985 9.56988 19.7544 9.60703 19.7172C9.64417 19.6801 9.68829 19.6506 9.73682 19.6305C9.78535 19.6104 9.83736 19.6001 9.88989 19.6001H24.8899C24.9937 19.6071 25.0914 19.6515 25.1649 19.725C25.2385 19.7986 25.2829 19.8963 25.2899 20.0001C25.2944 20.0537 25.2872 20.1078 25.2687 20.1584C25.2502 20.209 25.2209 20.2549 25.1828 20.293C25.1447 20.3311 25.0988 20.3604 25.0482 20.3789C24.9976 20.3974 24.9436 20.4046 24.8899 20.4001Z" fill="white"/>
<path d="M24.8899 22.4001H9.88989C9.83736 22.4001 9.78535 22.3897 9.73682 22.3696C9.68829 22.3495 9.64417 22.32 9.60703 22.2829C9.56988 22.2458 9.54043 22.2017 9.52032 22.1531C9.50022 22.1046 9.48987 22.0526 9.48987 22.0001C9.48987 21.9475 9.50022 21.8955 9.52032 21.847C9.54043 21.7985 9.56988 21.7544 9.60703 21.7172C9.64417 21.6801 9.68829 21.6506 9.73682 21.6305C9.78535 21.6104 9.83736 21.6001 9.88989 21.6001H24.8899C24.9937 21.6071 25.0914 21.6515 25.1649 21.725C25.2385 21.7986 25.2829 21.8963 25.2899 22.0001C25.2944 22.0537 25.2872 22.1078 25.2687 22.1584C25.2502 22.209 25.2209 22.2549 25.1828 22.293C25.1447 22.3311 25.0988 22.3604 25.0482 22.3789C24.9976 22.3974 24.9436 22.4046 24.8899 22.4001Z" fill="white"/>
<path d="M24.8899 24.3H9.88989C9.83736 24.3 9.78535 24.2897 9.73682 24.2696C9.68829 24.2495 9.64417 24.22 9.60703 24.1829C9.56988 24.1457 9.54043 24.1016 9.52032 24.0531C9.50022 24.0046 9.48987 23.9526 9.48987 23.9C9.48987 23.8475 9.50022 23.7955 9.52032 23.7469C9.54043 23.6984 9.56988 23.6543 9.60703 23.6172C9.64417 23.58 9.68829 23.5506 9.73682 23.5305C9.78535 23.5104 9.83736 23.5 9.88989 23.5H24.8899C24.9937 23.507 25.0914 23.5515 25.1649 23.625C25.2385 23.6985 25.2829 23.7962 25.2899 23.9C25.2944 23.9537 25.2872 24.0077 25.2687 24.0583C25.2502 24.109 25.2209 24.1549 25.1828 24.193C25.1447 24.2311 25.0988 24.2604 25.0482 24.2789C24.9976 24.2974 24.9436 24.3045 24.8899 24.3Z" fill="white"/>
<path d="M52.0999 42.0002H6.26993C5.39272 41.9976 4.55176 41.6501 3.92868 41.0326C3.3056 40.4151 2.95044 39.5773 2.93994 38.7002V6.00018C2.95044 5.12304 3.3056 4.28525 3.92868 3.66779C4.55176 3.05032 5.39272 2.70276 6.26993 2.7002H52.2C53.0781 2.70272 53.9201 3.04998 54.5448 3.66718C55.1695 4.28437 55.5268 5.12213 55.5399 6.00018V38.7002C55.4872 39.5823 55.1037 40.412 54.4661 41.0237C53.8284 41.6355 52.9834 41.9841 52.0999 42.0002ZM6.26993 3.60022C5.63314 3.60535 5.0236 3.8592 4.57144 4.30762C4.11929 4.75604 3.86036 5.36346 3.84995 6.00018V38.7002C3.86036 39.3369 4.11929 39.9443 4.57144 40.3928C5.0236 40.8412 5.63314 41.0951 6.26993 41.1002H52.2C52.8377 41.0951 53.4483 40.8416 53.9021 40.3934C54.3558 39.9453 54.6169 39.3378 54.6299 38.7002V6.00018C54.6169 5.36255 54.3558 4.75516 53.9021 4.30701C53.4483 3.85885 52.8377 3.60529 52.2 3.60022H6.26993Z" fill="white"/>
<path d="M51.9999 33.2002H6.16992C6.06615 33.1932 5.96841 33.1488 5.89487 33.0753C5.82132 33.0017 5.77692 32.9039 5.7699 32.8002V6.10022C5.77692 5.99644 5.82132 5.89868 5.89487 5.82513C5.96841 5.75159 6.06615 5.70721 6.16992 5.7002H51.9999C52.1037 5.70721 52.2014 5.75159 52.2749 5.82513C52.3485 5.89868 52.3929 5.99644 52.3999 6.10022V32.7002C52.4999 33.0002 52.2999 33.2002 51.9999 33.2002ZM6.71991 32.3002H51.6299V6.50018H6.71991V32.3002Z" fill="white"/>
<path d="M37.5299 51.2001H20.8399C20.6895 51.175 20.5502 51.1053 20.4399 51.0001C20.3604 50.8827 20.3249 50.7411 20.3399 50.6001L22.7599 41.4001C22.8599 41.2001 22.9699 41.1001 23.1699 41.1001H34.8999C35.0999 41.1001 35.3099 41.2001 35.3099 41.4001L37.7299 50.6001C37.7449 50.7411 37.7094 50.8827 37.6299 51.0001C37.7199 51.1001 37.6299 51.2001 37.5299 51.2001ZM21.4499 50.3H36.9299L34.7199 42.0001H23.7199L21.4499 50.3Z" fill="white"/>
<path d="M44.8198 53.4001H13.4598C13.3543 53.3954 13.2541 53.352 13.1785 53.2783C13.1029 53.2045 13.0571 53.1055 13.0498 53.0001V50.7001C13.0571 50.5947 13.1029 50.4957 13.1785 50.4219C13.2541 50.3481 13.3543 50.3047 13.4598 50.3H44.8198C44.9236 50.3071 45.0213 50.3515 45.0948 50.425C45.1684 50.4986 45.2128 50.5963 45.2198 50.7001V52.9001C45.3198 53.2001 45.1198 53.4001 44.8198 53.4001ZM13.9598 52.5001H44.4098V51.2001H13.9598V52.5001Z" fill="white"/>
<path d="M29.1399 40.1001C28.8437 40.0981 28.5546 40.0084 28.3093 39.8424C28.0639 39.6764 27.8732 39.4414 27.7612 39.1672C27.6492 38.8929 27.621 38.5916 27.68 38.3013C27.739 38.011 27.8826 37.7447 28.0928 37.5359C28.3029 37.3271 28.5702 37.1853 28.8609 37.1282C29.1516 37.0711 29.4527 37.1014 29.7262 37.2152C29.9997 37.329 30.2334 37.5213 30.3978 37.7677C30.5622 38.0142 30.6499 38.3038 30.6499 38.6001C30.6617 38.801 30.6306 39.0021 30.5587 39.1901C30.4869 39.3781 30.3759 39.5486 30.2331 39.6905C30.0903 39.8323 29.919 39.9422 29.7305 40.0128C29.5421 40.0834 29.3408 40.1132 29.1399 40.1001ZM29.1399 37.9001C29.0212 37.9001 28.9052 37.9353 28.8066 38.0012C28.7079 38.0671 28.631 38.1608 28.5856 38.2704C28.5402 38.3801 28.5283 38.5007 28.5514 38.6171C28.5746 38.7335 28.6317 38.8404 28.7156 38.9243C28.7995 39.0082 28.9065 39.0654 29.0229 39.0885C29.1392 39.1117 29.2599 39.0998 29.3695 39.0544C29.4791 39.0089 29.5729 38.9321 29.6388 38.8334C29.7047 38.7347 29.7399 38.6187 29.7399 38.5C29.8399 38.2 29.5399 37.9001 29.1399 37.9001Z" fill="white"/>
<path d="M0.409882 18.0001C0.304338 17.9955 0.204191 17.9521 0.128571 17.8784C0.0529503 17.8046 0.00714567 17.7056 -0.00012207 17.6002V3.60016C0.0011794 3.1244 0.0965137 2.65358 0.280396 2.21479C0.464277 1.77599 0.733079 1.37783 1.07135 1.04328C1.40962 0.708723 1.8107 0.444345 2.2515 0.265323C2.6923 0.0863004 3.16414 -0.00383075 3.63989 0.000124769H11.7199C11.826 0.00012482 11.9277 0.0422977 12.0027 0.117312C12.0777 0.192327 12.1199 0.294063 12.1199 0.400149C12.1199 0.506236 12.0777 0.607972 12.0027 0.682986C11.9277 0.758001 11.826 0.800112 11.7199 0.800113H3.61987C3.26315 0.797477 2.90943 0.865313 2.57898 0.999698C2.24853 1.13408 1.94785 1.3324 1.69421 1.58325C1.44058 1.8341 1.23898 2.13254 1.10095 2.46149C0.962924 2.79044 0.891199 3.1434 0.889893 3.50012V17.5001C0.894071 17.5652 0.884651 17.6304 0.862274 17.6916C0.839897 17.7528 0.805029 17.8088 0.759888 17.8558C0.714747 17.9028 0.660325 17.9399 0.600067 17.9647C0.53981 17.9896 0.475047 18.0016 0.409882 18.0001Z" fill="white"/>
<path d="M40.8699 22.8H33.7899C33.685 22.7932 33.5861 22.7492 33.5109 22.6758C33.4357 22.6025 33.3892 22.5047 33.3799 22.4V15.4C33.3892 15.2954 33.4357 15.1975 33.5109 15.1241C33.5861 15.0508 33.685 15.0067 33.7899 15H40.8699C40.9747 15.0067 41.0737 15.0508 41.1489 15.1241C41.2241 15.1975 41.2705 15.2954 41.2799 15.4V22.4C41.3799 22.6 41.1699 22.8 40.8699 22.8ZM34.2999 21.9H40.4699V15.8H34.2999V21.9Z" fill="white"/>
<path d="M47.9499 22.8H40.8698C40.7661 22.793 40.6684 22.7486 40.5948 22.675C40.5213 22.6015 40.4769 22.5038 40.4698 22.4V15.4C40.4769 15.2962 40.5213 15.1985 40.5948 15.125C40.6684 15.0515 40.7661 15.007 40.8698 15H47.9499C48.0547 15.0067 48.1537 15.0508 48.2289 15.1241C48.304 15.1975 48.3505 15.2954 48.3599 15.4V22.4C48.3505 22.5047 48.304 22.6025 48.2289 22.6758C48.1537 22.7492 48.0547 22.7932 47.9499 22.8ZM41.3799 21.9H47.5498V15.8H41.3799V21.9Z" fill="white"/>
<path d="M40.8699 29.8H33.7899C33.685 29.7932 33.5861 29.7492 33.5109 29.6758C33.4357 29.6025 33.3892 29.5047 33.3799 29.4V22.4C33.3892 22.2954 33.4357 22.1975 33.5109 22.1241C33.5861 22.0508 33.685 22.0067 33.7899 22H40.8699C40.9747 22.0067 41.0737 22.0508 41.1489 22.1241C41.2241 22.1975 41.2705 22.2954 41.2799 22.4V29.4C41.3799 29.6 41.1699 29.8 40.8699 29.8ZM34.2999 28.9H40.4699V22.8H34.2999V28.9Z" fill="white"/>
<path d="M47.9499 29.8H40.8698C40.7661 29.793 40.6684 29.7486 40.5948 29.675C40.5213 29.6015 40.4769 29.5038 40.4698 29.4V22.4C40.4769 22.2962 40.5213 22.1985 40.5948 22.125C40.6684 22.0515 40.7661 22.007 40.8698 22H47.9499C48.0547 22.0067 48.1537 22.0508 48.2289 22.1241C48.304 22.1975 48.3505 22.2954 48.3599 22.4V29.4C48.3505 29.5047 48.304 29.6025 48.2289 29.6758C48.1537 29.7492 48.0547 29.7932 47.9499 29.8ZM41.3799 28.9H47.5498V22.8H41.3799V28.9Z" fill="white"/>
<path d="M37.2299 17.8001C37.077 17.7736 36.9349 17.7043 36.8199 17.6002L34.1899 14.0001C34.0899 13.8001 34.0899 13.5002 34.2999 13.4002C34.5099 13.3002 34.7999 13.3001 34.8999 13.5001L37.5299 17.1002C37.6299 17.3002 37.6299 17.6002 37.4299 17.7002C37.4299 17.8002 37.3299 17.8001 37.2299 17.8001Z" fill="white"/>
<path d="M34.1899 29.8001C34.1356 29.8067 34.0805 29.8011 34.0286 29.7839C33.9768 29.7666 33.9294 29.738 33.8899 29.7002C33.6899 29.5002 33.6899 29.2002 33.8899 29.1002L37.1299 25.6002C37.3299 25.4002 37.6299 25.4002 37.7299 25.6002C37.8299 25.8002 37.9399 26.1002 37.7299 26.2002L34.4999 29.7002C34.3999 29.7002 34.2999 29.8001 34.1899 29.8001Z" fill="white"/>
<path d="M49.9699 19.3H44.4099C44.3038 19.3 44.2021 19.2579 44.127 19.1829C44.052 19.1078 44.0099 19.0061 44.0099 18.9C44.0099 18.7939 44.052 18.6922 44.127 18.6172C44.2021 18.5422 44.3038 18.5 44.4099 18.5H49.9699C50.0754 18.5047 50.1756 18.5481 50.2512 18.6218C50.3268 18.6956 50.3726 18.7946 50.3799 18.9C50.3847 18.9546 50.3773 19.0096 50.3582 19.061C50.3392 19.1124 50.3089 19.1589 50.2697 19.1972C50.2305 19.2355 50.1832 19.2646 50.1313 19.2823C50.0795 19.3001 50.0243 19.3061 49.9699 19.3Z" fill="white"/>
</svg>
