<svg width="60" height="60" viewBox="0 0 60 60" fill="none" xmlns="http://www.w3.org/2000/svg">
<g clip-path="url(#clip0_35_176)">
<path d="M55.6251 35.615H38.1251C37.4621 35.615 36.8262 35.8784 36.3574 36.3472C35.8885 36.8161 35.6251 37.4519 35.6251 38.115V55.615C35.6251 56.278 35.8885 56.9139 36.3574 57.3828C36.8262 57.8516 37.4621 58.115 38.1251 58.115H55.6251C56.2882 58.115 56.9241 57.8516 57.3929 57.3828C57.8617 56.9139 58.1251 56.278 58.1251 55.615V38.115C58.1251 37.4519 57.8617 36.8161 57.3929 36.3472C56.9241 35.8784 56.2882 35.615 55.6251 35.615Z" stroke="#313131" stroke-width="3" stroke-linecap="round" stroke-linejoin="round"/>
<path d="M43.3602 43.8174C43.1116 43.8174 42.8731 43.7186 42.6973 43.5428C42.5215 43.367 42.4227 43.1285 42.4227 42.8799C42.4227 42.6312 42.5215 42.3928 42.6973 42.217C42.8731 42.0412 43.1116 41.9424 43.3602 41.9424M43.3602 43.8174C43.6089 43.8174 43.8473 43.7186 44.0231 43.5428C44.199 43.367 44.2977 43.1285 44.2977 42.8799C44.2977 42.6312 44.199 42.3928 44.0231 42.217C43.8473 42.0412 43.6089 41.9424 43.3602 41.9424" stroke="#313131" stroke-width="3"/>
<path d="M28.1249 58.125H5.62494C4.63038 58.125 3.67655 57.7299 2.97329 57.0266C2.27003 56.3234 1.87494 55.3696 1.87494 54.375V5.625C1.87494 4.63044 2.27003 3.67661 2.97329 2.97335C3.67655 2.27009 4.63038 1.875 5.62494 1.875H43.1249C44.1029 1.8751 45.0422 2.25726 45.7424 2.94L53.2424 10.1475C53.6008 10.4968 53.8857 10.9144 54.0802 11.3755C54.2747 11.8366 54.3749 12.332 54.3749 12.8325V28.125M13.1249 20.625H43.1249M13.1249 31.875H28.1249M13.1249 43.125H28.1249" stroke="#5667CA" stroke-width="3" stroke-linecap="round" stroke-linejoin="round"/>
<path d="M57.8374 55.8076L52.3074 47.5151C52.1301 47.2493 51.8878 47.0332 51.6035 46.8874C51.3192 46.7415 51.0024 46.6708 50.683 46.6818C50.3637 46.6928 50.0525 46.7852 49.7789 46.9503C49.5054 47.1154 49.2785 47.3477 49.1199 47.6251L43.1199 58.1251" stroke="#313131" stroke-width="3" stroke-linecap="round" stroke-linejoin="round"/>
</g>
<defs>
<clipPath id="clip0_35_176">
<rect width="60" height="60" fill="white"/>
</clipPath>
</defs>
</svg>
