<svg width="57" height="44" viewBox="0 0 57 44" fill="none" xmlns="http://www.w3.org/2000/svg">
<path d="M2.53632 40H1.02631C0.947512 39.9986 0.870023 39.98 0.799194 39.9454C0.728365 39.9109 0.66594 39.8612 0.616333 39.8C0.567138 39.745 0.539917 39.6738 0.539917 39.6C0.539917 39.5262 0.567138 39.455 0.616333 39.4L18.0163 0.299988C18.1163 0.0999878 18.2163 0 18.4263 0H19.8363C19.9151 0.00139993 19.9926 0.0200147 20.0635 0.0545654C20.1343 0.0891161 20.1967 0.138778 20.2463 0.200012C20.2955 0.255014 20.3227 0.326231 20.3227 0.400024C20.3227 0.473818 20.2955 0.545034 20.2463 0.600037L2.94635 39.8C2.89771 39.8623 2.83545 39.9127 2.7644 39.9474C2.69336 39.982 2.61536 40 2.53632 40ZM1.73633 39.1H2.23633L19.2363 1H18.7263L1.73633 39.1Z" fill="white"/>
<path d="M13.0663 40H11.6463C11.5678 39.9973 11.4907 39.9781 11.42 39.9437C11.3494 39.9092 11.2868 39.8602 11.2363 39.8C11.1871 39.745 11.1599 39.6738 11.1599 39.6C11.1599 39.5262 11.1871 39.455 11.2363 39.4L28.6363 0.299988C28.7463 0.0999878 28.8463 1.4278e-08 29.0463 1.4278e-08H30.4163C30.4954 -1.8525e-05 30.5734 0.0180174 30.6444 0.0526734C30.7155 0.0873293 30.7776 0.137705 30.8263 0.200012C30.8755 0.255014 30.9027 0.326231 30.9027 0.400024C30.9027 0.473818 30.8755 0.545034 30.8263 0.600037L13.5263 39.8C13.4 39.9168 13.2379 39.9873 13.0663 40ZM12.3563 39.1H12.8563L29.8563 0.900024H29.3463L12.3563 39.1Z" fill="white"/>
<path d="M26.2162 7.30005H17.1063C17.0289 7.29857 16.9529 7.2799 16.8837 7.2453C16.8145 7.2107 16.7538 7.16109 16.7062 7.1001C16.657 7.0451 16.6299 6.97388 16.6299 6.90009C16.6299 6.82629 16.657 6.75508 16.7062 6.70007L18.7062 2.1001C18.8062 1.9001 18.9063 1.80005 19.1063 1.80005H28.2162C28.2936 1.80153 28.3696 1.82026 28.4388 1.85486C28.508 1.88946 28.5687 1.93907 28.6163 2.00006C28.6429 2.02613 28.664 2.05727 28.6785 2.09161C28.6929 2.12596 28.7003 2.16282 28.7003 2.20007C28.7003 2.23732 28.6929 2.27419 28.6785 2.30853C28.664 2.34287 28.6429 2.37402 28.6163 2.40009L26.6163 7.00006C26.5163 7.20006 26.4162 7.30005 26.2162 7.30005ZM17.8163 6.40009H25.9062L27.5262 2.70007H19.4163L17.8163 6.40009Z" fill="white"/>
<path d="M21.9662 16.8H12.8563C12.7789 16.7986 12.7029 16.7799 12.6337 16.7453C12.5645 16.7107 12.5038 16.6611 12.4562 16.6001C12.407 16.5451 12.3799 16.4739 12.3799 16.4001C12.3799 16.3263 12.407 16.2551 12.4562 16.2001L14.4562 11.6001C14.5562 11.4001 14.6563 11.3 14.8663 11.3H23.9662C24.0448 11.3027 24.1219 11.322 24.1926 11.3564C24.2632 11.3909 24.3258 11.4398 24.3763 11.5001C24.4255 11.5551 24.4526 11.6263 24.4526 11.7001C24.4526 11.7739 24.4255 11.8451 24.3763 11.9001L22.3763 16.5001C22.2663 16.7001 22.1662 16.8 21.9662 16.8ZM13.5663 15.9001H21.6562L23.2762 12.2001H15.1863L13.5663 15.9001Z" fill="white"/>
<path d="M17.7162 26.3999H8.60626C8.52891 26.3984 8.45287 26.3797 8.38367 26.3451C8.31447 26.3105 8.25383 26.2609 8.20624 26.1999C8.15704 26.1449 8.12988 26.0737 8.12988 25.9999C8.12988 25.9261 8.15704 25.8549 8.20624 25.7999L10.2062 21.1999C10.3062 20.9999 10.4163 20.8999 10.6163 20.8999H19.7162C19.7948 20.9026 19.8719 20.9218 19.9426 20.9562C20.0132 20.9907 20.0758 21.0397 20.1263 21.0999C20.1755 21.1549 20.2026 21.2261 20.2026 21.2999C20.2026 21.3737 20.1755 21.4449 20.1263 21.4999L18.1263 26.0999C18.0163 26.2999 17.9162 26.3999 17.7162 26.3999ZM9.31628 25.4999H17.4163L19.0262 21.7999H10.9363L9.31628 25.4999Z" fill="white"/>
<path d="M13.4663 36.0001H4.41632C4.33727 36.0001 4.25928 35.9821 4.18823 35.9474C4.11719 35.9128 4.05499 35.8624 4.00635 35.8C3.95715 35.745 3.92993 35.6739 3.92993 35.6001C3.92993 35.5263 3.95715 35.4551 4.00635 35.4001L6.00635 30.9001C6.11635 30.7001 6.21632 30.6001 6.41632 30.6001H15.5163C15.5953 30.6001 15.6734 30.6181 15.7444 30.6527C15.8155 30.6874 15.8777 30.7377 15.9263 30.8C15.9755 30.8551 16.0027 30.9263 16.0027 31.0001C16.0027 31.0739 15.9755 31.1451 15.9263 31.2001L13.9263 35.7001C13.7663 35.9001 13.6663 36.0001 13.4663 36.0001ZM5.06635 35.1001H13.1663L14.7863 31.5001H6.68634L5.06635 35.1001Z" fill="white"/>
<path d="M47.8563 40H46.3462C46.1362 40 46.0363 39.9 45.9363 39.7L29.3462 2.29999C29.2462 2.19999 29.2462 2.10002 29.3462 1.90002L30.0563 0.299988C30.1563 0.0999878 30.2562 0 30.4562 0C30.6662 0 30.7663 0.0999878 30.8663 0.299988L48.2662 39.4C48.3662 39.5 48.2662 39.7 48.2662 39.8C48.2254 39.8702 48.1646 39.9267 48.0916 39.9623C48.0186 39.9979 47.9367 40.011 47.8563 40ZM46.6462 39.1H47.1562L30.4162 1.60004L30.2162 2.10004L46.6462 39.1Z" fill="white"/>
<path d="M37.2364 39.9999H35.8263C35.6163 39.9999 35.5164 39.8999 35.4164 39.6999L23.9864 14.1999C23.8864 14.0999 23.8864 13.9999 23.9864 13.7999L24.6964 12.1999C24.7964 11.9999 24.8964 11.8999 25.0964 11.8999C25.3064 11.8999 25.4064 11.9999 25.5064 12.1999L37.5064 39.3999C37.6064 39.4999 37.5064 39.6999 37.5064 39.7999C37.5064 39.8999 37.4164 39.9999 37.2364 39.9999ZM36.1264 39.0999H36.6363L25.1964 13.4999L24.9964 13.9999L36.1264 39.0999Z" fill="white"/>
<path d="M31.7763 7.30005H27.6263C27.549 7.29857 27.4729 7.2799 27.4037 7.2453C27.3345 7.2107 27.2739 7.16109 27.2263 7.1001C27.1771 7.0451 27.1499 6.97388 27.1499 6.90009C27.1499 6.82629 27.1771 6.75508 27.2263 6.70007L29.2263 2.1001C29.3263 1.9001 29.4263 1.80005 29.6363 1.80005H29.7363C29.9363 1.80005 30.0363 1.9001 30.1363 2.1001L32.1363 6.70007C32.2463 6.80007 32.1363 7.0001 32.1363 7.1001C32.1363 7.2001 31.9763 7.30005 31.7763 7.30005ZM28.3363 6.40009H31.0663L29.6563 3.30005L28.3363 6.40009Z" fill="white"/>
<path d="M36.0263 16.7999H26.9163C26.7163 16.7999 26.6163 16.6999 26.5163 16.4999L24.6963 12.4999C24.5963 12.3999 24.5963 12.3 24.6963 12.1L24.8963 11.4999C24.9963 11.2999 25.0963 11.2 25.3063 11.2H33.8963C34.1063 11.2 34.2063 11.2999 34.3063 11.4999L36.3063 16.1C36.4063 16.2 36.3063 16.3999 36.3063 16.4999C36.3263 16.7999 36.2263 16.7999 36.0263 16.7999ZM27.2263 15.9H35.3163L33.6963 12.2H25.6963L25.5963 12.2999L27.2263 15.9Z" fill="white"/>
<path d="M40.2763 26.3999H31.1663C30.9663 26.3999 30.8663 26.2999 30.7663 26.0999L28.7663 21.4999C28.6563 21.3999 28.7663 21.1999 28.7663 21.0999C28.8139 21.0389 28.8745 20.9893 28.9437 20.9547C29.0129 20.9201 29.089 20.9014 29.1663 20.8999H38.2663C38.4763 20.8999 38.5763 20.9999 38.6763 21.1999L40.6763 25.7999C40.7763 25.8999 40.6763 26.0999 40.6763 26.1999C40.6287 26.2609 40.5681 26.3105 40.4989 26.3451C40.4297 26.3797 40.3537 26.3984 40.2763 26.3999ZM31.4763 25.4999H39.5663L37.9464 21.7999H29.8563L31.4763 25.4999Z" fill="white"/>
<path d="M44.5264 36.0001H35.4164C35.2164 36.0001 35.1164 35.9001 35.0164 35.7001L33.0164 31.2001C32.9164 31.1001 33.0164 30.9 33.0164 30.8C33.0164 30.7 33.2264 30.6001 33.4264 30.6001H42.5264C42.7364 30.6001 42.8364 30.7001 42.9364 30.9001L44.9364 35.4001C45.0364 35.5001 44.9364 35.7 44.9364 35.8C44.8878 35.8624 44.8255 35.9128 44.7545 35.9474C44.6834 35.9821 44.6054 36.0001 44.5264 36.0001ZM35.7164 35.1001H43.8164L42.1964 31.5001H34.1064L35.7164 35.1001Z" fill="white"/>
<path d="M41.8962 41.4001H10.3262C10.2737 41.4001 10.2217 41.3897 10.1732 41.3696C10.1246 41.3495 10.0805 41.32 10.0434 41.2829C10.0063 41.2458 9.97683 41.2017 9.95673 41.1531C9.93662 41.1046 9.92627 41.0526 9.92627 41.0001C9.92627 40.9475 9.93662 40.8955 9.95673 40.847C9.97683 40.7985 10.0063 40.7544 10.0434 40.7172C10.0805 40.6801 10.1246 40.6506 10.1732 40.6305C10.2217 40.6104 10.2737 40.6001 10.3262 40.6001H41.8962C42.0023 40.6001 42.1041 40.6422 42.1791 40.7172C42.2541 40.7922 42.2963 40.894 42.2963 41.0001C42.2963 41.1061 42.2541 41.2079 42.1791 41.2829C42.1041 41.3579 42.0023 41.4001 41.8962 41.4001Z" fill="white"/>
<path d="M50.5963 43.3H28.7463C28.6938 43.3 28.6418 43.2897 28.5933 43.2696C28.5447 43.2495 28.5006 43.22 28.4635 43.1829C28.4264 43.1457 28.3969 43.1016 28.3768 43.0531C28.3567 43.0046 28.3463 42.9526 28.3463 42.9C28.3463 42.8475 28.3567 42.7955 28.3768 42.7469C28.3969 42.6984 28.4264 42.6543 28.4635 42.6172C28.5006 42.58 28.5447 42.5506 28.5933 42.5305C28.6418 42.5104 28.6938 42.5 28.7463 42.5H50.5963C50.7001 42.507 50.7978 42.5515 50.8713 42.625C50.9449 42.6985 50.9893 42.7962 50.9963 42.9C51.0009 42.9537 50.9936 43.0077 50.9752 43.0583C50.9567 43.109 50.9274 43.1549 50.8893 43.193C50.8512 43.2311 50.8052 43.2604 50.7546 43.2789C50.704 43.2974 50.65 43.3045 50.5963 43.3Z" fill="white"/>
<path d="M55.6464 43.3H52.9164C52.8103 43.3 52.7086 43.2579 52.6335 43.1829C52.5585 43.1078 52.5164 43.0061 52.5164 42.9C52.5164 42.7939 52.5585 42.6922 52.6335 42.6172C52.7086 42.5422 52.8103 42.5 52.9164 42.5H55.6464C55.6989 42.5 55.7509 42.5104 55.7994 42.5305C55.848 42.5506 55.8921 42.58 55.9292 42.6172C55.9663 42.6543 55.9958 42.6984 56.0159 42.7469C56.036 42.7955 56.0464 42.8475 56.0464 42.9C56.0464 42.9526 56.036 43.0046 56.0159 43.0531C55.9958 43.1016 55.9663 43.1457 55.9292 43.1829C55.8921 43.22 55.848 43.2495 55.7994 43.2696C55.7509 43.2897 55.6989 43.3 55.6464 43.3Z" fill="white"/>
<path d="M19.4163 43.3H9.0163C8.96377 43.3 8.91175 43.2897 8.86322 43.2696C8.81469 43.2495 8.7706 43.22 8.73346 43.1829C8.69632 43.1457 8.66689 43.1016 8.64679 43.0531C8.62669 43.0046 8.61633 42.9526 8.61633 42.9C8.61633 42.8475 8.62669 42.7955 8.64679 42.7469C8.66689 42.6984 8.69632 42.6543 8.73346 42.6172C8.7706 42.58 8.81469 42.5506 8.86322 42.5305C8.91175 42.5104 8.96377 42.5 9.0163 42.5H19.3363C19.4401 42.507 19.5378 42.5515 19.6113 42.625C19.6849 42.6985 19.7293 42.7962 19.7363 42.9C19.7363 43.1 19.6363 43.3 19.4163 43.3Z" fill="white"/>
</svg>
