<svg width="60" height="60" viewBox="0 0 60 60" fill="none" xmlns="http://www.w3.org/2000/svg">
<path d="M7.5 13.125V54.75C7.5 55.6442 7.85489 56.5019 8.48675 57.1347C9.1186 57.7675 9.97576 58.1237 10.87 58.125H49.13C49.5732 58.1257 50.0121 58.0388 50.4216 57.8693C50.8311 57.6999 51.2031 57.4513 51.5162 57.1377C51.8293 56.8241 52.0774 56.4517 52.2463 56.042C52.4151 55.6322 52.5013 55.1932 52.5 54.75V13.125M7.5 13.125H52.5M7.5 13.125V5.625C7.5 4.63044 7.89509 3.67661 8.59835 2.97335C9.30161 2.27009 10.2554 1.875 11.25 1.875H48.75C49.7446 1.875 50.6984 2.27009 51.4016 2.97335C52.1049 3.67661 52.5 4.63044 52.5 5.625V13.125M30 13.125V58.125M7.5 35.625H52.5M22.5 43.125L15 50.625M15 43.125L22.5 50.625M37.5 24.375H45" stroke="#5667CA" stroke-width="3" stroke-linecap="round" stroke-linejoin="round"/>
<path d="M7.5 13.125V54.75C7.5 55.6442 7.85489 56.5019 8.48675 57.1347C9.1186 57.7675 9.97576 58.1237 10.87 58.125H49.13C49.5732 58.1257 50.0121 58.0388 50.4216 57.8693C50.8311 57.6999 51.2031 57.4513 51.5162 57.1377C51.8293 56.8241 52.0774 56.4517 52.2463 56.042C52.4151 55.6322 52.5013 55.1932 52.5 54.75V13.125M7.5 13.125H52.5M7.5 13.125V5.625C7.5 4.63044 7.89509 3.67661 8.59835 2.97335C9.30161 2.27009 10.2554 1.875 11.25 1.875H48.75C49.7446 1.875 50.6984 2.27009 51.4016 2.97335C52.1049 3.67661 52.5 4.63044 52.5 5.625V13.125M30 13.125V58.125M7.5 35.625H52.5M22.5 43.125L15 50.625M15 43.125L22.5 50.625M37.5 24.375H45" stroke="#5667CA" stroke-width="3" stroke-linecap="round" stroke-linejoin="round"/>
<path d="M18.75 21V28.5M15 24.75H22.5M37.5 43.5H45M37.5 51H45" stroke="#313131" stroke-width="3" stroke-linecap="round" stroke-linejoin="round"/>
</svg>
