<svg width="60" height="60" viewBox="0 0 60 60" fill="none" xmlns="http://www.w3.org/2000/svg">
<path d="M43.705 37.05H48.39C49.3216 37.05 50.215 37.4201 50.8737 38.0788C51.5325 38.7376 51.9025 39.631 51.9025 40.5626C51.9025 41.4941 51.5325 42.3875 50.8737 43.0463C50.215 43.705 49.3216 44.075 48.39 44.075H43.705M43.705 44.075H29.6575M43.705 44.075C44.1663 44.075 44.6231 44.1659 45.0492 44.3424C45.4754 44.5189 45.8626 44.7777 46.1887 45.1038C46.5149 45.43 46.7736 45.8172 46.9502 46.2434C47.1267 46.6695 47.2175 47.1263 47.2175 47.5875C47.2175 48.0488 47.1267 48.5056 46.9502 48.9317C46.7736 49.3579 46.5149 49.7451 46.1887 50.0713C45.8626 50.3974 45.4754 50.6562 45.0492 50.8327C44.6231 51.0092 44.1663 51.1 43.705 51.1H36.6825" stroke="#5667CA" stroke-width="3" stroke-linecap="round" stroke-linejoin="round"/>
<path d="M2.1925 31.5749C8.5425 27.5424 23.8025 19.685 23.8025 19.685C24.3625 19.2928 25.0463 19.1183 25.7257 19.1941C26.4051 19.2698 27.0336 19.5907 27.4935 20.0966C27.9534 20.6024 28.213 21.2586 28.2239 21.9421C28.2348 22.6257 27.9961 23.2897 27.5525 23.81L20.3025 30.0274H43.7175C44.6491 30.0274 45.5425 30.3975 46.2012 31.0562C46.8599 31.715 47.23 32.6084 47.23 33.5399C47.23 34.4715 46.8599 35.3649 46.2012 36.0237C45.5425 36.6824 44.6491 37.0525 43.7175 37.0525H29.6575M26.145 51.1H36.6825C37.6141 51.1 38.5075 51.47 39.1662 52.1287C39.8249 52.7875 40.195 53.6809 40.195 54.6124C40.195 55.544 39.8249 56.4374 39.1662 57.0962C38.5075 57.7549 37.6141 58.125 36.6825 58.125H17.73C12.786 58.1254 7.95507 56.6451 3.86001 53.8749L2.1925 52.75" stroke="#5667CA" stroke-width="3" stroke-linecap="round" stroke-linejoin="round"/>
<path d="M38.945 4.375C38.6135 4.375 38.2955 4.2433 38.0611 4.00888C37.8267 3.77446 37.695 3.45652 37.695 3.125C37.695 2.79348 37.8267 2.47554 38.0611 2.24112C38.2955 2.0067 38.6135 1.875 38.945 1.875M38.945 4.375C39.2765 4.375 39.5945 4.2433 39.8289 4.00888C40.0633 3.77446 40.195 3.45652 40.195 3.125C40.195 2.79348 40.0633 2.47554 39.8289 2.24112C39.5945 2.0067 39.2765 1.875 38.945 1.875" stroke="#313131" stroke-width="3"/>
<path d="M11.253 16.7756C10.2576 17.7709 8.90764 18.3301 7.50001 18.3301C6.09237 18.3301 4.74239 17.7709 3.74704 16.7756C2.75169 15.7802 2.1925 14.4302 2.1925 13.0226C2.1925 11.615 2.75169 10.265 3.74704 9.26962C4.74239 8.27427 6.09237 7.71509 7.50001 7.71509C8.90764 7.71509 10.2576 8.27427 11.253 9.26962C12.2483 10.265 12.8075 11.615 12.8075 13.0226C12.8075 14.4302 12.2483 15.7802 11.253 16.7756Z" stroke="#313131" stroke-width="3" stroke-linecap="round" stroke-linejoin="round"/>
<path d="M51.8391 25.0289C51.8544 24.0327 51.6071 23.0499 51.1221 22.1796C50.6372 21.3092 49.9316 20.5818 49.0763 20.0706C48.2211 19.5594 47.2463 19.2824 46.25 19.2675C46.0093 17.9632 45.3194 16.7844 44.3 15.9359C43.2807 15.0873 41.9963 14.6226 40.67 14.6225C40.555 14.6225 40.445 14.65 40.3325 14.6575C39.9113 13.5105 39.245 12.4692 38.38 11.6062C37.5149 10.7432 36.472 10.0794 35.324 9.66092C34.176 9.24247 32.9506 9.07951 31.7331 9.1834C30.5157 9.2873 29.3355 9.65555 28.275 10.2625M52.0575 13.5225C53.0521 13.5225 54.0059 13.1274 54.7092 12.4241C55.4124 11.7208 55.8075 10.767 55.8075 9.77246C55.8075 8.7779 55.4124 7.82407 54.7092 7.12081C54.0059 6.41755 53.0521 6.02246 52.0575 6.02246C51.063 6.02246 50.1091 6.41755 49.4059 7.12081C48.7026 7.82407 48.3075 8.7779 48.3075 9.77246C48.3075 10.767 48.7026 11.7208 49.4059 12.4241C50.1091 13.1274 51.063 13.5225 52.0575 13.5225Z" stroke="#313131" stroke-width="3" stroke-linecap="round" stroke-linejoin="round"/>
</svg>
