<svg width="60" height="60" viewBox="0 0 60 60" fill="none" xmlns="http://www.w3.org/2000/svg">
<path d="M16.86 15.025V4.3725C16.8606 3.71032 17.124 3.07546 17.5922 2.60723C18.0604 2.139 18.6953 1.87566 19.3575 1.875H43.5875L58.1125 16.525V55.63C58.1112 56.2913 57.8479 56.9252 57.3803 57.3928C56.9126 57.8604 56.2788 58.1237 55.6175 58.125H39.32" stroke="#5667CA" stroke-width="3" stroke-linecap="round" stroke-linejoin="round"/>
<path d="M43.065 1.92505V14.4025C43.0663 15.0639 43.3296 15.6977 43.7973 16.1653C44.2649 16.6329 44.8987 16.8962 45.56 16.8975H58.0375M49.4275 26.2575H31.835M49.4275 46.22H42.44M49.4275 36.24H35.5775" stroke="#5667CA" stroke-width="3" stroke-linecap="round" stroke-linejoin="round"/>
<path d="M5.8725 55.7786L4 49.4816C4.00066 47.8119 4.78982 46.2107 6.19392 45.0303C7.59803 43.8498 9.50212 43.1867 11.4875 43.1867H15.23V37.5814C13.8026 36.8883 12.687 35.8185 12.0562 34.5378C11.4254 33.2571 11.3148 31.8372 11.7414 30.4983C12.168 29.1593 13.108 27.9762 14.4156 27.1323C15.7233 26.2885 17.3255 25.8311 18.9738 25.8311C20.622 25.8311 22.2242 26.2885 23.5319 27.1323C24.8395 27.9762 25.7795 29.1593 26.2061 30.4983C26.6327 31.8372 26.5221 33.2571 25.8913 34.5378C25.2605 35.8185 24.1449 36.8883 22.7175 37.5814V43.1846H26.46M32.075 55.7786L33.9475 49.4816C33.9468 47.8119 33.1577 46.2107 31.7536 45.0303" stroke="#313131" stroke-width="3" stroke-linecap="round" stroke-linejoin="round"/>
</svg>
