<svg width="50" height="50" viewBox="0 0 50 50" fill="none" xmlns="http://www.w3.org/2000/svg">
<rect width="50" height="50" fill="#F1F3FF"/>
<path d="M39.9126 38.7956H10.0659C9.98883 38.7922 9.91573 38.7606 9.86054 38.7067C9.80534 38.6529 9.77191 38.5806 9.7666 38.5036V5.29199C9.77191 5.21506 9.80534 5.14278 9.86054 5.08892C9.91573 5.03507 9.98883 5.0034 10.0659 5H39.8907C39.9677 5.0034 40.0408 5.03507 40.096 5.08892C40.1512 5.14278 40.1846 5.21506 40.1899 5.29199V38.4307C40.1986 38.5153 40.1747 38.6001 40.1232 38.6678C40.0717 38.7356 39.9965 38.7813 39.9126 38.7956ZM10.4527 38.1387H39.6498V5.65695H10.4527V38.1387Z" fill="#313131"/>
<path d="M42.5768 43.1022H7.42356C7.34781 43.0971 7.27647 43.0647 7.22279 43.011C7.1691 42.9573 7.13672 42.886 7.13159 42.8102V38.5037C7.13672 38.4279 7.1691 38.3566 7.22279 38.3029C7.27647 38.2492 7.34781 38.2168 7.42356 38.2117H42.5768C42.6526 38.2168 42.7239 38.2492 42.7776 38.3029C42.8312 38.3566 42.8637 38.4279 42.8688 38.5037V42.8102C42.8637 42.886 42.8312 42.9573 42.7776 43.011C42.7239 43.0647 42.6526 43.0971 42.5768 43.1022ZM7.79583 42.4453H42.2775V38.7956H7.79583V42.4453Z" fill="#313131"/>
<path d="M41.9123 17.7739H39.9123C39.8366 17.7688 39.7653 17.7364 39.7116 17.6827C39.6579 17.629 39.6255 17.5577 39.6204 17.482V11.4966C39.6255 11.4208 39.6579 11.3495 39.7116 11.2958C39.7653 11.2421 39.8366 11.2097 39.9123 11.2046H41.9123C41.9881 11.2097 42.0594 11.2421 42.1131 11.2958C42.1668 11.3495 42.1992 11.4208 42.2043 11.4966V17.482C42.2773 17.628 42.1313 17.7739 41.9123 17.7739ZM40.2116 17.117H41.5401V11.7886H40.2116V17.117Z" fill="#313131"/>
<path d="M41.9123 31.4963H39.9123C39.8366 31.4912 39.7653 31.4588 39.7116 31.4051C39.6579 31.3514 39.6255 31.2801 39.6204 31.2044V25.2189C39.6255 25.1432 39.6579 25.0719 39.7116 25.0182C39.7653 24.9645 39.8366 24.9321 39.9123 24.927H41.9123C41.9881 24.9321 42.0594 24.9645 42.1131 25.0182C42.1668 25.0719 42.1992 25.1432 42.2043 25.2189V31.2044C42.2773 31.3503 42.1313 31.4963 41.9123 31.4963ZM40.2116 30.8394H41.5401V25.5109H40.2116V30.8394Z" fill="#313131"/>
<path d="M36.5914 38.7956H28.8396C28.7638 38.7905 28.6925 38.758 28.6388 38.7043C28.5851 38.6507 28.5527 38.5793 28.5476 38.5036V8.43062C28.5527 8.35487 28.5851 8.28355 28.6388 8.22987C28.6925 8.17618 28.7638 8.1438 28.8396 8.13867H36.5914C36.6679 8.1436 36.7401 8.17574 36.795 8.22929C36.8499 8.28284 36.8838 8.35424 36.8907 8.43062V38.5036C36.8838 38.58 36.8499 38.6514 36.795 38.705C36.7401 38.7585 36.6679 38.7907 36.5914 38.7956ZM29.2118 38.1386H36.2994V8.7226H29.2118V38.1386Z" fill="#313131"/>
<path d="M28.8395 38.7956H13.4089C13.3323 38.7907 13.2601 38.7585 13.2052 38.705C13.1503 38.6514 13.1164 38.58 13.1096 38.5036V8.43062C13.1164 8.35424 13.1503 8.28284 13.2052 8.22929C13.2601 8.17574 13.3323 8.1436 13.4089 8.13867H28.8395C28.9153 8.1438 28.9866 8.17618 29.0403 8.22987C29.094 8.28355 29.1264 8.35487 29.1315 8.43062V38.5036C29.2118 38.6496 29.0439 38.7956 28.8395 38.7956ZM13.7738 38.1386H28.5476V8.7226H13.7738V38.1386Z" fill="#313131"/>
<path d="M36.5914 31.7153H28.8396C28.7638 31.7102 28.6925 31.6777 28.6388 31.624C28.5851 31.5704 28.5527 31.499 28.5476 31.4233V8.43062C28.5527 8.35487 28.5851 8.28355 28.6388 8.22987C28.6925 8.17618 28.7638 8.1438 28.8396 8.13867H36.5914C36.6679 8.1436 36.7401 8.17574 36.795 8.22929C36.8499 8.28284 36.8838 8.35424 36.8907 8.43062V31.4233C36.8838 31.4997 36.8499 31.5711 36.795 31.6247C36.7401 31.6782 36.6679 31.7104 36.5914 31.7153ZM29.2118 31.0583H36.2994V8.7226H29.2118V31.0583Z" fill="#313131"/>
<path d="M19.6862 20.0367C19.6132 20.0367 19.5329 20.0366 19.5329 19.9636C19.4597 19.9207 19.4045 19.8527 19.3776 19.7721C19.3507 19.6916 19.3541 19.604 19.3869 19.5257L23.9344 11.6425C23.9797 11.5698 24.0491 11.5153 24.1305 11.4886C24.2119 11.4619 24.3001 11.4647 24.3796 11.4965C24.4529 11.5394 24.5081 11.6075 24.535 11.688C24.5618 11.7686 24.5585 11.8562 24.5256 11.9345L19.949 19.8177C19.9245 19.8716 19.8881 19.9192 19.8426 19.9571C19.7971 19.995 19.7436 20.0222 19.6862 20.0367Z" fill="#313131"/>
<path d="M17.7663 23.2484C17.6933 23.2484 17.613 23.2484 17.613 23.1754C17.5397 23.1325 17.4845 23.0644 17.4577 22.9839C17.4308 22.9033 17.4342 22.8157 17.467 22.7374L18.7225 20.6206C18.7667 20.5468 18.8361 20.4914 18.9179 20.4646C18.9997 20.4378 19.0884 20.4413 19.1677 20.4746C19.241 20.5176 19.2962 20.5856 19.3231 20.6662C19.3499 20.7467 19.3466 20.8343 19.3137 20.9126L18.0948 23.0294C18.0641 23.0915 18.0176 23.1445 17.9599 23.183C17.9022 23.2214 17.8354 23.244 17.7663 23.2484Z" fill="#313131"/>
<path d="M20.5693 23.1752C20.4963 23.1752 20.4233 23.1752 20.4233 23.1022C20.3489 23.0604 20.2926 22.9924 20.2657 22.9114C20.2387 22.8304 20.2428 22.7423 20.2773 22.6642L23.1533 17.7737C23.1975 17.6999 23.2669 17.6445 23.3487 17.6176C23.4304 17.5908 23.5192 17.5944 23.5985 17.6278C23.6718 17.6707 23.727 17.7387 23.7538 17.8193C23.7807 17.8998 23.7774 17.9874 23.7445 18.0657L20.8613 22.9562C20.8339 23.0135 20.793 23.0634 20.7422 23.1015C20.6913 23.1397 20.632 23.1649 20.5693 23.1752Z" fill="#313131"/>
<path d="M32.6057 24.27C32.5327 24.27 32.4597 24.2701 32.4597 24.1971C32.384 24.1565 32.3262 24.089 32.2978 24.0079C32.2694 23.9268 32.2725 23.838 32.3064 23.7591L34.0072 20.9124C34.0514 20.8386 34.1208 20.7831 34.2026 20.7563C34.2844 20.7295 34.3731 20.7331 34.4524 20.7664C34.5257 20.8093 34.5809 20.8774 34.6078 20.9579C34.6346 21.0385 34.6313 21.126 34.5984 21.2043L32.8977 24.0511C32.8977 24.27 32.7517 24.27 32.6057 24.27Z" fill="#313131"/>
<path d="M32.1603 27.4088C32.0874 27.4088 32.0144 27.4089 32.0144 27.3359C31.9411 27.293 31.8859 27.2249 31.859 27.1443C31.8322 27.0638 31.8355 26.9762 31.8684 26.8979L33.5618 24.0512C33.6071 23.9785 33.6765 23.924 33.7579 23.8973C33.8393 23.8706 33.9275 23.8734 34.0071 23.9052C34.0815 23.947 34.1378 24.015 34.1647 24.096C34.1917 24.177 34.1876 24.2651 34.1531 24.3431L32.4596 27.1899C32.431 27.2477 32.3889 27.2979 32.3368 27.336C32.2847 27.3741 32.2242 27.3991 32.1603 27.4088Z" fill="#313131"/>
<path d="M44.4963 44.9998H5.50364C5.42789 44.9947 5.35657 44.9623 5.30289 44.9086C5.2492 44.8549 5.21679 44.7836 5.21167 44.7078V42.8101C5.21679 42.7343 5.2492 42.6629 5.30289 42.6093C5.35657 42.5556 5.42789 42.5232 5.50364 42.5181H44.4963C44.5721 42.5232 44.6434 42.5556 44.6971 42.6093C44.7507 42.6629 44.7832 42.7343 44.7883 42.8101V44.7078C44.7832 44.7836 44.7507 44.8549 44.6971 44.9086C44.6434 44.9623 44.5721 44.9947 44.4963 44.9998ZM5.87591 44.3429H44.197V43.102H5.87591V44.3429Z" fill="#313131"/>
<path d="M42.5768 41.4233H11.1899C11.1125 41.4233 11.0382 41.3925 10.9835 41.3377C10.9287 41.283 10.8979 41.2087 10.8979 41.1313C10.8979 41.0539 10.9287 40.9796 10.9835 40.9248C11.0382 40.8701 11.1125 40.8394 11.1899 40.8394H42.5768C42.6542 40.8394 42.7284 40.8701 42.7832 40.9248C42.838 40.9796 42.8687 41.0539 42.8687 41.1313C42.8687 41.2087 42.838 41.283 42.7832 41.3377C42.7284 41.3925 42.6542 41.4233 42.5768 41.4233Z" fill="#313131"/>
</svg>
