<svg width="50" height="50" viewBox="0 0 50 50" fill="none" xmlns="http://www.w3.org/2000/svg">
<rect width="50" height="50" fill="#F1F3FF"/>
<path d="M18.3463 20.8537C18.3071 20.8589 18.2674 20.8545 18.2299 20.8408C18.1925 20.8271 18.1583 20.8044 18.1298 20.7744L13.7989 16.0913C13.6546 15.9326 13.6546 15.6945 13.7989 15.6151L20.0786 8.78897C20.1082 8.75833 20.1437 8.73531 20.1824 8.72158C20.2211 8.70785 20.2621 8.70378 20.3024 8.70962C20.3416 8.70443 20.3813 8.70887 20.4188 8.7226C20.4562 8.73632 20.4904 8.75897 20.5189 8.78897L24.8497 13.472C24.9941 13.6308 24.9941 13.8689 24.8497 13.9482L18.5701 20.7744C18.4979 20.7744 18.4401 20.8537 18.3463 20.8537ZM14.5496 15.8532L18.3463 20.06L24.1207 13.7895L20.324 9.5827L14.5496 15.8532Z" fill="#313131"/>
<path d="M15.2858 24.1876C15.2455 24.1934 15.2045 24.1894 15.1658 24.1756C15.1271 24.1619 15.0916 24.1389 15.062 24.1082L10.7312 19.4252C10.5868 19.2664 10.5868 19.0283 10.7312 18.949L12.7811 16.7265C12.8096 16.6965 12.8438 16.6738 12.8813 16.6601C12.9187 16.6464 12.9585 16.6419 12.9977 16.6471C13.0368 16.6419 13.0766 16.6464 13.114 16.6601C13.1515 16.6738 13.1857 16.6965 13.2142 16.7265L17.545 21.4095C17.6894 21.5683 17.6894 21.8064 17.545 21.8858L15.5023 24.1082C15.4738 24.1382 15.4396 24.1609 15.4021 24.1746C15.3647 24.1883 15.325 24.1928 15.2858 24.1876ZM11.4097 19.1871L15.2064 23.3939L16.816 21.6476L13.0193 17.4409L11.4097 19.1871Z" fill="#313131"/>
<path d="M16.7439 21.33C16.7047 21.3352 16.665 21.3307 16.6275 21.317C16.5901 21.3033 16.5559 21.2806 16.5273 21.2506L13.3081 17.7582C13.1637 17.5994 13.1637 17.3613 13.3081 17.2819L14.3331 16.1707C14.3616 16.1407 14.3958 16.118 14.4332 16.1043C14.4707 16.0905 14.5104 16.0861 14.5496 16.0913C14.5899 16.086 14.6308 16.0904 14.6694 16.1041C14.708 16.1178 14.7435 16.1405 14.7734 16.1707L17.9854 19.6631C18.1297 19.8218 18.1297 20.06 17.9854 20.1394L16.9965 21.2506C16.9965 21.3299 16.8882 21.33 16.7439 21.33ZM14.0443 17.52L16.7439 20.5362L17.3285 19.9012L14.6218 16.885L14.0443 17.52Z" fill="#313131"/>
<path d="M23.8969 13.2339C23.8578 13.2391 23.818 13.2346 23.7806 13.2209C23.7431 13.2072 23.7089 13.1845 23.6804 13.1545L23.6082 13.0752L20.1003 9.26523C20.0281 9.18586 20.0281 9.10647 20.0281 8.94772C20.0281 8.78897 20.1003 8.70961 20.1724 8.70961C21.3958 7.82734 22.7881 7.26796 24.2405 7.0752C25.6929 6.88243 27.1662 7.06149 28.5453 7.59836L28.7619 7.83652C28.8341 7.9159 28.7619 8.07461 28.6897 8.15399L24.2145 13.0752C24.0413 13.2339 23.9691 13.2339 23.8969 13.2339ZM20.8293 9.10648L23.8969 12.4402L27.838 8.15399C26.6744 7.76249 25.4489 7.64499 24.2413 7.8091C23.0337 7.97321 21.8711 8.41527 20.8293 9.10648Z" fill="#313131"/>
<path d="M25.723 24.0287C25.6838 24.0338 25.644 24.0294 25.6066 24.0157C25.5692 24.002 25.5349 23.9793 25.5064 23.9493L20.3239 18.3138C20.1723 18.155 20.1723 17.9169 20.3239 17.8375L22.1428 15.8532C22.173 15.8234 22.2085 15.801 22.247 15.7873C22.2856 15.7736 22.3263 15.7691 22.3666 15.7738C22.4058 15.7687 22.4455 15.773 22.483 15.7868C22.5204 15.8005 22.5546 15.8232 22.5831 15.8532L27.7657 21.4887C27.9172 21.6474 27.9172 21.8856 27.7657 21.965L25.9395 23.9493C25.9395 24.0287 25.8673 24.0287 25.723 24.0287ZM21.0529 18.0756L25.7952 23.2349L27.181 21.7268L22.4388 16.5676L21.0529 18.0756Z" fill="#313131"/>
<path d="M19.2991 16.4882C19.0785 16.5001 18.8584 16.4562 18.6557 16.3599C18.4529 16.2636 18.273 16.1173 18.1297 15.9326C17.849 15.5833 17.7016 15.1284 17.7183 14.6626C17.722 14.1949 17.8783 13.7443 18.1586 13.3926C18.4705 13.0515 18.8883 12.853 19.3279 12.837C19.5474 12.8344 19.7648 12.8825 19.9663 12.9782C20.1677 13.0739 20.3486 13.2151 20.4973 13.3926C20.7865 13.7378 20.9419 14.1934 20.9303 14.6626C20.9293 15.1294 20.7755 15.5801 20.4973 15.9326C20.351 16.1218 20.1664 16.2707 19.9583 16.3672C19.7502 16.4637 19.5244 16.5051 19.2991 16.4882ZM19.2991 13.7101C19.1746 13.7026 19.0503 13.7275 18.9362 13.7826C18.8221 13.8378 18.7214 13.9217 18.6422 14.0276C18.473 14.2221 18.3687 14.4739 18.3463 14.742C18.3351 14.879 18.3565 15.017 18.4083 15.1422C18.4602 15.2674 18.5408 15.3757 18.6422 15.4563C18.8226 15.6401 19.054 15.752 19.2991 15.7738C19.4242 15.7885 19.5507 15.7669 19.6659 15.7112C19.7811 15.6555 19.8811 15.5676 19.9559 15.4563C20.123 15.2611 20.2248 15.0092 20.2446 14.742C20.2509 14.6063 20.228 14.471 20.1778 14.3469C20.1277 14.2228 20.0516 14.1134 19.9559 14.0276C19.8811 13.9163 19.7811 13.8284 19.6659 13.7727C19.5507 13.7171 19.4242 13.6955 19.2991 13.7101Z" fill="#313131"/>
<path d="M26.0911 26.6481C26.0508 26.6534 26.01 26.649 25.9714 26.6353C25.9327 26.6216 25.8973 26.5989 25.8674 26.5687L24.5537 25.14C24.4093 24.9813 24.4093 24.7431 24.5537 24.6637L28.4226 20.457C28.4527 20.4272 28.4882 20.4048 28.5268 20.3911C28.5653 20.3774 28.6061 20.3728 28.6463 20.3776C28.6855 20.3724 28.7253 20.3768 28.7627 20.3905C28.8001 20.4043 28.8343 20.4269 28.8629 20.457L30.1765 21.8857C30.3209 22.0444 30.3209 22.2826 30.1765 22.3619L26.3077 26.5687C26.2355 26.5687 26.1633 26.6481 26.0911 26.6481ZM25.2105 24.8225L26.0911 25.775L29.4475 22.1238L28.5453 21.1713L25.2105 24.8225Z" fill="#313131"/>
<path d="M41.278 42.6814C40.7885 42.6969 40.3016 42.5989 39.849 42.3938C39.3963 42.1887 38.9879 41.881 38.6506 41.4908C36.3841 39.0302 33.7568 35.6172 31.2016 32.2835C29.4476 29.9816 27.838 27.8385 26.3078 26.013C26.2735 25.9857 26.2456 25.9499 26.2263 25.9086C26.2071 25.8672 26.197 25.8213 26.197 25.7748C26.197 25.7283 26.2071 25.6825 26.2263 25.6411C26.2456 25.5997 26.2735 25.5639 26.3078 25.5367L29.3033 22.2824C29.328 22.2447 29.3605 22.214 29.3982 22.1928C29.4358 22.1716 29.4775 22.1606 29.5198 22.1606C29.5621 22.1606 29.6038 22.1716 29.6414 22.1928C29.679 22.214 29.7116 22.2447 29.7363 22.2824C31.4181 23.9492 33.4608 25.7749 35.5108 27.6798C38.499 30.4579 41.6389 33.2359 43.9053 35.6965C44.2523 36.0763 44.5277 36.5278 44.7155 37.025C44.9034 37.5222 45.0002 38.0553 45.0002 38.5937C45.0002 39.1321 44.9034 39.6652 44.7155 40.1623C44.5277 40.6595 44.2523 41.111 43.9053 41.4908C43.188 42.2218 42.2554 42.6444 41.278 42.6814ZM26.9646 25.8542C28.4082 27.6798 30.0323 29.6642 31.7141 31.8866C34.2693 35.2203 36.8966 38.554 39.0837 41.0146C39.6646 41.6178 40.4359 41.9493 41.2349 41.9392C42.0339 41.9292 42.7981 41.5783 43.3663 40.9606C43.9346 40.343 44.2625 39.5067 44.2809 38.6283C44.2993 37.7499 44.0068 36.898 43.465 36.2521C41.2996 33.8709 38.1381 31.0135 35.1426 28.2354C33.0999 26.4098 31.2016 24.6636 29.592 23.0761L26.9646 25.8542Z" fill="#313131"/>
<path d="M28.206 40.459H6.16934C6.09276 40.459 6.01933 40.4255 5.96518 40.3659C5.91103 40.3064 5.88062 40.2256 5.88062 40.1414C5.88062 40.0572 5.91103 39.9765 5.96518 39.9169C6.01933 39.8574 6.09276 39.824 6.16934 39.824H28.2204C28.2961 39.8293 28.3675 39.8643 28.4218 39.9225C28.4761 39.9807 28.5096 40.0584 28.5163 40.1414C28.5202 40.1863 28.5147 40.2316 28.5001 40.2737C28.4856 40.3158 28.4624 40.3537 28.4324 40.3844C28.4024 40.4151 28.3663 40.4378 28.3271 40.4507C28.2878 40.4636 28.2464 40.4665 28.206 40.459Z" fill="#313131"/>
<path d="M34.3197 42.999H19.0824C19.0445 42.999 19.007 42.9908 18.9719 42.9748C18.9369 42.9589 18.9051 42.9355 18.8783 42.906C18.8515 42.8765 18.8302 42.8415 18.8157 42.803C18.8012 42.7645 18.7937 42.7232 18.7937 42.6815C18.7937 42.6398 18.8012 42.5985 18.8157 42.56C18.8302 42.5215 18.8515 42.4865 18.8783 42.457C18.9051 42.4275 18.9369 42.4041 18.9719 42.3881C19.007 42.3722 19.0445 42.364 19.0824 42.364H34.3197C34.3946 42.3696 34.4651 42.4048 34.5182 42.4632C34.5713 42.5216 34.6033 42.5991 34.6084 42.6815C34.6117 42.7241 34.6065 42.767 34.5931 42.8071C34.5798 42.8473 34.5586 42.8838 34.5311 42.914C34.5036 42.9443 34.4705 42.9675 34.4339 42.9822C34.3974 42.9969 34.3584 43.0026 34.3197 42.999Z" fill="#313131"/>
<path d="M37.8421 42.999H35.9438C35.9058 42.999 35.8683 42.9908 35.8333 42.9748C35.7982 42.9589 35.7664 42.9355 35.7396 42.906C35.7128 42.8765 35.6915 42.8415 35.677 42.803C35.6625 42.7645 35.655 42.7232 35.655 42.6815C35.655 42.6398 35.6625 42.5985 35.677 42.56C35.6915 42.5215 35.7128 42.4865 35.7396 42.457C35.7664 42.4275 35.7982 42.4041 35.8333 42.3881C35.8683 42.3722 35.9058 42.364 35.9438 42.364H37.8421C37.88 42.364 37.9176 42.3722 37.9526 42.3881C37.9876 42.4041 38.0194 42.4275 38.0462 42.457C38.0731 42.4865 38.0943 42.5215 38.1088 42.56C38.1233 42.5985 38.1308 42.6398 38.1308 42.6815C38.1308 42.7232 38.1233 42.7645 38.1088 42.803C38.0943 42.8415 38.0731 42.8765 38.0462 42.906C38.0194 42.9355 37.9876 42.9589 37.9526 42.9748C37.9176 42.9908 37.88 42.999 37.8421 42.999Z" fill="#313131"/>
<path d="M12.5069 42.9196H5.28884C5.25093 42.9196 5.21339 42.9115 5.17836 42.8955C5.14333 42.8796 5.1115 42.8562 5.08469 42.8267C5.05788 42.7972 5.03661 42.7622 5.0221 42.7237C5.00759 42.6852 5.00012 42.6439 5.00012 42.6022C5.00012 42.5605 5.00759 42.5192 5.0221 42.4807C5.03661 42.4422 5.05788 42.4072 5.08469 42.3777C5.1115 42.3482 5.14333 42.3248 5.17836 42.3088C5.21339 42.2929 5.25093 42.2847 5.28884 42.2847H12.5069C12.5825 42.29 12.654 42.325 12.7083 42.3832C12.7625 42.4414 12.7961 42.5191 12.8028 42.6022C12.8063 42.6455 12.8009 42.6891 12.7872 42.7299C12.7734 42.7707 12.7516 42.8077 12.7233 42.8381C12.6949 42.8684 12.6608 42.8915 12.6234 42.9056C12.586 42.9198 12.5462 42.9245 12.5069 42.9196Z" fill="#313131"/>
</svg>
