<svg width="50" height="50" viewBox="0 0 50 50" fill="none" xmlns="http://www.w3.org/2000/svg">
<rect width="50" height="50" fill="#F1F3FF"/>
<path d="M16.732 14.053H12.2163C12.1399 14.053 12.0666 14.0226 12.0126 13.9686C11.9586 13.9146 11.9282 13.8413 11.9282 13.7649C11.9282 13.6885 11.9586 13.6152 12.0126 13.5612C12.0666 13.5072 12.1399 13.4768 12.2163 13.4768H16.732C16.8084 13.4768 16.8817 13.5072 16.9357 13.5612C16.9897 13.6152 17.0201 13.6885 17.0201 13.7649C17.0201 13.8413 16.9897 13.9146 16.9357 13.9686C16.8817 14.0226 16.8084 14.053 16.732 14.053Z" fill="#313131"/>
<path d="M16.732 17.654H12.2163C12.1399 17.654 12.0666 17.6237 12.0126 17.5697C11.9586 17.5157 11.9282 17.4424 11.9282 17.366C11.9282 17.2896 11.9586 17.2163 12.0126 17.1623C12.0666 17.1083 12.1399 17.0779 12.2163 17.0779H16.732C16.8084 17.0779 16.8817 17.1083 16.9357 17.1623C16.9897 17.2163 17.0201 17.2896 17.0201 17.366C17.0201 17.4424 16.9897 17.5157 16.9357 17.5697C16.8817 17.6237 16.8084 17.654 16.732 17.654Z" fill="#313131"/>
<path d="M16.732 19.0222H12.2163C12.1785 19.0222 12.141 19.0147 12.1061 19.0003C12.0711 18.9858 12.0394 18.9645 12.0126 18.9378C11.9858 18.911 11.9646 18.8793 11.9502 18.8443C11.9357 18.8094 11.9282 18.7719 11.9282 18.7341C11.9282 18.6963 11.9357 18.6588 11.9502 18.6239C11.9646 18.5889 11.9858 18.5572 12.0126 18.5304C12.0394 18.5036 12.0711 18.4824 12.1061 18.4679C12.141 18.4535 12.1785 18.446 12.2163 18.446H16.732C16.7698 18.446 16.8073 18.4535 16.8422 18.4679C16.8772 18.4824 16.9089 18.5036 16.9357 18.5304C16.9624 18.5572 16.9836 18.5889 16.9981 18.6239C17.0126 18.6588 17.0201 18.6963 17.0201 18.7341C17.0201 18.7719 17.0126 18.8094 16.9981 18.8443C16.9836 18.8793 16.9624 18.911 16.9357 18.9378C16.9089 18.9645 16.8772 18.9858 16.8422 19.0003C16.8073 19.0147 16.7698 19.0222 16.732 19.0222Z" fill="#313131"/>
<path d="M22.9257 20.4626H12.1227C12.0849 20.4626 12.0474 20.4552 12.0124 20.4407C11.9775 20.4262 11.9457 20.405 11.919 20.3782C11.8922 20.3515 11.871 20.3197 11.8565 20.2848C11.8421 20.2498 11.8346 20.2124 11.8346 20.1745C11.8346 20.1367 11.8421 20.0992 11.8565 20.0643C11.871 20.0293 11.8922 19.9976 11.919 19.9708C11.9457 19.9441 11.9775 19.9228 12.0124 19.9084C12.0474 19.8939 12.0849 19.8865 12.1227 19.8865H22.9257C23.0005 19.8915 23.0708 19.9235 23.1238 19.9765C23.1768 20.0294 23.2087 20.0998 23.2138 20.1745C23.2171 20.2132 23.2119 20.2521 23.1986 20.2886C23.1852 20.325 23.1641 20.3581 23.1367 20.3855C23.1093 20.413 23.0762 20.4341 23.0397 20.4474C23.0033 20.4607 22.9644 20.4659 22.9257 20.4626Z" fill="#313131"/>
<path d="M22.9257 21.9031H12.1227C12.0849 21.9031 12.0474 21.8956 12.0124 21.8811C11.9775 21.8666 11.9457 21.8454 11.919 21.8187C11.8922 21.7919 11.871 21.7602 11.8565 21.7252C11.8421 21.6903 11.8346 21.6528 11.8346 21.615C11.8346 21.5771 11.8421 21.5397 11.8565 21.5047C11.871 21.4698 11.8922 21.438 11.919 21.4113C11.9457 21.3845 11.9775 21.3633 12.0124 21.3488C12.0474 21.3343 12.0849 21.3269 12.1227 21.3269H22.9257C23.0005 21.332 23.0708 21.3639 23.1238 21.4169C23.1768 21.4699 23.2087 21.5402 23.2138 21.615C23.2171 21.6536 23.2119 21.6925 23.1986 21.729C23.1852 21.7654 23.1641 21.7985 23.1367 21.826C23.1093 21.8534 23.0762 21.8745 23.0397 21.8878C23.0033 21.9011 22.9644 21.9063 22.9257 21.9031Z" fill="#313131"/>
<path d="M22.9257 23.2715H12.1227C12.0849 23.2715 12.0474 23.2641 12.0124 23.2496C11.9775 23.2351 11.9457 23.2139 11.919 23.1871C11.8922 23.1604 11.871 23.1286 11.8565 23.0937C11.8421 23.0587 11.8346 23.0212 11.8346 22.9834C11.8346 22.9456 11.8421 22.9081 11.8565 22.8732C11.871 22.8382 11.8922 22.8065 11.919 22.7797C11.9457 22.753 11.9775 22.7317 12.0124 22.7172C12.0474 22.7028 12.0849 22.6953 12.1227 22.6953H22.9257C23.0005 22.7004 23.0708 22.7324 23.1238 22.7853C23.1768 22.8383 23.2087 22.9087 23.2138 22.9834C23.2171 23.0221 23.2119 23.061 23.1986 23.0974C23.1852 23.1339 23.1641 23.167 23.1367 23.1944C23.1093 23.2218 23.0762 23.2429 23.0397 23.2563C23.0033 23.2696 22.9644 23.2748 22.9257 23.2715Z" fill="#313131"/>
<path d="M42.5224 36.019H9.51557C8.88381 36.0172 8.27814 35.7668 7.8294 35.3221C7.38066 34.8774 7.12487 34.2741 7.11731 33.6423V10.0917C7.12487 9.46002 7.38066 8.85665 7.8294 8.41195C8.27814 7.96725 8.88381 7.71693 9.51557 7.71509H42.5944C43.2269 7.71691 43.8333 7.967 44.2832 8.41151C44.7331 8.85601 44.9905 9.45937 44.9999 10.0917V33.6423C44.9619 34.2776 44.6858 34.8752 44.2265 35.3158C43.7672 35.7563 43.1587 36.0074 42.5224 36.019ZM9.51557 8.36329C9.05696 8.36698 8.61796 8.5498 8.29232 8.87276C7.96667 9.19571 7.7802 9.63317 7.7727 10.0917V33.6423C7.7802 34.1009 7.96667 34.5384 8.29232 34.8613C8.61796 35.1843 9.05696 35.3671 9.51557 35.3708H42.5944C43.0537 35.3672 43.4935 35.1846 43.8203 34.8618C44.1471 34.5391 44.3352 34.1016 44.3445 33.6423V10.0917C44.3352 9.63252 44.1471 9.19508 43.8203 8.87232C43.4935 8.54955 43.0537 8.36694 42.5944 8.36329H9.51557Z" fill="#313131"/>
<path d="M42.4504 29.6813H9.44362C9.36888 29.6762 9.29849 29.6443 9.24552 29.5913C9.19255 29.5383 9.16057 29.4679 9.15552 29.3932V10.1638C9.16057 10.0891 9.19255 10.0187 9.24552 9.96571C9.29849 9.91274 9.36888 9.88079 9.44362 9.87573H42.4504C42.5252 9.88079 42.5955 9.91274 42.6485 9.96571C42.7015 10.0187 42.7335 10.0891 42.7385 10.1638V29.3212C42.8105 29.5372 42.6665 29.6813 42.4504 29.6813ZM9.83972 29.0331H42.184V10.4519H9.83972V29.0331Z" fill="#313131"/>
<path d="M32.029 42.6449H20.0089C19.9006 42.6268 19.8002 42.5766 19.7208 42.5008C19.6635 42.4163 19.638 42.3143 19.6488 42.2128L21.3917 35.5869C21.4637 35.4429 21.5429 35.3708 21.687 35.3708H30.1349C30.279 35.3708 30.4302 35.4429 30.4302 35.5869L32.1731 42.2128C32.1839 42.3143 32.1584 42.4163 32.1011 42.5008C32.1659 42.5728 32.1011 42.6449 32.029 42.6449ZM20.4482 41.9967H31.5969L30.0053 36.019H22.0831L20.4482 41.9967Z" fill="#313131"/>
<path d="M37.2793 44.2292H14.6937C14.6177 44.2259 14.5456 44.1946 14.4911 44.1415C14.4367 44.0884 14.4037 44.017 14.3984 43.9411V42.2847C14.4037 42.2088 14.4367 42.1375 14.4911 42.0843C14.5456 42.0312 14.6177 41.9999 14.6937 41.9966H37.2793C37.354 42.0016 37.4244 42.0336 37.4773 42.0866C37.5303 42.1396 37.5623 42.2099 37.5673 42.2847V43.8691C37.6394 44.0852 37.4953 44.2292 37.2793 44.2292ZM15.0538 43.581H36.984V42.6448H15.0538V43.581Z" fill="#313131"/>
<path d="M25.9866 34.6506C25.7732 34.6492 25.565 34.5846 25.3883 34.465C25.2116 34.3454 25.0743 34.1762 24.9936 33.9787C24.913 33.7812 24.8926 33.5642 24.9351 33.3551C24.9776 33.146 25.081 32.9542 25.2324 32.8039C25.3838 32.6535 25.5763 32.5513 25.7856 32.5102C25.995 32.4691 26.2118 32.4909 26.4088 32.5729C26.6058 32.6549 26.7741 32.7933 26.8925 32.9708C27.0109 33.1483 27.074 33.3569 27.0741 33.5703C27.0825 33.715 27.0602 33.8598 27.0084 33.9952C26.9566 34.1306 26.8767 34.2534 26.7739 34.3556C26.671 34.4577 26.5477 34.5369 26.4119 34.5877C26.2762 34.6386 26.1312 34.66 25.9866 34.6506ZM25.9866 33.0661C25.9011 33.0661 25.8176 33.0915 25.7465 33.139C25.6754 33.1864 25.62 33.2539 25.5873 33.3329C25.5546 33.4118 25.5461 33.4987 25.5627 33.5825C25.5794 33.6664 25.6206 33.7433 25.681 33.8038C25.7414 33.8642 25.8184 33.9054 25.9023 33.9221C25.9861 33.9387 26.073 33.9302 26.1519 33.8975C26.2309 33.8647 26.2984 33.8094 26.3459 33.7383C26.3933 33.6673 26.4187 33.5837 26.4187 33.4982C26.4907 33.2822 26.2746 33.0661 25.9866 33.0661Z" fill="#313131"/>
<path d="M5.29516 18.7342C5.21915 18.7309 5.14702 18.6997 5.09256 18.6465C5.0381 18.5934 5.00511 18.5221 4.99988 18.4462V8.36335C5.00082 8.0207 5.06948 7.68162 5.20191 7.3656C5.33434 7.04958 5.52793 6.76282 5.77155 6.52188C6.01518 6.28093 6.30403 6.09053 6.6215 5.96159C6.93896 5.83266 7.27879 5.76775 7.62142 5.7706H13.4406C13.517 5.7706 13.5903 5.80097 13.6443 5.855C13.6984 5.90902 13.7287 5.98229 13.7287 6.0587C13.7287 6.1351 13.6984 6.20837 13.6443 6.2624C13.5903 6.31642 13.517 6.34675 13.4406 6.34675H7.607C7.35009 6.34485 7.09534 6.39371 6.85735 6.49049C6.61936 6.58728 6.40281 6.73011 6.22014 6.91077C6.03747 7.09143 5.89228 7.30637 5.79287 7.54328C5.69347 7.78018 5.64181 8.03439 5.64087 8.2913V18.3741C5.64388 18.421 5.63709 18.4679 5.62098 18.512C5.60486 18.5561 5.57975 18.5964 5.54724 18.6303C5.51473 18.6641 5.47553 18.6908 5.43214 18.7087C5.38874 18.7266 5.3421 18.7353 5.29516 18.7342Z" fill="#313131"/>
<path d="M34.4346 22.191H29.3356C29.2601 22.1862 29.1888 22.1545 29.1346 22.1016C29.0805 22.0488 29.047 21.9784 29.0403 21.903V16.8616C29.047 16.7862 29.0805 16.7157 29.1346 16.6629C29.1888 16.6101 29.2601 16.5783 29.3356 16.5735H34.4346C34.5101 16.5783 34.5814 16.6101 34.6355 16.6629C34.6897 16.7157 34.7231 16.7862 34.7299 16.8616V21.903C34.8019 22.047 34.6506 22.191 34.4346 22.191ZM29.7029 21.5429H34.1465V17.1496H29.7029V21.5429Z" fill="#313131"/>
<path d="M39.5336 22.191H34.4346C34.3598 22.186 34.2895 22.154 34.2365 22.1011C34.1835 22.0481 34.1515 21.9777 34.1465 21.903V16.8616C34.1515 16.7868 34.1835 16.7165 34.2365 16.6635C34.2895 16.6105 34.3598 16.5785 34.4346 16.5735H39.5336C39.6091 16.5783 39.6804 16.6101 39.7345 16.6629C39.7887 16.7157 39.8222 16.7862 39.8289 16.8616V21.903C39.8222 21.9784 39.7887 22.0488 39.7345 22.1016C39.6804 22.1545 39.6091 22.1862 39.5336 22.191ZM34.8019 21.5429H39.2455V17.1496H34.8019V21.5429Z" fill="#313131"/>
<path d="M34.4346 27.2326H29.3356C29.2601 27.2277 29.1888 27.196 29.1346 27.1431C29.0805 27.0903 29.047 27.0199 29.0403 26.9445V21.9031C29.047 21.8277 29.0805 21.7572 29.1346 21.7044C29.1888 21.6516 29.2601 21.6198 29.3356 21.615H34.4346C34.5101 21.6198 34.5814 21.6516 34.6355 21.7044C34.6897 21.7572 34.7231 21.8277 34.7299 21.9031V26.9445C34.8019 27.0885 34.6506 27.2326 34.4346 27.2326ZM29.7029 26.5844H34.1465V22.1911H29.7029V26.5844Z" fill="#313131"/>
<path d="M39.5336 27.2326H34.4346C34.3598 27.2275 34.2895 27.1955 34.2365 27.1426C34.1835 27.0896 34.1515 27.0192 34.1465 26.9445V21.9031C34.1515 21.8283 34.1835 21.758 34.2365 21.705C34.2895 21.652 34.3598 21.62 34.4346 21.615H39.5336C39.6091 21.6198 39.6804 21.6516 39.7345 21.7044C39.7887 21.7572 39.8222 21.8277 39.8289 21.9031V26.9445C39.8222 27.0199 39.7887 27.0903 39.7345 27.1431C39.6804 27.196 39.6091 27.2277 39.5336 27.2326ZM34.8019 26.5844H39.2455V22.1911H34.8019V26.5844Z" fill="#313131"/>
<path d="M31.813 18.5902C31.7029 18.5711 31.6005 18.5212 31.5177 18.4462L29.6236 15.8534C29.5516 15.7094 29.5516 15.4934 29.7028 15.4213C29.854 15.3493 30.0629 15.3493 30.1349 15.4933L32.0291 18.0861C32.1011 18.2301 32.1011 18.4462 31.957 18.5182C31.957 18.5902 31.885 18.5902 31.813 18.5902Z" fill="#313131"/>
<path d="M29.6236 27.2327C29.5845 27.2374 29.5449 27.2334 29.5075 27.221C29.4702 27.2085 29.436 27.1879 29.4076 27.1607C29.2636 27.0167 29.2636 26.8006 29.4076 26.7286L31.741 24.2079C31.8851 24.0638 32.1011 24.0638 32.1732 24.2079C32.2452 24.3519 32.3244 24.568 32.1732 24.64L29.8469 27.1607C29.7749 27.1607 29.7029 27.2327 29.6236 27.2327Z" fill="#313131"/>
<path d="M40.9884 19.6704H36.9841C36.9077 19.6704 36.8344 19.6401 36.7804 19.586C36.7264 19.532 36.696 19.4587 36.696 19.3823C36.696 19.3059 36.7264 19.2327 36.7804 19.1786C36.8344 19.1246 36.9077 19.0942 36.9841 19.0942H40.9884C41.0645 19.0976 41.1366 19.1288 41.191 19.182C41.2455 19.2351 41.2785 19.3064 41.2837 19.3823C41.2872 19.4217 41.2818 19.4612 41.2681 19.4983C41.2544 19.5353 41.2326 19.5688 41.2044 19.5964C41.1761 19.6239 41.1421 19.6449 41.1047 19.6577C41.0674 19.6705 41.0277 19.6748 40.9884 19.6704Z" fill="#313131"/>
</svg>
