<svg width="50" height="50" viewBox="0 0 50 50" fill="none" xmlns="http://www.w3.org/2000/svg">
<rect width="50" height="50" fill="#F1F3FF"/>
<path d="M6.43856 39.5774H5.35039C5.29361 39.5763 5.23776 39.5615 5.18672 39.534C5.13568 39.5066 5.09069 39.4671 5.05495 39.4185C5.01949 39.3748 4.99988 39.3183 4.99988 39.2596C4.99988 39.201 5.01949 39.1444 5.05495 39.1007L17.594 8.03837C17.6661 7.87948 17.7382 7.80005 17.8895 7.80005H18.9056C18.9624 7.80116 19.0182 7.81595 19.0693 7.8434C19.1203 7.87085 19.1653 7.9103 19.2011 7.95895C19.2365 8.00264 19.2561 8.05922 19.2561 8.11784C19.2561 8.17647 19.2365 8.23304 19.2011 8.27674L6.73404 39.4185C6.69899 39.468 6.65412 39.508 6.60293 39.5356C6.55173 39.5631 6.49552 39.5774 6.43856 39.5774ZM5.86206 38.8624H6.22238L18.4732 8.59448H18.1057L5.86206 38.8624Z" fill="#313131"/>
<path d="M14.0269 39.5774H13.0036C12.947 39.5752 12.8914 39.56 12.8405 39.5326C12.7896 39.5052 12.7445 39.4663 12.7081 39.4185C12.6727 39.3748 12.6531 39.3183 12.6531 39.2596C12.6531 39.201 12.6727 39.1444 12.7081 39.1007L25.2472 8.03837C25.3265 7.87948 25.3986 7.80005 25.5427 7.80005H26.53C26.5869 7.80003 26.6431 7.81436 26.6943 7.84189C26.7455 7.86943 26.7904 7.90945 26.8254 7.95895C26.8609 8.00264 26.8805 8.05922 26.8805 8.11784C26.8805 8.17647 26.8609 8.23304 26.8254 8.27674L14.3584 39.4185C14.2674 39.5113 14.1505 39.5673 14.0269 39.5774ZM13.5153 38.8624H13.8756L26.1264 8.51506H25.7589L13.5153 38.8624Z" fill="#313131"/>
<path d="M23.5033 13.5994H16.9383C16.8825 13.5982 16.8277 13.5834 16.7779 13.5559C16.728 13.5284 16.6843 13.489 16.65 13.4405C16.6145 13.3968 16.595 13.3402 16.595 13.2816C16.595 13.223 16.6145 13.1664 16.65 13.1227L18.0913 9.46835C18.1633 9.30946 18.2354 9.22998 18.3795 9.22998H24.9445C25.0003 9.23116 25.0551 9.24604 25.105 9.27352C25.1548 9.30101 25.1985 9.34042 25.2328 9.38888C25.252 9.40959 25.2672 9.43433 25.2776 9.46161C25.288 9.48889 25.2934 9.51818 25.2934 9.54777C25.2934 9.57737 25.288 9.60665 25.2776 9.63394C25.2672 9.66122 25.252 9.68596 25.2328 9.70667L23.7915 13.361C23.7195 13.5199 23.6474 13.5994 23.5033 13.5994ZM17.4499 12.8844H23.2799L24.4473 9.94499H18.6029L17.4499 12.8844Z" fill="#313131"/>
<path d="M20.4406 21.1465H13.8756C13.8199 21.1453 13.7651 21.1305 13.7152 21.103C13.6654 21.0755 13.6217 21.0361 13.5874 20.9876C13.5519 20.9439 13.5323 20.8874 13.5323 20.8287C13.5323 20.7701 13.5519 20.7135 13.5874 20.6698L15.0286 17.0155C15.1007 16.8566 15.1728 16.7771 15.3241 16.7771H21.8819C21.9385 16.7792 21.9941 16.7945 22.045 16.8219C22.0959 16.8493 22.141 16.8881 22.1774 16.936C22.2129 16.9797 22.2324 17.0363 22.2324 17.0949C22.2324 17.1535 22.2129 17.2101 22.1774 17.2538L20.7361 20.9082C20.6569 21.067 20.5848 21.1465 20.4406 21.1465ZM14.3873 20.4315H20.2172L21.3847 17.4921H15.5547L14.3873 20.4315Z" fill="#313131"/>
<path d="M17.3778 28.7732H10.8128C10.757 28.772 10.7022 28.7571 10.6524 28.7296C10.6025 28.7022 10.5588 28.6627 10.5245 28.6143C10.4891 28.5706 10.4695 28.514 10.4695 28.4554C10.4695 28.3968 10.4891 28.3402 10.5245 28.2965L11.9658 24.6421C12.0378 24.4832 12.1171 24.4038 12.2613 24.4038H18.8191C18.8757 24.406 18.9312 24.4212 18.9821 24.4486C19.033 24.4759 19.0782 24.5148 19.1145 24.5627C19.15 24.6064 19.1696 24.6629 19.1696 24.7216C19.1696 24.7802 19.15 24.8368 19.1145 24.8804L17.6733 28.5349C17.594 28.6938 17.5219 28.7732 17.3778 28.7732ZM11.3244 28.0582H17.1616L18.3218 25.1188H12.4919L11.3244 28.0582Z" fill="#313131"/>
<path d="M14.3151 36.3998H7.79338C7.73642 36.3998 7.68021 36.3855 7.62901 36.358C7.57781 36.3304 7.53299 36.2904 7.49794 36.2409C7.46249 36.1972 7.44287 36.1407 7.44287 36.082C7.44287 36.0234 7.46249 35.9668 7.49794 35.9231L8.93921 32.3482C9.01848 32.1893 9.09053 32.1099 9.23466 32.1099H15.7924C15.8494 32.1098 15.9057 32.1241 15.9569 32.1517C16.0081 32.1792 16.0529 32.2192 16.0879 32.2687C16.1234 32.3124 16.143 32.369 16.143 32.4276C16.143 32.4862 16.1234 32.5428 16.0879 32.5865L14.6467 36.1615C14.5313 36.3203 14.4593 36.3998 14.3151 36.3998ZM8.26181 35.6848H14.099L15.2664 32.8248H9.42924L8.26181 35.6848Z" fill="#313131"/>
<path d="M39.0979 39.5774H38.0097C37.8584 39.5774 37.7863 39.4979 37.7143 39.3391L25.7589 9.62724C25.6868 9.54779 25.6868 9.46838 25.7589 9.30949L26.2706 8.03837C26.3426 7.87948 26.4147 7.80005 26.5588 7.80005C26.7101 7.80005 26.7822 7.87948 26.8543 8.03837L39.3933 39.1007C39.4654 39.1802 39.3933 39.339 39.3933 39.4185C39.3639 39.4742 39.3201 39.5191 39.2675 39.5474C39.2149 39.5757 39.1559 39.5861 39.0979 39.5774ZM38.2259 38.8624H38.5934L26.53 9.07117L26.3858 9.46839L38.2259 38.8624Z" fill="#313131"/>
<path d="M31.4447 39.5772H30.4285C30.2772 39.5772 30.2052 39.4978 30.1331 39.3389L21.8962 19.0808C21.8241 19.0014 21.8241 18.9219 21.8962 18.7631L22.4079 17.492C22.4799 17.3331 22.552 17.2537 22.6961 17.2537C22.8474 17.2537 22.9195 17.3331 22.9916 17.492L31.6392 39.1006C31.7113 39.18 31.6392 39.3389 31.6392 39.4183C31.6392 39.4978 31.5744 39.5772 31.4447 39.5772ZM30.6448 38.8623H31.0122L22.7682 18.5247L22.6241 18.922L30.6448 38.8623Z" fill="#313131"/>
<path d="M27.51 13.5994H24.5194C24.4636 13.5982 24.4088 13.5834 24.359 13.5559C24.3091 13.5284 24.2654 13.489 24.2311 13.4405C24.1956 13.3968 24.176 13.3402 24.176 13.2816C24.176 13.223 24.1956 13.1664 24.2311 13.1227L25.6724 9.46835C25.7444 9.30946 25.8165 9.22998 25.9678 9.22998H26.0399C26.184 9.22998 26.2561 9.30946 26.3281 9.46835L27.7694 13.1227C27.8487 13.2022 27.7694 13.3611 27.7694 13.4405C27.7694 13.52 27.6541 13.5994 27.51 13.5994ZM25.031 12.8844H26.9984L25.9822 10.4216L25.031 12.8844Z" fill="#313131"/>
<path d="M30.5727 21.1466H24.0077C23.8636 21.1466 23.7915 21.0671 23.7195 20.9082L22.4079 17.7305C22.3359 17.6511 22.3359 17.5716 22.4079 17.4128L22.552 16.9361C22.6241 16.7772 22.6962 16.6978 22.8475 16.6978H29.0378C29.1891 16.6978 29.2612 16.7772 29.3332 16.9361L30.7745 20.5905C30.8466 20.6699 30.7745 20.8288 30.7745 20.9082C30.7889 21.1466 30.7168 21.1466 30.5727 21.1466ZM24.2311 20.4316H30.0611L28.8937 17.4922H23.1286L23.0565 17.5716L24.2311 20.4316Z" fill="#313131"/>
<path d="M33.6354 28.7732H27.0704C26.9263 28.7732 26.8542 28.6938 26.7822 28.5349L25.3409 24.8804C25.2616 24.801 25.3409 24.6421 25.3409 24.5627C25.3752 24.5142 25.4189 24.4748 25.4688 24.4474C25.5186 24.4199 25.5734 24.405 25.6292 24.4038H32.187C32.3383 24.4038 32.4104 24.4832 32.4824 24.6421L33.9237 28.2965C33.9958 28.3759 33.9237 28.5349 33.9237 28.6143C33.8894 28.6627 33.8457 28.7022 33.7959 28.7296C33.746 28.7571 33.6912 28.772 33.6354 28.7732ZM27.2938 28.0582H33.1238L31.9564 25.1188H26.1264L27.2938 28.0582Z" fill="#313131"/>
<path d="M36.6982 36.3998H30.1332C29.989 36.3998 29.9169 36.3203 29.8449 36.1615L28.4036 32.5865C28.3315 32.5071 28.4036 32.3482 28.4036 32.2687C28.4036 32.1893 28.555 32.1099 28.6991 32.1099H35.2569C35.4082 32.1099 35.4803 32.1893 35.5524 32.3482L36.9936 35.9231C37.0657 36.0026 36.9936 36.1614 36.9936 36.2409C36.9586 36.2904 36.9137 36.3304 36.8625 36.358C36.8113 36.3855 36.7551 36.3998 36.6982 36.3998ZM30.3493 35.6848H36.1865L35.0191 32.8248H29.1891L30.3493 35.6848Z" fill="#313131"/>
<path d="M34.8028 40.6897H12.0523C12.0144 40.6897 11.9769 40.6815 11.942 40.6655C11.907 40.6496 11.8752 40.6261 11.8484 40.5966C11.8217 40.5671 11.8005 40.5321 11.786 40.4936C11.7715 40.455 11.764 40.4137 11.764 40.3719C11.764 40.3302 11.7715 40.2889 11.786 40.2503C11.8005 40.2118 11.8217 40.1768 11.8484 40.1472C11.8752 40.1177 11.907 40.0943 11.942 40.0783C11.9769 40.0624 12.0144 40.0542 12.0523 40.0542H34.8028C34.8792 40.0542 34.9526 40.0877 35.0066 40.1472C35.0607 40.2068 35.0911 40.2877 35.0911 40.3719C35.0911 40.4562 35.0607 40.537 35.0066 40.5966C34.9526 40.6562 34.8792 40.6897 34.8028 40.6897Z" fill="#313131"/>
<path d="M41.0725 42.199H25.3266C25.2887 42.199 25.2513 42.1908 25.2163 42.1749C25.1813 42.1589 25.1495 42.1355 25.1228 42.106C25.096 42.0765 25.0748 42.0414 25.0603 42.0029C25.0458 41.9643 25.0383 41.923 25.0383 41.8813C25.0383 41.8395 25.0458 41.7982 25.0603 41.7597C25.0748 41.7211 25.096 41.6861 25.1228 41.6566C25.1495 41.6271 25.1813 41.6036 25.2163 41.5877C25.2513 41.5717 25.2887 41.5635 25.3266 41.5635H41.0725C41.1473 41.5691 41.2177 41.6044 41.2707 41.6628C41.3237 41.7212 41.3557 41.7988 41.3608 41.8813C41.3641 41.9239 41.3588 41.9668 41.3455 42.007C41.3322 42.0472 41.3111 42.0838 41.2836 42.114C41.2562 42.1443 41.2231 42.1675 41.1866 42.1822C41.1501 42.1969 41.1112 42.2026 41.0725 42.199Z" fill="#313131"/>
<path d="M44.7117 42.199H42.7443C42.6679 42.199 42.5946 42.1656 42.5405 42.106C42.4864 42.0464 42.4561 41.9655 42.4561 41.8813C42.4561 41.797 42.4864 41.7162 42.5405 41.6566C42.5946 41.597 42.6679 41.5635 42.7443 41.5635H44.7117C44.7495 41.5635 44.787 41.5717 44.822 41.5877C44.8569 41.6036 44.8887 41.6271 44.9155 41.6566C44.9422 41.6861 44.9635 41.7211 44.978 41.7597C44.9925 41.7982 44.9999 41.8395 44.9999 41.8813C44.9999 41.923 44.9925 41.9643 44.978 42.0029C44.9635 42.0414 44.9422 42.0765 44.9155 42.106C44.8887 42.1355 44.8569 42.1589 44.822 42.1749C44.787 42.1908 44.7495 42.199 44.7117 42.199Z" fill="#313131"/>
<path d="M18.6029 42.199H11.1083C11.0704 42.199 11.033 42.1908 10.998 42.1749C10.963 42.1589 10.9312 42.1355 10.9045 42.106C10.8777 42.0765 10.8565 42.0414 10.842 42.0029C10.8275 41.9643 10.8201 41.923 10.8201 41.8813C10.8201 41.8395 10.8275 41.7982 10.842 41.7597C10.8565 41.7211 10.8777 41.6861 10.9045 41.6566C10.9312 41.6271 10.963 41.6036 10.998 41.5877C11.033 41.5717 11.0704 41.5635 11.1083 41.5635H18.5453C18.6201 41.5691 18.6905 41.6044 18.7435 41.6628C18.7965 41.7212 18.8285 41.7988 18.8336 41.8813C18.8336 42.0402 18.7615 42.199 18.6029 42.199Z" fill="#313131"/>
</svg>
