<svg width="50" height="50" viewBox="0 0 50 50" fill="none" xmlns="http://www.w3.org/2000/svg">
<rect width="50" height="50" fill="#F1F3FF"/>
<path d="M15.3808 26.2837C15.1477 26.2866 14.9165 26.2428 14.7006 26.155C14.4847 26.0671 14.2886 25.9369 14.1238 25.7721L7.83886 19.5603C7.50887 19.2307 7.32239 18.7842 7.31999 18.3179C7.31833 18.0865 7.36344 17.8572 7.4526 17.6437C7.54176 17.4302 7.67314 17.237 7.83886 17.0755L17.3394 7.72116C17.6746 7.39163 18.1263 7.20779 18.5963 7.20961C18.8294 7.2067 19.0607 7.25046 19.2766 7.33832C19.4924 7.42617 19.6886 7.55634 19.8533 7.72116L26.1383 13.933C26.4683 14.2625 26.6548 14.7091 26.6572 15.1754C26.6588 15.4068 26.6137 15.6361 26.5245 15.8496C26.4354 16.0631 26.304 16.2563 26.1383 16.4178L16.6743 25.7721C16.518 25.9481 16.3234 26.0857 16.1055 26.1744C15.8875 26.2631 15.652 26.3005 15.4173 26.2837H15.3808ZM18.5598 7.94042C18.2888 7.94606 18.0291 8.04994 17.829 8.23274L8.36504 17.5871C8.26521 17.68 8.18672 17.7934 8.13499 17.9196C8.08326 18.0457 8.05952 18.1816 8.06541 18.3179C8.07305 18.5898 8.17958 18.8496 8.36504 19.0487L14.65 25.2605C14.7435 25.3591 14.8573 25.4362 14.9834 25.4866C15.1096 25.5371 15.2451 25.5597 15.3808 25.5529C15.6514 25.5453 15.9104 25.4417 16.1116 25.2605L25.5756 15.9062C25.6745 15.813 25.7518 15.6993 25.8023 15.573C25.8528 15.4468 25.8752 15.3111 25.8679 15.1754C25.8623 14.9044 25.7584 14.6447 25.5756 14.4446L19.2906 8.23274C19.2008 8.12951 19.0876 8.04917 18.9605 7.99834C18.8334 7.9475 18.6961 7.92765 18.5598 7.94042Z" fill="#313131"/>
<path d="M13.5319 28.6225C13.4454 28.6248 13.3596 28.6061 13.2819 28.5679C13.2042 28.5297 13.137 28.4732 13.0861 28.4032L5.17876 20.6567C5.07207 20.5213 5.01404 20.354 5.01404 20.1817C5.01404 20.0093 5.07207 19.842 5.17876 19.7066L6.5819 18.3181C6.70623 18.212 6.8643 18.1538 7.02771 18.1538C7.19112 18.1538 7.34916 18.212 7.47349 18.3181L15.3077 26.0647C15.3718 26.1193 15.4242 26.1863 15.4619 26.2616C15.4995 26.337 15.5217 26.4191 15.527 26.5031C15.5294 26.5886 15.5107 26.6734 15.4724 26.7499C15.4342 26.8264 15.3776 26.8923 15.3077 26.9416L13.9046 28.3302C13.8847 28.4139 13.8371 28.4884 13.7694 28.5415C13.7017 28.5946 13.6179 28.6232 13.5319 28.6225ZM5.69763 20.2182L13.5319 27.9648L14.935 26.5762L7.10077 18.8297L5.69763 20.2182Z" fill="#313131"/>
<path d="M26.8399 15.3948C26.6823 15.3797 26.53 15.3298 26.3941 15.2486L18.5599 7.50207C18.4532 7.36672 18.3951 7.1994 18.3951 7.02705C18.3951 6.8547 18.4532 6.68736 18.5599 6.55201L19.963 5.16348C20.0862 5.05798 20.243 5 20.4052 5C20.5673 5 20.7241 5.05798 20.8473 5.16348L28.6889 12.91C28.7529 12.9647 28.8053 13.0317 28.843 13.107C28.8806 13.1823 28.9028 13.2645 28.9081 13.3485C28.9105 13.434 28.8918 13.5188 28.8535 13.5953C28.8153 13.6718 28.7587 13.7377 28.6889 13.787L27.2857 15.1756C27.2402 15.2509 27.1739 15.3116 27.0949 15.3504C27.0159 15.3893 26.9274 15.4047 26.8399 15.3948ZM19.0056 6.9905L26.8399 14.7371L28.2431 13.3485L20.4819 5.60197L19.0056 6.9905Z" fill="#313131"/>
<path d="M39.4829 42.3616C39.4421 42.3665 39.4007 42.3624 39.3616 42.3498C39.3225 42.3372 39.2866 42.3163 39.2563 42.2885L19.3711 22.6298C19.3236 22.5665 19.298 22.4896 19.298 22.4105C19.298 22.3315 19.3236 22.2546 19.3711 22.1913L21.885 19.7065C22.0312 19.5604 22.2577 19.5604 22.3308 19.7065L42.2161 39.3653C42.2636 39.4285 42.2892 39.5055 42.2892 39.5845C42.2892 39.6636 42.2636 39.7405 42.2161 39.8038L39.7021 42.2885C39.6733 42.3161 39.6386 42.337 39.6007 42.3497C39.5628 42.3623 39.5226 42.3664 39.4829 42.3616ZM20.0361 22.4105L39.4829 41.6308L41.5511 39.5845L22.1043 20.3643L20.0361 22.4105Z" fill="#313131"/>
<path d="M11.3176 14.5178C11.2767 14.5232 11.2352 14.5194 11.1961 14.5068C11.1569 14.4941 11.121 14.4729 11.091 14.4447L9.6294 12.9831C9.48324 12.837 9.48324 12.6177 9.6294 12.5446L12.1434 10.0599C12.1723 10.0323 12.2069 10.0114 12.2448 9.99873C12.2827 9.9861 12.3229 9.98203 12.3626 9.9868C12.4034 9.98241 12.4446 9.98666 12.4837 9.99925C12.5227 10.0118 12.5586 10.0325 12.5892 10.0599L14.0508 11.5215C14.1969 11.6677 14.1969 11.8869 14.0508 11.96L11.5368 14.4447C11.5079 14.4724 11.4733 14.4932 11.4354 14.5059C11.3975 14.5185 11.3572 14.5226 11.3176 14.5178ZM10.2798 12.7639L11.2372 13.7139L13.3127 11.6677L12.348 10.7176L10.2798 12.7639Z" fill="#313131"/>
<path d="M39.483 42.3616C39.4422 42.3664 39.4008 42.3624 39.3617 42.3498C39.3226 42.3372 39.2867 42.3163 39.2564 42.2885L35.8582 38.9268C35.712 38.7806 35.712 38.5614 35.8582 38.4883L38.3721 36.0036C38.401 35.9759 38.4357 35.955 38.4736 35.9424C38.5115 35.9298 38.5517 35.9257 38.5914 35.9305C38.6322 35.9256 38.6735 35.9296 38.7127 35.9422C38.7518 35.9548 38.7877 35.9758 38.8179 36.0036L42.2162 39.3653C42.3624 39.5114 42.3624 39.7307 42.2162 39.8037L39.7022 42.2885C39.6733 42.3161 39.6387 42.337 39.6008 42.3496C39.5629 42.3623 39.5226 42.3663 39.483 42.3616ZM36.5232 38.7075L39.483 41.6308L41.5512 39.5845L38.5914 36.6613L36.5232 38.7075Z" fill="#313131"/>
<path d="M40.813 44.9923C40.7722 44.9967 40.731 44.9925 40.6919 44.9799C40.6529 44.9673 40.6169 44.9467 40.5864 44.9193L38.5913 42.9461C38.4451 42.7999 38.4451 42.5807 38.5913 42.5076L42.4354 38.7074C42.4656 38.6796 42.5016 38.6587 42.5407 38.6461C42.5798 38.6335 42.6211 38.6295 42.6619 38.6343C42.7016 38.6296 42.7418 38.6336 42.7797 38.6463C42.8176 38.6589 42.8523 38.6798 42.8812 38.7074L44.8763 40.6806C45.0224 40.8267 45.0224 41.046 44.8763 41.1191L41.0688 44.9193C41.036 44.9525 40.9953 44.9766 40.9505 44.9894C40.9057 45.0023 40.8583 45.0032 40.813 44.9923ZM39.2563 42.7268L40.718 44.1885L44.1162 40.8268L42.6546 39.3651L39.2563 42.7268Z" fill="#313131"/>
<path d="M32.5329 40.6076H19.7437C19.6662 40.6076 19.5919 40.5768 19.537 40.522C19.4822 40.4671 19.4514 40.3928 19.4514 40.3153C19.4514 40.2377 19.4822 40.1634 19.537 40.1086C19.5919 40.0537 19.6662 40.0229 19.7437 40.0229H32.606C32.6818 40.0281 32.7532 40.0605 32.8069 40.1143C32.8607 40.168 32.8931 40.2394 32.8983 40.3153C32.8873 40.4019 32.843 40.4809 32.7748 40.5354C32.7066 40.59 32.6198 40.6159 32.5329 40.6076Z" fill="#313131"/>
<path d="M36.0774 42.2155H27.1834C27.1059 42.2155 27.0316 42.1847 26.9767 42.1299C26.9219 42.0751 26.8911 42.0007 26.8911 41.9232C26.8911 41.8457 26.9219 41.7713 26.9767 41.7165C27.0316 41.6617 27.1059 41.6309 27.1834 41.6309H36.0554C36.1326 41.6343 36.2057 41.666 36.261 41.7199C36.3163 41.7738 36.3498 41.8462 36.3551 41.9232C36.3582 41.9611 36.3532 41.9993 36.3406 42.0352C36.3279 42.0711 36.3078 42.1039 36.2816 42.1315C36.2554 42.1591 36.2237 42.1808 36.1885 42.1953C36.1533 42.2098 36.1154 42.2167 36.0774 42.2155Z" fill="#313131"/>
<path d="M23.4417 42.2155H19.2249C19.1474 42.2155 19.0731 42.1847 19.0182 42.1299C18.9634 42.0751 18.9326 42.0007 18.9326 41.9232C18.9326 41.8457 18.9634 41.7713 19.0182 41.7165C19.0731 41.6617 19.1474 41.6309 19.2249 41.6309H23.4417C23.5192 41.6309 23.5936 41.6617 23.6484 41.7165C23.7032 41.7713 23.734 41.8457 23.734 41.9232C23.734 42.0007 23.7032 42.0751 23.6484 42.1299C23.5936 42.1847 23.5192 42.2155 23.4417 42.2155Z" fill="#313131"/>
</svg>
