<svg width="48" height="50" viewBox="0 0 48 50" fill="none" xmlns="http://www.w3.org/2000/svg">
<rect width="47.2293" height="50" fill="#F1F3FF"/>
<path d="M22.326 24.2401C22.2529 24.2401 22.1798 24.2401 22.1798 24.167L18.3348 21.9741C16.924 21.17 16.2588 20.0735 16.6316 18.9039L18.3348 12.6174C18.519 11.9776 18.9468 11.4354 19.5263 11.1074C20.1058 10.7794 20.7908 10.6917 21.4342 10.8631L29.4751 12.9829C29.7996 13.0638 30.1047 13.209 30.3721 13.4099C30.6396 13.6108 30.864 13.8633 31.0321 14.1525C31.2098 14.4322 31.3219 14.7484 31.3599 15.0776C31.3979 15.4068 31.3608 15.7403 31.2514 16.0531L29.5482 22.3396C29.2558 23.5091 28.1447 24.0939 26.5146 24.167L22.3041 24.2401H22.326ZM20.769 11.4479C20.3548 11.4558 19.9537 11.5943 19.6229 11.8438C19.2921 12.0932 19.0485 12.4407 18.9269 12.8367L17.2968 19.1232C17.0044 20.2928 18.0278 21.0969 18.7003 21.4624L22.4722 23.5823L26.6169 23.5092C27.5745 23.5092 28.7587 23.2899 29.0511 22.1934L30.7543 15.9069C30.8287 15.6743 30.8476 15.4276 30.8095 15.1864C30.7714 14.9452 30.6774 14.7163 30.535 14.518C30.4086 14.2982 30.2382 14.1068 30.0344 13.9558C29.8307 13.8049 29.5979 13.6977 29.3508 13.6408L21.3099 11.521C21.1386 11.4517 20.9526 11.4266 20.769 11.4479Z" fill="#313131"/>
<path d="M23.8026 30.307C23.6527 30.3185 23.5021 30.2934 23.364 30.2339L18.0351 28.845C17.5951 28.6894 17.2094 28.4102 16.924 28.0409C16.8115 27.8431 16.7405 27.6243 16.7153 27.3981C16.6902 27.1719 16.7115 26.9429 16.7778 26.7251L18.1813 21.6082C18.1813 21.5351 18.2617 21.462 18.4079 21.3889C18.5541 21.3158 18.6272 21.3889 18.7003 21.3889L22.4722 23.5088H26.6169C26.7268 23.5271 26.8287 23.578 26.9093 23.655C26.9675 23.7408 26.9933 23.8444 26.9824 23.9474L25.5789 29.0643C25.4522 29.4326 25.2121 29.7513 24.8929 29.9746C24.5738 30.1979 24.192 30.3142 23.8026 30.307ZM18.6857 22.193L17.4138 26.8713C17.366 27.0186 17.3544 27.1751 17.3798 27.3278C17.4052 27.4805 17.467 27.6247 17.56 27.7485C17.6255 27.8796 17.7201 27.9938 17.8367 28.0826C17.9533 28.1713 18.0887 28.232 18.2325 28.2602L23.5541 29.6491C23.8465 29.7198 24.1548 29.6759 24.4158 29.5264C24.6769 29.3768 24.8707 29.133 24.9576 28.845L26.2149 24.1667H22.3699C22.2968 24.1667 22.2237 24.1667 22.2237 24.0936L18.6857 22.193Z" fill="#313131"/>
<path d="M17.6696 40.9794H17.5892C17.5322 40.9759 17.4784 40.9517 17.438 40.9113C17.3976 40.8709 17.3734 40.8172 17.3699 40.7601C17.2968 40.3215 16.7778 36.4473 16.924 35.8625L17.8889 32.2807C17.8889 32.2076 17.962 32.1345 18.0351 32.0614C18.0488 32.0446 18.0661 32.031 18.0857 32.0217C18.1053 32.0124 18.1267 32.0076 18.1484 32.0076C18.1701 32.0076 18.1915 32.0124 18.2111 32.0217C18.2307 32.031 18.248 32.0446 18.2617 32.0614L21.5146 32.9385C21.6001 32.9701 21.6703 33.033 21.7111 33.1144C21.7518 33.1959 21.76 33.2899 21.7339 33.3771L20.769 36.959C20.6228 37.5438 18.1813 40.687 17.8889 40.9794H17.6696ZM18.481 32.7924L17.5892 36.0087C17.6101 37.308 17.7348 38.6035 17.962 39.8829C18.7734 38.8595 20.1038 37.0321 20.2573 36.7397L21.1418 33.5234L18.481 32.7924Z" fill="#313131"/>
<path d="M27.5745 16.857C27.4714 16.8679 27.3678 16.842 27.2821 16.7838C26.9974 16.681 26.7452 16.5044 26.5511 16.2722C26.3971 16.0073 26.3451 15.6954 26.4049 15.395C26.4897 15.0994 26.6728 14.8416 26.9239 14.664C27.1917 14.5108 27.5056 14.4589 27.8084 14.5178C28.0321 14.5765 28.2327 14.7019 28.3835 14.8772C28.5343 15.0526 28.6282 15.2696 28.6528 15.4996C28.6774 15.7295 28.6315 15.9616 28.5211 16.1648C28.4108 16.3681 28.2412 16.533 28.035 16.6377C27.9826 16.7098 27.9131 16.7676 27.8326 16.8059C27.7522 16.8442 27.6634 16.8617 27.5745 16.857ZM27.5014 15.1757C27.4617 15.1709 27.4214 15.175 27.3835 15.1876C27.3456 15.2003 27.311 15.2212 27.2821 15.2488C27.1286 15.3219 27.0555 15.395 27.0555 15.5412C27.0364 15.6678 27.0623 15.7971 27.1286 15.9067C27.209 16.0529 27.2821 16.126 27.4283 16.126C27.5549 16.145 27.6842 16.1192 27.7938 16.0529C27.9473 15.9798 28.0204 15.9067 28.0204 15.7605C28.0401 15.6974 28.0459 15.6308 28.0372 15.5653C28.0285 15.4998 28.0056 15.437 27.9701 15.3813C27.9345 15.3256 27.8873 15.2783 27.8316 15.2428C27.7759 15.2073 27.7131 15.1844 27.6476 15.1757H27.5014Z" fill="#313131"/>
<path d="M21.6608 15.2489C21.5555 15.2597 21.4496 15.2339 21.3611 15.1758C21.2057 15.1335 21.0607 15.0598 20.935 14.9592C20.8092 14.8586 20.7055 14.7333 20.6301 14.591C20.5475 14.4617 20.4977 14.3143 20.4849 14.1614C20.4722 14.0086 20.497 13.8549 20.557 13.7138C20.6439 13.4258 20.8377 13.182 21.0988 13.0324C21.3598 12.8829 21.6681 12.839 21.9605 12.9097C22.2491 12.992 22.495 13.182 22.6474 13.4406C22.7998 13.6991 22.847 14.0062 22.7792 14.2986C22.7532 14.5714 22.6218 14.8233 22.4129 15.0008C22.2041 15.1782 21.9343 15.2672 21.6608 15.2489ZM21.6608 13.6407C21.5709 13.6287 21.4794 13.6431 21.3974 13.6822C21.3155 13.7212 21.2468 13.7833 21.1995 13.8608C21.1522 13.9383 21.1285 14.0278 21.1313 14.1185C21.134 14.2092 21.1631 14.2972 21.2149 14.3717C21.288 14.5179 21.3611 14.591 21.5146 14.591C21.5776 14.6107 21.6441 14.6166 21.7095 14.6084C21.775 14.6002 21.8379 14.578 21.8941 14.5434C21.9502 14.5087 21.9983 14.4624 22.035 14.4075C22.0716 14.3527 22.0961 14.2906 22.1067 14.2255C22.1265 14.1624 22.1322 14.0958 22.1235 14.0304C22.1148 13.9649 22.0919 13.902 22.0564 13.8463C22.0209 13.7906 21.9736 13.7433 21.9179 13.7078C21.8622 13.6723 21.7994 13.6494 21.7339 13.6407H21.6608Z" fill="#313131"/>
<path d="M27.5745 22.4857H27.5014C27.4159 22.4542 27.3456 22.3912 27.3049 22.3098C27.2642 22.2283 27.256 22.1344 27.2821 22.0471L28.0131 19.4155C28.0446 19.3284 28.1087 19.2569 28.1918 19.216C28.275 19.1751 28.3707 19.168 28.459 19.1962C28.5444 19.2277 28.6147 19.2906 28.6554 19.3721C28.6962 19.4536 28.7043 19.5475 28.6783 19.6348L27.9473 22.2664C27.7938 22.3395 27.7207 22.4857 27.5745 22.4857Z" fill="#313131"/>
<path d="M26.2441 22.1199H26.1856C26.099 22.0899 26.0276 22.0273 25.9866 21.9453C25.9456 21.8634 25.9384 21.7686 25.9663 21.6813L26.6973 19.0498C26.7304 18.9668 26.794 18.8997 26.8749 18.862C26.9559 18.8242 27.0482 18.8188 27.133 18.8467C27.2178 18.8747 27.2888 18.934 27.3314 19.0124C27.3741 19.0909 27.3852 19.1827 27.3625 19.2691L26.6315 21.9006C26.5365 21.9737 26.3903 22.1199 26.2441 22.1199Z" fill="#313131"/>
<path d="M39.5553 39.1521C39.4091 39.1521 39.336 39.079 39.2556 38.9329C39.1752 38.7867 37.8521 35.7896 40.6664 32.2078C41.125 31.6872 41.4408 31.0566 41.583 30.3776C41.7252 29.6986 41.689 28.9944 41.4778 28.3335C40.9588 26.9447 39.7746 25.8482 39.1094 25.702C38.5247 25.5624 37.9092 25.6414 37.3787 25.9241C36.8482 26.2069 36.4395 26.6738 36.2294 27.2371L34.1533 34.9855C33.9579 35.694 33.4925 36.2975 32.8569 36.6666C32.2213 37.0356 31.4664 37.1407 30.7543 36.9592C30.0347 36.7671 29.4207 36.2976 29.0466 35.6536C28.6726 35.0097 28.569 34.2437 28.7587 33.5235L30.8274 25.7751C30.9407 25.1841 30.8298 24.5721 30.5162 24.0585C30.2026 23.5448 29.7089 23.1665 29.1315 22.9973C28.8318 22.9973 28.7587 22.778 28.8317 22.6318C28.8633 22.5447 28.9273 22.4732 29.0105 22.4323C29.0936 22.3914 29.1894 22.3843 29.2777 22.4125C30.0224 22.6312 30.6592 23.1189 31.0645 23.7808C31.4697 24.4427 31.6145 25.2317 31.4706 25.9944L29.2777 33.7428C29.1395 34.2852 29.214 34.8599 29.4858 35.3491C29.7576 35.8383 30.2062 36.2052 30.7396 36.3744C31.2958 36.518 31.8862 36.4376 32.3837 36.1506C32.8813 35.8635 33.2463 35.3927 33.4004 34.8393L35.4764 27.0908C35.7349 26.3572 36.2533 25.7438 36.9336 25.3666C37.6138 24.9895 38.4088 24.8747 39.1679 25.0441C39.8341 25.3171 40.4318 25.7339 40.9182 26.2646C41.4047 26.7953 41.768 27.4269 41.9822 28.1142C42.2436 28.8816 42.2988 29.7041 42.1423 30.4995C41.9858 31.2949 41.623 32.0352 41.0904 32.6464C38.5027 35.9358 39.6869 38.5673 39.76 38.7135C39.7929 38.792 39.7963 38.8797 39.7694 38.9603C39.7425 39.041 39.6872 39.1092 39.6138 39.1521H39.5553Z" fill="#313131"/>
<path d="M22.1067 26.3599H22.0263L17.5161 25.1903C17.4307 25.1588 17.3604 25.0959 17.3197 25.0144C17.2789 24.9329 17.2708 24.839 17.2968 24.7517C17.3284 24.6646 17.3924 24.593 17.4756 24.5522C17.5587 24.5113 17.6545 24.5042 17.7427 24.5324L22.2529 25.702C22.3384 25.7335 22.4087 25.7964 22.4494 25.8779C22.4901 25.9593 22.4983 26.0533 22.4722 26.1406C22.438 26.2077 22.3856 26.2639 22.3209 26.3026C22.2563 26.3414 22.1821 26.3612 22.1067 26.3599Z" fill="#313131"/>
<path d="M21.7997 27.5295H21.7266L17.2164 26.3599C17.1298 26.3299 17.0584 26.2672 17.0174 26.1853C16.9764 26.1033 16.9691 26.0086 16.9971 25.9213C17.0286 25.8358 17.0915 25.7656 17.173 25.7248C17.2544 25.6841 17.3484 25.6759 17.4357 25.702L21.9459 26.8716C22.0338 26.9001 22.1069 26.9622 22.1493 27.0443C22.1918 27.1264 22.2001 27.222 22.1725 27.3102C22.0772 27.4241 21.9455 27.5016 21.7997 27.5295Z" fill="#313131"/>
<path d="M22.1067 33.7428H22.0263L17.5161 32.5732C17.443 32.5732 17.3699 32.5001 17.2968 32.427C17.2801 32.414 17.2666 32.3974 17.2573 32.3784C17.248 32.3594 17.2432 32.3385 17.2432 32.3174C17.2432 32.2962 17.248 32.2753 17.2573 32.2563C17.2666 32.2373 17.2801 32.2207 17.2968 32.2077L18.2617 28.6259C18.2932 28.5404 18.3561 28.4702 18.4376 28.4294C18.5191 28.3887 18.613 28.3805 18.7003 28.4066L23.2105 29.5762C23.2836 29.5762 23.364 29.6493 23.4371 29.7224C23.4538 29.7353 23.4673 29.752 23.4766 29.771C23.4859 29.79 23.4907 29.8108 23.4907 29.832C23.4907 29.8532 23.4859 29.874 23.4766 29.893C23.4673 29.912 23.4538 29.9287 23.4371 29.9416L22.4722 33.5235C22.326 33.5966 22.2529 33.7428 22.1067 33.7428ZM17.962 31.9884L21.7997 33.0118L22.6111 30.0879L18.7661 29.0645L17.962 31.9884Z" fill="#313131"/>
<path d="M28.1666 13.2751H28.0935L22.5307 11.8131C22.4576 11.8131 22.3845 11.74 22.3114 11.6669L18.6126 5.67283C18.5764 5.61874 18.5571 5.55514 18.5571 5.49009C18.5571 5.42503 18.5764 5.36143 18.6126 5.30734C18.7147 5.21455 18.8474 5.16252 18.9854 5.16113L23.3713 6.33072C23.4444 6.33072 23.5175 6.40383 23.5906 6.47692C23.6182 6.5058 23.6391 6.54044 23.6517 6.57836C23.6644 6.61628 23.6685 6.65653 23.6637 6.69621L29.7236 8.30439C29.7271 8.26555 29.7446 8.22932 29.7728 8.20242C29.8011 8.17553 29.8381 8.1598 29.8771 8.15819C29.8901 8.14149 29.9067 8.12798 29.9257 8.11868C29.9447 8.10938 29.9656 8.10454 29.9867 8.10454C30.0079 8.10454 30.0288 8.10938 30.0478 8.11868C30.0668 8.12798 30.0834 8.14149 30.0964 8.15819L34.4823 9.32777C34.6285 9.32777 34.7016 9.47396 34.7016 9.62016C34.7016 9.76636 34.6285 9.91255 34.5554 9.91255L28.342 13.2751H28.1666ZM22.845 11.2283L28.1666 12.6172L33.5686 9.69326L30.3084 8.81607C30.3084 8.88917 30.2353 8.96228 30.1622 9.03538C30.1492 9.05208 30.1326 9.06559 30.1136 9.07489C30.0945 9.08418 30.0737 9.08901 30.0525 9.08901C30.0314 9.08901 30.0105 9.08418 29.9915 9.07489C29.9725 9.06559 29.9559 9.05208 29.9429 9.03538L23.2105 7.28099C23.1374 7.28099 23.0643 7.20791 22.9912 7.13481C22.9636 7.10593 22.9427 7.07127 22.93 7.03335C22.9174 6.99543 22.9133 6.95518 22.9181 6.9155L19.6652 6.03833L22.845 11.2283Z" fill="#313131"/>
<path d="M26.3172 12.8366H26.2441L24.3947 12.3249C24.3216 12.3249 24.2485 12.2518 24.1754 12.1787L21.6608 7.71969C21.6246 7.66559 21.6053 7.602 21.6053 7.53694C21.6053 7.47188 21.6246 7.40829 21.6608 7.35419C21.7607 7.26248 21.8907 7.2105 22.0263 7.20801L30.7543 9.54715C30.9005 9.54715 30.9736 9.69335 30.9736 9.83955C30.9736 9.98574 30.9005 10.132 30.8274 10.132L26.3903 12.7635C26.4634 12.7635 26.3903 12.8366 26.3172 12.8366ZM24.7236 11.7401L26.2733 12.1787L29.9283 9.98575L22.6769 8.08518L24.7236 11.7401Z" fill="#313131"/>
<path d="M29.9429 9.03542H29.8405L23.1081 7.28103C23.035 7.28103 22.9619 7.20795 22.8888 7.13485C22.8721 7.12186 22.8586 7.10524 22.8493 7.08624C22.84 7.06724 22.8352 7.04636 22.8352 7.0252C22.8352 7.00405 22.84 6.98317 22.8493 6.96417C22.8586 6.94517 22.8721 6.92852 22.8888 6.91554L23.3347 5.23428C23.3663 5.1488 23.4292 5.07855 23.5106 5.03781C23.5921 4.99707 23.686 4.98891 23.7733 5.01499L30.5057 6.76935C30.5912 6.80087 30.6615 6.86375 30.7022 6.94523C30.7429 7.02671 30.7511 7.12067 30.725 7.20795L30.2791 8.88921C30.2791 8.96231 30.206 9.0354 30.1329 9.1085C30.0815 9.06031 30.0133 9.0341 29.9429 9.03542ZM23.6564 6.69625L29.7163 8.30443L30.016 7.28103L23.9488 5.67287L23.6564 6.69625Z" fill="#313131"/>
<path d="M17.2968 44.5613C17.2572 44.5661 17.2169 44.562 17.179 44.5494C17.1411 44.5368 17.1064 44.5159 17.0775 44.4882L14.7822 42.1491L14.7092 42.076L13.5249 39.883L9.13902 39.2251L9.58493 40.7602V42.3684C9.58493 42.4415 9.51183 42.5146 9.51183 42.5877C9.48184 42.6159 9.44595 42.6371 9.40676 42.6497C9.36757 42.6624 9.32606 42.6662 9.28523 42.6608L5.29403 42.4415C5.20736 42.4305 5.12838 42.3862 5.07381 42.318C5.01923 42.2497 4.99335 42.1629 5.00164 42.076C4.99831 42.0367 5.00357 41.9973 5.01709 41.9603C5.0306 41.9233 5.05204 41.8897 5.07989 41.8618C5.10773 41.834 5.14132 41.8126 5.17831 41.799C5.2153 41.7855 5.25479 41.7803 5.29403 41.7836L8.94897 42.0029L9.02207 40.9064L8.42997 38.9327C8.41904 38.8297 8.44493 38.7261 8.50307 38.6403C8.58617 38.5628 8.69054 38.5119 8.80277 38.4941L13.832 39.2251C13.9051 39.2251 14.0513 39.2982 14.0513 39.3713L15.2355 41.7105L17.4284 43.9765C17.5746 44.1227 17.5746 44.342 17.4284 44.4151C17.4138 44.5613 17.3699 44.5613 17.2968 44.5613Z" fill="#313131"/>
<path d="M30.8274 45C30.6812 45 30.6081 44.9269 30.535 44.7807C30.5077 44.7197 30.5001 44.6518 30.5132 44.5863C30.5263 44.5208 30.5595 44.461 30.6081 44.4152L32.3113 42.5877L32.2309 39.8831L28.5394 39.0059L27.9473 41.2719C27.9473 41.4181 27.7938 41.4913 27.6476 41.4913C27.5014 41.4913 27.3552 41.4182 27.3552 41.3451L25.8932 38.6404L22.8669 39.0059L22.94 41.4182C22.9448 41.4578 22.9407 41.4981 22.9281 41.536C22.9155 41.5739 22.8946 41.6086 22.8669 41.6374C22.8367 41.6652 22.8007 41.6862 22.7616 41.6988C22.7225 41.7114 22.6811 41.7154 22.6403 41.7105L21.3099 41.6374L20.7909 44.269C20.7909 44.4152 20.5716 44.5614 20.4254 44.5614C20.2792 44.5614 20.1257 44.3421 20.1257 44.1959L20.6447 41.2719C20.6557 41.1839 20.7011 41.1037 20.7709 41.049C20.8407 40.9942 20.9294 40.9692 21.0175 40.9796L22.2017 41.0527L22.1286 38.7135C22.1423 38.6328 22.1764 38.5569 22.2275 38.4929C22.2787 38.429 22.3453 38.3791 22.421 38.348L25.9736 37.9094C26.1198 37.9094 26.266 37.9825 26.266 38.0556L27.4502 40.2486L27.8961 38.4942C27.9692 38.348 28.1154 38.2018 28.2616 38.2749L32.5525 39.2983C32.6987 39.2983 32.7718 39.4445 32.7718 39.5907L32.8449 42.6608C32.8497 42.7005 32.8456 42.7408 32.833 42.7787C32.8203 42.8166 32.7994 42.8512 32.7718 42.8801L31.5145 44.269L34.0291 44.1959L34.1022 41.7836C34.1022 41.6375 34.1753 41.4913 34.3288 41.4913C34.3898 41.464 34.4577 41.4564 34.5232 41.4695C34.5887 41.4826 34.6485 41.5157 34.6943 41.5644L36.6168 43.9035C36.6466 43.9347 36.6688 43.9724 36.6815 44.0137C36.6942 44.0549 36.6971 44.0985 36.69 44.1411C36.6829 44.1837 36.666 44.224 36.6406 44.2589C36.6152 44.2938 36.582 44.3223 36.5437 44.3421C36.5118 44.3719 36.4735 44.3941 36.4318 44.4068C36.39 44.4194 36.3459 44.4224 36.3028 44.4153C36.2597 44.4082 36.2188 44.3914 36.1833 44.366C36.1477 44.3407 36.1185 44.3075 36.0978 44.269L34.7674 42.7339L34.8405 44.5614C34.8405 44.7076 34.6943 44.9269 34.5481 44.9269L30.8493 45H30.8274Z" fill="#313131"/>
</svg>
