<svg width="51" height="50" viewBox="0 0 51 50" fill="none" xmlns="http://www.w3.org/2000/svg">
<rect width="50" height="50" transform="translate(0.229248)" fill="#F1F3FF"/>
<path d="M40.4941 44.9983H9.8918C9.81556 44.9934 9.74357 44.9614 9.68888 44.9081C9.6342 44.8547 9.60042 44.7836 9.59363 44.7075V26.3082C9.60042 26.2321 9.6342 26.161 9.68888 26.1076C9.74357 26.0543 9.81556 26.0222 9.8918 26.0173H40.5669C40.6431 26.0222 40.7151 26.0543 40.7698 26.1076C40.8244 26.161 40.8582 26.2321 40.865 26.3082V44.7075C40.8524 44.7943 40.8068 44.8729 40.7378 44.9271C40.6687 44.9812 40.5815 45.0067 40.4941 44.9983ZM10.1827 44.3438H40.2032V26.6718H10.1827V44.3438Z" fill="#313131"/>
<path d="M17.3242 44.9984H9.8918C9.81556 44.9935 9.74357 44.9615 9.68888 44.9081C9.6342 44.8548 9.60042 44.7836 9.59363 44.7075V16.9269C9.60042 16.8508 9.6342 16.7796 9.68888 16.7263C9.74357 16.6729 9.81556 16.6409 9.8918 16.636H17.3242C17.3997 16.6411 17.4707 16.6734 17.5242 16.7269C17.5777 16.7804 17.61 16.8514 17.6151 16.9269V44.7075C17.61 44.783 17.5777 44.8541 17.5242 44.9076C17.4707 44.961 17.3997 44.9933 17.3242 44.9984ZM10.1827 44.3439H16.9533V17.2905H10.1827V44.3439Z" fill="#313131"/>
<path d="M17.3242 17.2905H9.8918C9.81556 17.2856 9.74357 17.2535 9.68888 17.2002C9.6342 17.1468 9.60042 17.0757 9.59363 16.9996V15.036C9.60042 14.9599 9.6342 14.8888 9.68888 14.8354C9.74357 14.782 9.81556 14.75 9.8918 14.7451H17.3242C17.3997 14.7502 17.4707 14.7825 17.5242 14.836C17.5777 14.8895 17.61 14.9605 17.6151 15.036V16.9996C17.61 17.075 17.5777 17.1461 17.5242 17.1996C17.4707 17.2531 17.3997 17.2854 17.3242 17.2905ZM10.1827 16.6359H16.9533V15.3269H10.1827V16.6359Z" fill="#313131"/>
<path d="M15.557 15.3269H11.659C11.5823 15.3235 11.5094 15.292 11.4544 15.2383C11.3994 15.1846 11.3661 15.1126 11.3608 15.036V13.1452C11.3661 13.0685 11.3994 12.9965 11.4544 12.9428C11.5094 12.8892 11.5823 12.8576 11.659 12.8542H15.557C15.6325 12.8594 15.7036 12.8916 15.7571 12.9451C15.8105 12.9986 15.8428 13.0697 15.8479 13.1452V15.036C15.8428 15.1114 15.8105 15.1825 15.7571 15.236C15.7036 15.2895 15.6325 15.3218 15.557 15.3269ZM11.9208 14.6724H15.157V13.436H11.9208V14.6724Z" fill="#313131"/>
<path d="M40.4941 44.9984H9.8918C9.81556 44.9935 9.74357 44.9615 9.68888 44.9081C9.6342 44.8548 9.60042 44.7836 9.59363 44.7075V41.3622C9.60042 41.2861 9.6342 41.2149 9.68888 41.1616C9.74357 41.1082 9.81556 41.0762 9.8918 41.0713H40.5669C40.6431 41.0762 40.7151 41.1082 40.7698 41.1616C40.8244 41.2149 40.8582 41.2861 40.865 41.3622V44.7075C40.8524 44.7943 40.8068 44.873 40.7378 44.9271C40.6687 44.9813 40.5815 45.0068 40.4941 44.9984ZM10.1827 44.3439H40.2032V41.6531H10.1827V44.3439Z" fill="#313131"/>
<path d="M21.4404 40.1986H18.7205C18.6443 40.1937 18.5723 40.1617 18.5176 40.1083C18.463 40.055 18.4292 39.9838 18.4224 39.9077V30.0172C18.4292 29.9411 18.463 29.87 18.5176 29.8166C18.5723 29.7633 18.6443 29.7312 18.7205 29.7263H21.4404C21.5167 29.7312 21.5886 29.7633 21.6433 29.8166C21.698 29.87 21.7318 29.9411 21.7386 30.0172V39.9077C21.8113 40.0532 21.6586 40.1986 21.4404 40.1986ZM19.0114 39.5441H21.0695V30.3081H19.0405L19.0114 39.5441Z" fill="#313131"/>
<path d="M21.4404 38.5988H18.7205C18.6443 38.5939 18.5723 38.5619 18.5176 38.5085C18.463 38.4552 18.4292 38.384 18.4224 38.3079V31.6173C18.4292 31.5412 18.463 31.4701 18.5176 31.4167C18.5723 31.3633 18.6443 31.3313 18.7205 31.3264H21.4404C21.5167 31.3313 21.5886 31.3633 21.6433 31.4167C21.698 31.4701 21.7318 31.5412 21.7386 31.6173V38.3079C21.8113 38.4534 21.6586 38.5988 21.4404 38.5988ZM19.0114 37.9443H21.0695V31.9082H19.0405L19.0114 37.9443Z" fill="#313131"/>
<path d="M25.9274 40.1986H23.2075C23.1312 40.1937 23.0592 40.1617 23.0046 40.1083C22.9499 40.055 22.9161 39.9838 22.9093 39.9077V30.0172C22.9161 29.9411 22.9499 29.87 23.0046 29.8166C23.0592 29.7633 23.1312 29.7312 23.2075 29.7263H25.9274C26.0036 29.7312 26.0756 29.7633 26.1302 29.8166C26.1849 29.87 26.2187 29.9411 26.2255 30.0172V39.9077C26.2187 39.9838 26.1849 40.055 26.1302 40.1083C26.0756 40.1617 26.0036 40.1937 25.9274 40.1986ZM23.4984 39.5441H25.5855V30.3081H23.5202L23.4984 39.5441Z" fill="#313131"/>
<path d="M25.9274 38.5988H23.2075C23.1312 38.5939 23.0592 38.5619 23.0046 38.5085C22.9499 38.4552 22.9161 38.384 22.9093 38.3079V31.6173C22.9161 31.5412 22.9499 31.4701 23.0046 31.4167C23.0592 31.3633 23.1312 31.3313 23.2075 31.3264H25.9274C26.0036 31.3313 26.0756 31.3633 26.1302 31.4167C26.1849 31.4701 26.2187 31.5412 26.2255 31.6173V38.3079C26.2187 38.384 26.1849 38.4552 26.1302 38.5085C26.0756 38.5619 26.0036 38.5939 25.9274 38.5988ZM23.4984 37.9443H25.5855V31.9082H23.5202L23.4984 37.9443Z" fill="#313131"/>
<path d="M30.3419 40.1986H27.5493C27.473 40.1937 27.401 40.1617 27.3464 40.1083C27.2917 40.055 27.2579 39.9838 27.2511 39.9077V30.0172C27.2579 29.9411 27.2917 29.87 27.3464 29.8166C27.401 29.7633 27.473 29.7312 27.5493 29.7263H30.3419C30.4181 29.7312 30.4901 29.7633 30.5448 29.8166C30.5995 29.87 30.6333 29.9411 30.64 30.0172V39.9077C30.7128 40.0532 30.56 40.1986 30.3419 40.1986ZM27.9129 39.5441H30.051V30.3081H27.9129V39.5441Z" fill="#313131"/>
<path d="M30.3419 38.5988H27.5493C27.473 38.5939 27.401 38.5619 27.3464 38.5085C27.2917 38.4552 27.2579 38.384 27.2511 38.3079V31.6173C27.2579 31.5412 27.2917 31.4701 27.3464 31.4167C27.401 31.3633 27.473 31.3313 27.5493 31.3264H30.3419C30.4181 31.3313 30.4901 31.3633 30.5448 31.4167C30.5995 31.4701 30.6333 31.5412 30.64 31.6173V38.3079C30.7128 38.4534 30.56 38.5988 30.3419 38.5988ZM27.9129 37.9443H30.051V31.9082H27.9129V37.9443Z" fill="#313131"/>
<path d="M34.8288 40.1986H32.0362C31.96 40.1937 31.888 40.1617 31.8333 40.1083C31.7786 40.055 31.7448 39.9838 31.738 39.9077V30.0172C31.7448 29.9411 31.7786 29.87 31.8333 29.8166C31.888 29.7633 31.96 29.7312 32.0362 29.7263H34.8288C34.9051 29.7312 34.977 29.7633 35.0317 29.8166C35.0864 29.87 35.1202 29.9411 35.127 30.0172V39.9077C35.1202 39.9838 35.0864 40.055 35.0317 40.1083C34.977 40.1617 34.9051 40.1937 34.8288 40.1986ZM32.3998 39.5441H34.5379V30.3081H32.3998V39.5441Z" fill="#313131"/>
<path d="M34.8288 38.5988H32.0362C31.96 38.5939 31.888 38.5619 31.8333 38.5085C31.7786 38.4552 31.7448 38.384 31.738 38.3079V31.6173C31.7448 31.5412 31.7786 31.4701 31.8333 31.4167C31.888 31.3633 31.96 31.3313 32.0362 31.3264H34.8288C34.9051 31.3313 34.977 31.3633 35.0317 31.4167C35.0864 31.4701 35.1202 31.5412 35.127 31.6173V38.3079C35.1202 38.384 35.0864 38.4552 35.0317 38.5085C34.977 38.5619 34.9051 38.5939 34.8288 38.5988ZM32.3998 37.9443H34.5379V31.9082H32.3998V37.9443Z" fill="#313131"/>
<path d="M39.2432 40.1986H36.4942C36.418 40.1937 36.346 40.1617 36.2913 40.1083C36.2366 40.055 36.2028 39.9838 36.196 39.9077V30.0172C36.2028 29.9411 36.2366 29.87 36.2913 29.8166C36.346 29.7633 36.418 29.7312 36.4942 29.7263H39.2141C39.2903 29.7312 39.3623 29.7633 39.417 29.8166C39.4717 29.87 39.5055 29.9411 39.5123 30.0172V39.9077C39.6141 40.0532 39.4614 40.1986 39.2432 40.1986ZM36.8142 39.5441H38.9523V30.3081H36.8142V39.5441Z" fill="#313131"/>
<path d="M39.2432 38.5988H36.4942C36.418 38.5939 36.346 38.5619 36.2913 38.5085C36.2366 38.4552 36.2028 38.384 36.196 38.3079V31.6173C36.2028 31.5412 36.2366 31.4701 36.2913 31.4167C36.346 31.3633 36.418 31.3313 36.4942 31.3264H39.2141C39.2903 31.3313 39.3623 31.3633 39.417 31.4167C39.4717 31.4701 39.5055 31.5412 39.5123 31.6173V38.3079C39.6141 38.4534 39.4614 38.5988 39.2432 38.5988ZM36.8142 37.9443H38.9523V31.9082H36.8142V37.9443Z" fill="#313131"/>
<path d="M13.8625 12.4907C13.4382 12.4907 13.0312 12.3222 12.7312 12.0221C12.4311 11.7221 12.2626 11.3151 12.2626 10.8908C12.2626 10.4665 12.4311 10.0595 12.7312 9.75946C13.0312 9.45942 13.4382 9.29086 13.8625 9.29086H14.0079V9.21813C14.0263 8.67688 14.237 8.15989 14.6022 7.76001C14.9674 7.36014 15.4632 7.10357 16.0006 7.0364H16.146V6.96368C16.146 6.70398 16.1975 6.44685 16.2976 6.20719C16.3976 5.96753 16.5442 5.75009 16.7288 5.56747C16.9135 5.38485 17.1326 5.24067 17.3733 5.14328C17.6141 5.0459 17.8717 4.99724 18.1314 5.00012C18.5561 4.99558 18.971 5.12735 19.3153 5.37605C19.6595 5.62475 19.915 5.97729 20.0441 6.38189H20.495C20.601 6.05875 20.808 5.77825 21.0857 5.58182C21.3633 5.38539 21.6967 5.28344 22.0367 5.29102C22.461 5.29102 22.868 5.45959 23.168 5.75963C23.4681 6.05968 23.6366 6.46663 23.6366 6.89095C23.6366 7.31528 23.4681 7.72223 23.168 8.02228C22.868 8.32232 22.461 8.49089 22.0367 8.49089H21.8185C21.7636 8.68299 21.6611 8.8581 21.5204 8.99995V9.07268C21.5147 9.49775 21.3423 9.90357 21.0403 10.2028C20.7384 10.502 20.331 10.6707 19.9059 10.6726H19.6805C19.5745 10.9958 19.3674 11.2763 19.0897 11.4727C18.8121 11.6691 18.4787 11.7711 18.1387 11.7635C17.876 11.7569 17.6187 11.6874 17.3884 11.5609C17.1581 11.4343 16.9615 11.2544 16.8151 11.0362C16.3768 11.241 15.876 11.2671 15.4188 11.109C15.3712 11.4889 15.187 11.8385 14.9007 12.0927C14.6144 12.347 14.2454 12.4884 13.8625 12.4907ZM13.8625 10.0181C13.6762 10.021 13.4948 10.0788 13.3413 10.1845C13.1877 10.2901 13.0688 10.4387 12.9995 10.6117C12.9302 10.7847 12.9135 10.9743 12.9516 11.1567C12.9897 11.3391 13.0809 11.5062 13.2137 11.637C13.3464 11.7678 13.5149 11.8564 13.6979 11.8917C13.8809 11.927 14.0702 11.9074 14.2421 11.8355C14.414 11.7635 14.5608 11.6423 14.6641 11.4872C14.7673 11.3321 14.8225 11.1499 14.8225 10.9635V10.8181C14.8225 10.6726 14.8225 10.5272 14.9679 10.4544C15.0228 10.4179 15.0874 10.3983 15.1534 10.3983C15.2194 10.3983 15.2839 10.4179 15.3388 10.4544C15.5567 10.5922 15.8083 10.6677 16.0661 10.6726C16.3251 10.676 16.5789 10.5999 16.7933 10.4544C16.8786 10.3966 16.9817 10.3708 17.0842 10.3817C17.1569 10.3817 17.2369 10.4544 17.3096 10.5999C17.3954 10.7934 17.5427 10.9532 17.7286 11.0544C17.9146 11.1555 18.1288 11.1924 18.3378 11.1592C18.5469 11.126 18.7391 11.0246 18.8846 10.8709C19.0301 10.7171 19.1207 10.5196 19.1423 10.309C19.1634 10.1991 19.2165 10.0979 19.295 10.0181C19.335 9.98232 19.3868 9.96254 19.4404 9.96254C19.4941 9.96254 19.5459 9.98232 19.5859 10.0181C19.6976 10.084 19.8285 10.1097 19.9568 10.0908C20.2071 10.0871 20.4462 9.98655 20.6238 9.81024C20.8015 9.63394 20.9039 9.39564 20.9095 9.14541V8.99995C20.9095 8.8545 20.9095 8.78178 20.9822 8.70906C21.0742 8.62626 21.1481 8.52542 21.1994 8.41282C21.2507 8.30022 21.2782 8.17826 21.2804 8.05455C21.2986 7.94519 21.3493 7.84383 21.4258 7.76364C21.4677 7.72874 21.5204 7.70962 21.5749 7.70962C21.6294 7.70962 21.6822 7.72874 21.724 7.76364C21.833 7.82961 21.9616 7.85534 22.0876 7.83637C22.3384 7.83637 22.5788 7.73676 22.7561 7.55946C22.9334 7.38216 23.033 7.14169 23.033 6.89095C23.033 6.64022 22.9334 6.39975 22.7561 6.22245C22.5788 6.04515 22.3384 5.94554 22.0876 5.94554C21.8482 5.94469 21.6173 6.03401 21.4407 6.19572C21.2642 6.35742 21.155 6.57967 21.1349 6.81823C21.1138 6.92813 21.0607 7.02935 20.9822 7.10913C20.9422 7.14491 20.8904 7.16468 20.8368 7.16468C20.7831 7.16468 20.7313 7.14491 20.6913 7.10913C20.5751 7.05614 20.4481 7.03123 20.3204 7.0364C20.1952 7.03155 20.0706 7.05648 19.9568 7.10913H19.6586C19.5859 7.03641 19.5132 6.96368 19.5132 6.89095C19.4709 6.5696 19.3134 6.27451 19.07 6.0605C18.8266 5.8465 18.5137 5.72812 18.1896 5.72736C18.0165 5.72544 17.8447 5.75788 17.6842 5.82281C17.5237 5.88773 17.3777 5.98385 17.2546 6.1056C17.1315 6.22735 17.0337 6.3723 16.967 6.53207C16.9003 6.69185 16.866 6.86327 16.866 7.0364C16.8546 7.18559 16.8795 7.33534 16.9387 7.47275C16.9659 7.53341 16.9734 7.60101 16.9604 7.66617C16.9474 7.73133 16.9144 7.79082 16.866 7.83637C16.7546 7.90286 16.6235 7.92856 16.4951 7.90909C16.3577 7.84986 16.208 7.82491 16.0588 7.83637C15.699 7.90597 15.373 8.09431 15.133 8.37122C14.893 8.64813 14.753 8.99757 14.7352 9.36357C14.7162 9.48955 14.742 9.6182 14.8079 9.72719C14.8351 9.78785 14.8426 9.85545 14.8296 9.92061C14.8166 9.98577 14.7836 10.0453 14.7352 10.0908C14.6233 10.1562 14.4926 10.1818 14.3643 10.1635C14.2046 10.0921 14.0357 10.0431 13.8625 10.0181Z" fill="#313131"/>
<path d="M11.2153 41.6532C11.139 41.6483 11.0671 41.6163 11.0124 41.5629C10.9577 41.5096 10.9239 41.4384 10.9171 41.3623V27.9811C10.9239 27.905 10.9577 27.8338 11.0124 27.7805C11.0671 27.7271 11.139 27.6951 11.2153 27.6902C11.2908 27.6953 11.3618 27.7276 11.4153 27.7811C11.4688 27.8345 11.5011 27.9056 11.5062 27.9811V41.2896C11.5145 41.3761 11.4887 41.4625 11.4344 41.5303C11.3801 41.5982 11.3015 41.6423 11.2153 41.6532Z" fill="#313131"/>
<path d="M12.4953 41.6532C12.4191 41.6483 12.3471 41.6163 12.2924 41.5629C12.2377 41.5096 12.2039 41.4384 12.1971 41.3623V27.9811C12.2039 27.905 12.2377 27.8338 12.2924 27.7805C12.3471 27.7271 12.4191 27.6951 12.4953 27.6902C12.5708 27.6953 12.6418 27.7276 12.6953 27.7811C12.7488 27.8345 12.7811 27.9056 12.7862 27.9811V41.2896C12.7945 41.3761 12.7687 41.4625 12.7144 41.5303C12.6601 41.5982 12.5815 41.6423 12.4953 41.6532Z" fill="#313131"/>
<path d="M40.4942 43.0349H19.4551C19.3779 43.0349 19.3039 43.0043 19.2494 42.9497C19.1948 42.8952 19.1642 42.8212 19.1642 42.744C19.1642 42.6669 19.1948 42.5929 19.2494 42.5383C19.3039 42.4838 19.3779 42.4531 19.4551 42.4531H40.4942C40.5704 42.458 40.6424 42.4901 40.6971 42.5434C40.7518 42.5968 40.7856 42.6679 40.7924 42.744C40.7958 42.7837 40.7905 42.8237 40.7766 42.8611C40.7627 42.8985 40.7407 42.9323 40.7122 42.9601C40.6837 42.988 40.6493 43.0091 40.6116 43.0221C40.5739 43.035 40.5338 43.0394 40.4942 43.0349Z" fill="#313131"/>
<path d="M34.9016 26.6719H20.4949C20.4182 26.6685 20.3454 26.6369 20.2904 26.5833C20.2354 26.5296 20.2021 26.4576 20.1968 26.381V21.9448C20.1968 21.7993 20.2695 21.6539 20.415 21.6539L25.862 20.054V18.3086C25.862 18.1631 25.9347 18.0177 26.0802 18.0177L34.7634 14.7451C34.8682 14.7349 34.9733 14.7606 35.0616 14.8178C35.106 14.8524 35.142 14.8965 35.1672 14.9468C35.1924 14.9972 35.206 15.0525 35.2071 15.1087V26.381C35.2016 26.4588 35.1673 26.5318 35.1108 26.5857C35.0542 26.6395 34.9796 26.6702 34.9016 26.6719ZM20.8513 26.0173H34.538V15.5451L26.4438 18.3813V20.1267C26.4438 20.2721 26.3711 20.4176 26.2256 20.4176L20.7786 22.0175V26.0173H20.8513Z" fill="#313131"/>
<path d="M33.4326 20.9268H31.0763C31.0008 20.9217 30.9298 20.8894 30.8763 20.836C30.8228 20.7825 30.7905 20.7114 30.7854 20.6359V19.6178C30.7905 19.5423 30.8228 19.4713 30.8763 19.4178C30.9298 19.3643 31.0008 19.332 31.0763 19.3269H33.4326C33.508 19.332 33.5791 19.3643 33.6326 19.4178C33.6861 19.4713 33.7184 19.5423 33.7235 19.6178V20.6359C33.8035 20.7814 33.6507 20.9268 33.4326 20.9268ZM31.4472 20.2723H33.1417V19.9087H31.4472V20.2723Z" fill="#313131"/>
<path d="M33.4326 23.1085H31.0763C31.0008 23.1034 30.9298 23.0711 30.8763 23.0176C30.8228 22.9641 30.7905 22.893 30.7854 22.8176V21.7994C30.7905 21.724 30.8228 21.6529 30.8763 21.5994C30.9298 21.5459 31.0008 21.5136 31.0763 21.5085H33.4326C33.508 21.5136 33.5791 21.5459 33.6326 21.5994C33.6861 21.6529 33.7184 21.724 33.7235 21.7994V22.8176C33.8035 22.963 33.6507 23.1085 33.4326 23.1085ZM31.4472 22.454H33.1417V22.0903H31.4472V22.454Z" fill="#313131"/>
<path d="M33.4326 25.2901H31.0763C31.0008 25.285 30.9298 25.2527 30.8763 25.1992C30.8228 25.1457 30.7905 25.0747 30.7854 24.9992V23.9811C30.7905 23.9056 30.8228 23.8345 30.8763 23.7811C30.9298 23.7276 31.0008 23.6953 31.0763 23.6902H33.4326C33.508 23.6953 33.5791 23.7276 33.6326 23.7811C33.6861 23.8345 33.7184 23.9056 33.7235 23.9811V24.9992C33.8035 25.1447 33.6507 25.2901 33.4326 25.2901ZM31.4472 24.6356H33.1417V24.272H31.4472V24.6356Z" fill="#313131"/>
<path d="M29.8982 20.9268H27.5493C27.473 20.9219 27.401 20.8899 27.3464 20.8366C27.2917 20.7832 27.2579 20.712 27.2511 20.6359V19.6178C27.2579 19.5417 27.2917 19.4705 27.3464 19.4172C27.401 19.3638 27.473 19.3318 27.5493 19.3269H29.8982C29.975 19.3303 30.0478 19.3618 30.1028 19.4155C30.1578 19.4691 30.1911 19.5411 30.1964 19.6178V20.6359C30.2691 20.7814 30.1237 20.9268 29.8982 20.9268ZM27.9129 20.2723H29.6074V19.9087H27.9129V20.2723Z" fill="#313131"/>
<path d="M29.8982 23.1085H27.5493C27.473 23.1036 27.401 23.0715 27.3464 23.0182C27.2917 22.9648 27.2579 22.8937 27.2511 22.8176V21.7994C27.2579 21.7233 27.2917 21.6522 27.3464 21.5988C27.401 21.5455 27.473 21.5135 27.5493 21.5085H29.8982C29.975 21.5119 30.0478 21.5435 30.1028 21.5971C30.1578 21.6508 30.1911 21.7228 30.1964 21.7994V22.8176C30.2691 22.963 30.1237 23.1085 29.8982 23.1085ZM27.9129 22.454H29.6074V22.0903H27.9129V22.454Z" fill="#313131"/>
<path d="M29.8982 25.2901H27.5493C27.473 25.2852 27.401 25.2532 27.3464 25.1998C27.2917 25.1465 27.2579 25.0753 27.2511 24.9992V23.9811C27.2579 23.905 27.2917 23.8338 27.3464 23.7805C27.401 23.7271 27.473 23.6951 27.5493 23.6902H29.8982C29.975 23.6936 30.0478 23.7251 30.1028 23.7788C30.1578 23.8324 30.1911 23.9044 30.1964 23.9811V24.9992C30.2691 25.1447 30.1237 25.2901 29.8982 25.2901ZM27.9129 24.6356H29.6074V24.272H27.9129V24.6356Z" fill="#313131"/>
<path d="M25.9274 23.1085H23.5712C23.4957 23.1034 23.4246 23.0711 23.3712 23.0176C23.3177 22.9641 23.2854 22.893 23.2803 22.8176V21.7994C23.2854 21.724 23.3177 21.6529 23.3712 21.5994C23.4246 21.5459 23.4957 21.5136 23.5712 21.5085H25.9274C26.0037 21.5135 26.0757 21.5455 26.1303 21.5988C26.185 21.6522 26.2188 21.7233 26.2256 21.7994V22.8176C26.3129 22.963 26.1529 23.1085 25.9274 23.1085ZM23.9421 22.454H25.6366V22.0903H23.9421V22.454Z" fill="#313131"/>
<path d="M25.9274 25.2901H23.5712C23.4957 25.285 23.4246 25.2527 23.3712 25.1992C23.3177 25.1457 23.2854 25.0747 23.2803 24.9992V23.9811C23.2854 23.9056 23.3177 23.8345 23.3712 23.7811C23.4246 23.7276 23.4957 23.6953 23.5712 23.6902H25.9274C26.0037 23.6951 26.0757 23.7271 26.1303 23.7805C26.185 23.8338 26.2188 23.905 26.2256 23.9811V24.9992C26.3129 25.1447 26.1529 25.2901 25.9274 25.2901ZM23.9421 24.6356H25.6366V24.272H23.9421V24.6356Z" fill="#313131"/>
<path d="M30.7126 10.8906C30.4236 10.8852 30.1478 10.769 29.9421 10.566C29.7364 10.3629 29.6165 10.0887 29.6072 9.79978C29.6033 9.66034 29.627 9.52149 29.6768 9.39119C29.7266 9.26088 29.8016 9.14167 29.8975 9.04036C29.9934 8.93906 30.1083 8.85764 30.2357 8.80077C30.3631 8.7439 30.5005 8.71269 30.6399 8.70892C30.6697 8.38146 30.8096 8.07378 31.0368 7.83604C31.264 7.59831 31.565 7.44456 31.8908 7.39988C31.9299 7.07069 32.0842 6.76597 32.3265 6.53968C32.5687 6.31339 32.8832 6.18016 33.2143 6.16357C33.4862 6.16734 33.7507 6.2525 33.9736 6.40806C34.1966 6.56362 34.3678 6.78243 34.4652 7.03626H34.5379C34.6305 6.84214 34.7756 6.67788 34.9569 6.56217C35.1382 6.44647 35.3483 6.38396 35.5633 6.38175C35.8526 6.38175 36.1301 6.49667 36.3347 6.70125C36.5393 6.90583 36.6542 7.1833 36.6542 7.47261C36.6542 7.76193 36.5393 8.03939 36.3347 8.24396C36.1301 8.44854 35.8526 8.56348 35.5633 8.56348H35.4906C35.4906 8.6362 35.4179 8.70893 35.3452 8.78165C35.3359 9.07053 35.216 9.3448 35.0103 9.54781C34.8046 9.75082 34.5287 9.86707 34.2397 9.87251H34.167C34.1161 10.0651 34.0013 10.2347 33.8415 10.3536C33.6816 10.4725 33.4862 10.5336 33.2871 10.527C33.1252 10.5308 32.9651 10.4926 32.8224 10.4161C32.6796 10.3396 32.5591 10.2275 32.4726 10.0907C32.2357 10.1541 31.9901 10.1786 31.7453 10.1634C31.6779 10.3818 31.54 10.5717 31.3531 10.7033C31.1662 10.8349 30.941 10.9008 30.7126 10.8906ZM30.7126 9.43616C30.6263 9.43616 30.542 9.46176 30.4702 9.5097C30.3984 9.55765 30.3425 9.6258 30.3095 9.70553C30.2765 9.78526 30.2678 9.87299 30.2847 9.95764C30.3015 10.0423 30.3431 10.12 30.4041 10.181C30.4651 10.2421 30.5429 10.2836 30.6275 10.3005C30.7122 10.3173 30.7999 10.3087 30.8796 10.2756C30.9593 10.2426 31.0275 10.1867 31.0754 10.1149C31.1234 10.0432 31.149 9.95881 31.149 9.87251V9.79978C31.149 9.65434 31.149 9.58162 31.3017 9.50889C31.2468 9.54548 31.1823 9.565 31.1163 9.565C31.0503 9.565 30.9857 9.54548 30.9308 9.50889C30.9021 9.4814 30.8676 9.46062 30.8299 9.44805C30.7921 9.43547 30.7521 9.43141 30.7126 9.43616ZM32.6253 9.36344H32.698C32.7707 9.36344 32.8434 9.43616 32.9162 9.58161C32.9489 9.65713 33 9.7233 33.0647 9.7741C33.1295 9.82489 33.2059 9.85872 33.2871 9.87251C33.3928 9.88067 33.4976 9.84723 33.5791 9.77932C33.6606 9.71141 33.7124 9.61439 33.7234 9.50889C33.7234 9.43617 33.8034 9.29072 33.8761 9.29072C33.9161 9.25494 33.9679 9.23516 34.0216 9.23516C34.0753 9.23516 34.127 9.25494 34.167 9.29072H34.3125C34.4267 9.284 34.5346 9.23607 34.6162 9.15582C34.6978 9.07558 34.7475 8.96847 34.7561 8.85437V8.78165C34.7452 8.67914 34.771 8.57608 34.8288 8.49075C34.8732 8.45613 34.9092 8.41206 34.9344 8.36173C34.9596 8.31141 34.9732 8.25611 34.9743 8.19985C34.9743 8.12713 35.0543 7.98168 35.127 7.98168C35.167 7.9459 35.2188 7.92612 35.2724 7.92612C35.3261 7.92612 35.3779 7.9459 35.4179 7.98168H35.5633C35.6791 7.98168 35.79 7.93571 35.8719 7.85388C35.9537 7.77205 35.9997 7.66106 35.9997 7.54533C35.9997 7.4296 35.9537 7.31862 35.8719 7.23679C35.79 7.15496 35.6791 7.10899 35.5633 7.10899C35.4576 7.10084 35.3528 7.13427 35.2713 7.20218C35.1898 7.27009 35.138 7.36711 35.127 7.47261C35.1091 7.58362 35.0555 7.68575 34.9743 7.7635C34.9343 7.79928 34.8825 7.81907 34.8288 7.81907C34.7751 7.81907 34.7234 7.79928 34.6834 7.7635H34.3925C34.3125 7.83623 34.167 7.7635 34.0943 7.7635C34.0216 7.7635 33.9489 7.61805 33.9489 7.54533C33.9543 7.45734 33.9408 7.36922 33.9094 7.28686C33.8779 7.20451 33.8292 7.12982 33.7666 7.06783C33.7039 7.00584 33.6287 6.95798 33.546 6.92745C33.4633 6.89692 33.375 6.88443 33.2871 6.89082C33.2005 6.88985 33.1146 6.90607 33.0344 6.93853C32.9541 6.97099 32.8811 7.01905 32.8196 7.07993C32.758 7.1408 32.7091 7.21328 32.6758 7.29317C32.6424 7.37305 32.6253 7.45876 32.6253 7.54533V7.7635C32.6524 7.82416 32.66 7.89176 32.647 7.95692C32.6339 8.02208 32.6009 8.08157 32.5525 8.12713C32.4976 8.16371 32.4331 8.18323 32.3671 8.18323C32.3011 8.18323 32.2366 8.16371 32.1817 8.12713C32.1265 8.11944 32.0754 8.0939 32.0362 8.05441C31.738 8.05441 31.3744 8.49075 31.3744 8.85437V9.07254C31.4015 9.1332 31.4091 9.2008 31.3961 9.26596C31.3831 9.33112 31.3501 9.39061 31.3017 9.43616C31.3555 9.40021 31.4188 9.38101 31.4835 9.38101C31.5482 9.38101 31.6115 9.40021 31.6653 9.43616C31.7676 9.52733 31.8992 9.57892 32.0362 9.58161C32.1622 9.60058 32.2908 9.57486 32.3998 9.50889C32.4147 9.46225 32.4453 9.42223 32.4864 9.39569C32.5276 9.36916 32.5767 9.35775 32.6253 9.36344Z" fill="#313131"/>
<path d="M28.8727 17.5086C28.8321 17.513 28.7911 17.5087 28.7523 17.4962C28.7134 17.4837 28.6776 17.4631 28.6473 17.4359C28.6029 17.4013 28.5668 17.3572 28.5417 17.3069C28.5165 17.2565 28.5029 17.2012 28.5018 17.145L29.0182 11.327C29.0233 11.2516 29.0556 11.1805 29.109 11.127C29.1625 11.0735 29.2336 11.0412 29.3091 11.0361H31.8108C31.8875 11.0395 31.9604 11.0711 32.0154 11.1247C32.0703 11.1784 32.1037 11.2504 32.1089 11.327L32.6253 15.9814C32.6269 16.0573 32.6064 16.1321 32.5664 16.1966C32.5264 16.2611 32.4685 16.3127 32.3998 16.345L29.0182 17.5086H28.8727ZM29.68 11.6907L29.2363 16.7086L31.8908 15.7632L31.4472 11.6907H29.68Z" fill="#313131"/>
</svg>
