<svg width="36" height="40" viewBox="0 0 36 40" fill="none" xmlns="http://www.w3.org/2000/svg">
<g clip-path="url(#clip0_20_667)">
<path d="M27.4678 0.50415H21.4572L19.4044 3.5782H17.7274L16.6608 2.37072H14.3129V8.02745H16.9023L17.3785 6.85351H18.7202C18.7202 6.85351 21.4521 7.35663 22.0173 10.9053H27.9206L28.957 7.30463C30.4445 3.22433 34.659 7.78597 34.659 7.78597L34.9156 7.61826C33.2721 0.720499 27.4678 0.50415 27.4678 0.50415Z" stroke="#3F50B1" stroke-width="0.843368" stroke-miterlimit="10"/>
<path d="M27.8904 10.9087H22.0206V14.9202H27.8904V10.9087Z" stroke="#3F50B1" stroke-width="0.843368" stroke-miterlimit="10"/>
<path d="M26.2217 14.9202H23.691V23.5788H26.2217V14.9202Z" stroke="#3F50B1" stroke-width="0.843368" stroke-miterlimit="10"/>
<path d="M29.1917 39.4959C28.9938 37.8758 27.8903 37.5807 27.8903 37.5807V25.2006C27.8182 23.6275 26.8472 23.5789 26.8472 23.5789H23.0637C23.0637 23.5789 22.091 23.6275 22.0189 25.2006V37.5807C22.0189 37.5807 20.9137 37.8758 20.7175 39.4959H29.1917Z" fill="#DADEF2" stroke="#3F50B1" stroke-width="0.843368" stroke-miterlimit="10"/>
<path d="M19.6224 5.40625C19.6224 5.40625 22.881 5.70645 23.4361 9.41779" stroke="#3F50B1" stroke-width="0.843368" stroke-miterlimit="10"/>
<path d="M8.84396 1.90112V7.03965H4.3813V1.90112C3.20015 2.41409 2.23183 3.31836 1.63935 4.46169C1.04686 5.60503 0.866402 6.9176 1.12836 8.1784C1.39033 9.4392 2.07871 10.5712 3.0776 11.3839C4.0765 12.1966 5.32491 12.6403 6.61264 12.6403C7.90037 12.6403 9.14876 12.1966 10.1477 11.3839C11.1466 10.5712 11.8349 9.4392 12.0969 8.1784C12.3589 6.9176 12.1784 5.60503 11.5859 4.46169C10.9935 3.31836 10.0251 2.41409 8.84396 1.90112Z" stroke="#3F50B1" stroke-width="0.843368" stroke-miterlimit="10"/>
<path d="M10.3936 6.72266C10.3668 7.80892 9.91041 8.84026 9.12451 9.59064C8.33861 10.341 7.28728 10.7492 6.20093 10.7258" stroke="#3F50B1" stroke-width="0.843368" stroke-miterlimit="10"/>
<path d="M7.67841 12.5387H5.56531V18.5761H7.67841V12.5387Z" stroke="#3F50B1" stroke-width="0.843368" stroke-miterlimit="10"/>
<path d="M8.72488 19.8541V37.8373C8.72488 39.7022 6.61178 39.4892 6.61178 39.4892C4.50036 39.5261 4.50037 37.8373 4.50037 37.8373V19.8541C4.50037 19.8541 4.56409 18.2827 6.61178 18.3313C6.61178 18.3313 8.49512 18.1838 8.72488 19.8541Z" fill="#DADEF2" stroke="#3F50B1" stroke-width="0.843368" stroke-miterlimit="10"/>
<path d="M7.19206 35.4659C7.19206 35.6198 7.13092 35.7674 7.0221 35.8762C6.91328 35.985 6.7657 36.0462 6.6118 36.0462C6.4582 36.0457 6.31103 35.9844 6.20257 35.8756C6.09411 35.7668 6.0332 35.6195 6.0332 35.4659V21.8817C6.0332 21.8057 6.04818 21.7305 6.07726 21.6603C6.10634 21.5901 6.14894 21.5263 6.20267 21.4726C6.2564 21.4188 6.32018 21.3762 6.39038 21.3471C6.46057 21.3181 6.53582 21.3031 6.6118 21.3031C6.68792 21.3029 6.76335 21.3177 6.83374 21.3467C6.90413 21.3756 6.96809 21.4182 7.022 21.472C7.0759 21.5257 7.11868 21.5896 7.14786 21.6599C7.17704 21.7302 7.19206 21.8056 7.19206 21.8817V35.4659Z" fill="white" stroke="#3F50B1" stroke-width="0.843368" stroke-miterlimit="10"/>
</g>
<defs>
<clipPath id="clip0_20_667">
<rect width="34.9584" height="40" fill="white" transform="translate(0.520752)"/>
</clipPath>
</defs>
</svg>
