<svg width="60" height="60" viewBox="0 0 60 60" fill="none" xmlns="http://www.w3.org/2000/svg">
<rect width="60" height="60" rx="30" fill="#5667CA"/>
<path d="M15 21.9231H45M42.6923 15H17.3077C16.6957 15 16.1087 15.2431 15.6759 15.6759C15.2431 16.1087 15 16.6957 15 17.3077V42.6923C15 43.3043 15.2431 43.8913 15.6759 44.3241C16.1087 44.7569 16.6957 45 17.3077 45H42.6923C43.3043 45 43.8913 44.7569 44.3241 44.3241C44.7569 43.8913 45 43.3043 45 42.6923V17.3077C45 16.6957 44.7569 16.1087 44.3241 15.6759C43.8913 15.2431 43.3043 15 42.6923 15Z" stroke="white" stroke-width="1.5" stroke-linecap="round" stroke-linejoin="round"/>
<path d="M23.0769 34.6154L27.6923 38.077L35.7692 28.8462" stroke="white" stroke-width="1.5" stroke-linecap="round" stroke-linejoin="round"/>
</svg>
