<svg width="60" height="60" viewBox="0 0 60 60" fill="none" xmlns="http://www.w3.org/2000/svg">
<rect width="60" height="60" rx="30" fill="#5667CA"/>
<path d="M32.9445 23.0285C32.7856 22.5784 32.4909 22.1886 32.1012 21.913C31.7114 21.6373 31.2458 21.4893 30.7684 21.4893H28.9845C28.4772 21.4907 27.9882 21.6793 27.6112 22.0188C27.2342 22.3584 26.9957 22.8251 26.9414 23.3295C26.8871 23.834 27.0208 24.3407 27.3169 24.7527C27.613 25.1647 28.0507 25.453 28.5461 25.5624L31.2645 26.1554C31.8232 26.2746 32.3178 26.5967 32.6527 27.0594C32.9877 27.5222 33.139 28.0927 33.0776 28.6606C33.0161 29.2285 32.7463 29.7535 32.3201 30.1339C31.894 30.5143 31.3419 30.7232 30.7707 30.72H29.2338C28.7564 30.7201 28.2907 30.5721 27.901 30.2964C27.5113 30.0207 27.2166 29.631 27.0576 29.1808M29.9999 21.4893V19.1816M29.9999 33.0277V30.72" stroke="white" stroke-width="1.5" stroke-linecap="round" stroke-linejoin="round"/>
<path d="M25.3844 45H34.6151M40.3843 25.4563C40.3971 23.6027 39.9136 21.7794 38.9838 20.1758C38.054 18.5722 36.7119 17.2467 35.0969 16.3369C33.4819 15.4271 31.6528 14.9661 29.7995 15.0019C27.9461 15.0377 26.1362 15.569 24.5575 16.5405C22.9788 17.512 21.689 18.8883 20.8218 20.5266C19.9547 22.165 19.5419 24.0055 19.6262 25.8573C19.7106 27.709 20.2891 29.5044 21.3017 31.0571C22.3142 32.6097 23.7239 33.8631 25.3844 34.687V38.1485C25.3844 38.4545 25.506 38.748 25.7224 38.9644C25.9388 39.1808 26.2323 39.3023 26.5383 39.3023H33.4613C33.7673 39.3023 34.0608 39.1808 34.2772 38.9644C34.4936 38.748 34.6151 38.4545 34.6151 38.1485V34.687C36.3401 33.8371 37.7938 32.523 38.813 30.8924C39.8321 29.2618 40.3763 27.3792 40.3843 25.4563Z" stroke="white" stroke-width="1.5" stroke-linecap="round" stroke-linejoin="round"/>
</svg>
