<svg width="60" height="60" viewBox="0 0 60 60" fill="none" xmlns="http://www.w3.org/2000/svg">
<rect width="60" height="60" rx="30" fill="#5667CA"/>
<path d="M26.8154 30.8768L40.3847 17.3076L45 21.923M35.1924 22.4999L39.2308 26.5384" stroke="white" stroke-width="1.5" stroke-linecap="round" stroke-linejoin="round"/>
<path d="M21.9231 42.6923C22.8322 42.6923 23.7325 42.5133 24.5724 42.1654C25.4124 41.8174 26.1756 41.3075 26.8184 40.6646C27.4613 40.0218 27.9712 39.2586 28.3192 38.4186C28.6671 37.5787 28.8462 36.6784 28.8462 35.7693C28.8462 34.8601 28.6671 33.9599 28.3192 33.1199C27.9712 32.28 27.4613 31.5168 26.8184 30.8739C26.1756 30.231 25.4124 29.7211 24.5724 29.3732C23.7325 29.0253 22.8322 28.8462 21.9231 28.8462C20.087 28.8462 18.3261 29.5756 17.0277 30.8739C15.7294 32.1722 15 33.9332 15 35.7693C15 37.6054 15.7294 39.3663 17.0277 40.6646C18.3261 41.963 20.087 42.6923 21.9231 42.6923Z" stroke="white" stroke-width="1.5" stroke-linecap="round" stroke-linejoin="round"/>
</svg>
