<svg width="60" height="60" viewBox="0 0 60 60" fill="none" xmlns="http://www.w3.org/2000/svg">
<rect width="60" height="60" rx="30" fill="#5667CA"/>
<path d="M27.025 23.7889C22.5935 20.7653 18.4621 23.0734 15 26.6278L22.6628 31.244M36.2111 32.975C39.2347 37.4065 36.9266 41.5379 33.3722 45L28.7561 37.3373" stroke="white" stroke-width="1.5" stroke-linecap="round" stroke-linejoin="round"/>
<path d="M26.0326 25.4276L34.5725 33.9674M22.6628 31.2208L28.7792 37.3372C33.6723 34.406 39.2348 31.5671 41.7736 28.9359C47.2668 23.4427 44.0817 15.9184 44.0817 15.9184C44.0817 15.9184 36.5574 12.7332 31.0642 18.2264C28.433 20.7653 25.571 26.3508 22.6628 31.2208Z" stroke="white" stroke-width="1.5" stroke-linecap="round" stroke-linejoin="round"/>
<path d="M38.0807 23.0732C38.3867 23.0732 38.6803 22.9516 38.8967 22.7352C39.1131 22.5188 39.2347 22.2252 39.2347 21.9192C39.2347 21.6131 39.1131 21.3196 38.8967 21.1031C38.6803 20.8867 38.3867 20.7651 38.0807 20.7651C37.7746 20.7651 37.4811 20.8867 37.2646 21.1031C37.0482 21.3196 36.9266 21.6131 36.9266 21.9192C36.9266 22.2252 37.0482 22.5188 37.2646 22.7352C37.4811 22.9516 37.7746 23.0732 38.0807 23.0732ZM22.3396 42.5533C21.001 43.8458 15 44.9998 15 44.9998C15 44.9998 16.154 38.9989 17.4465 37.6602C17.9245 37.1492 18.546 36.7949 19.2292 36.644C19.9125 36.493 20.6254 36.5525 21.2741 36.8145C21.9229 37.0766 22.4771 37.529 22.8638 38.1121C23.2505 38.6952 23.4516 39.3817 23.4406 40.0813C23.4322 40.5458 23.3303 41.0038 23.1412 41.4281C22.952 41.8524 22.6795 42.2365 22.3396 42.5533Z" stroke="white" stroke-width="1.5" stroke-linecap="round" stroke-linejoin="round"/>
</svg>
