<svg width="60" height="60" viewBox="0 0 60 60" fill="none" xmlns="http://www.w3.org/2000/svg">
<rect width="60" height="60" rx="30" fill="#5667CA"/>
<path d="M39.9623 15.0273H20.0406C19.581 15.04 19.1309 15.1605 18.7266 15.3793C18.3223 15.5981 17.9752 15.909 17.7132 16.2868L12.7301 23.1866C12.36 23.7095 12.1752 24.341 12.205 24.9809C12.2348 25.6208 12.4774 26.2324 12.8943 26.7187L27.8384 43.9408C28.0944 44.2705 28.4223 44.5374 28.7972 44.721C29.1721 44.9046 29.584 45.0001 30.0014 45.0001C30.4189 45.0001 30.8308 44.9046 31.2057 44.721C31.5806 44.5374 31.9085 44.2705 32.1645 43.9408L47.1058 26.7187C47.5228 26.2324 47.7654 25.6208 47.7951 24.9809C47.8249 24.341 47.6401 23.7095 47.2701 23.1866L42.2896 16.2868C42.0277 15.909 41.6806 15.5981 41.2763 15.3793C40.872 15.1605 40.4219 15.04 39.9623 15.0273Z" stroke="white" stroke-width="1.5" stroke-linecap="round" stroke-linejoin="round"/>
<path d="M28.5778 15L21.8971 25.3497L30.0016 44.9265L38.1609 25.3497L31.5075 15M12.2593 25.3497H47.7439" stroke="white" stroke-width="1.5" stroke-linecap="round" stroke-linejoin="round"/>
</svg>
