<svg width="14" height="11" viewBox="0 0 14 11" fill="none" xmlns="http://www.w3.org/2000/svg">
<path d="M2.25 0H11.75C12.3467 0 12.919 0.237053 13.341 0.65901C13.7629 1.08097 14 1.65326 14 2.25V8.75C14 9.34674 13.7629 9.91903 13.341 10.341C12.919 10.7629 12.3467 11 11.75 11H2.25C1.65326 11 1.08097 10.7629 0.65901 10.341C0.237053 9.91903 0 9.34674 0 8.75V2.25C0 1.65326 0.237053 1.08097 0.65901 0.65901C1.08097 0.237053 1.65326 0 2.25 0ZM13.5 2.603V2.25C13.5 1.78587 13.3156 1.34075 12.9874 1.01256C12.6592 0.684375 12.2141 0.5 11.75 0.5H2.25C1.78587 0.5 1.34075 0.684375 1.01256 1.01256C0.684375 1.34075 0.5 1.78587 0.5 2.25V2.603L7 6.214L13.5 2.603ZM0.5 3.175V8.75C0.5 9.21413 0.684375 9.65925 1.01256 9.98744C1.34075 10.3156 1.78587 10.5 2.25 10.5H11.75C12.2141 10.5 12.6592 10.3156 12.9874 9.98744C13.3156 9.65925 13.5 9.21413 13.5 8.75V3.175L7.1215 6.7185C7.08434 6.73917 7.04252 6.75001 7 6.75001C6.95748 6.75001 6.91566 6.73917 6.8785 6.7185L0.5 3.175Z" fill="#313131"/>
</svg>
