<svg width="20" height="21" viewBox="0 0 20 21" fill="none" xmlns="http://www.w3.org/2000/svg">
<path d="M10 18.8939C12.1217 18.8939 14.1566 18.051 15.6569 16.5507C17.1571 15.0504 18 13.0156 18 10.8939C18 8.77213 17.1571 6.7373 15.6569 5.23701C14.1566 3.73671 12.1217 2.89386 10 2.89386C7.87827 2.89386 5.84344 3.73671 4.34315 5.23701C2.84285 6.7373 2 8.77213 2 10.8939C2 13.0156 2.84285 15.0504 4.34315 16.5507C5.84344 18.051 7.87827 18.8939 10 18.8939ZM10 0.89386C11.3132 0.89386 12.6136 1.15252 13.8268 1.65506C15.0401 2.15761 16.1425 2.89421 17.0711 3.82279C17.9997 4.75138 18.7362 5.85377 19.2388 7.06703C19.7413 8.28028 20 9.58064 20 10.8939C20 13.546 18.9464 16.0896 17.0711 17.9649C15.1957 19.8403 12.6522 20.8939 10 20.8939C4.47 20.8939 0 16.3939 0 10.8939C0 8.24169 1.05357 5.69816 2.92893 3.82279C4.8043 1.94743 7.34784 0.89386 10 0.89386ZM10.5 5.89386V11.1439L15 13.8139L14.25 15.0439L9 11.8939V5.89386H10.5Z" fill="white"/>
</svg>
