<svg width="20" height="20" viewBox="0 0 20 20" fill="none" xmlns="http://www.w3.org/2000/svg">
<path d="M18.3234 13.5747L13.8965 11.5937C13.7248 11.5194 13.5375 11.4891 13.3512 11.5055C13.1649 11.5219 12.9856 11.5844 12.8296 11.6875C12.8171 11.6954 12.8052 11.7041 12.7939 11.7137L10.4689 13.6956C10.4172 13.7272 10.3585 13.7455 10.2979 13.7489C10.2374 13.7524 10.177 13.7408 10.1221 13.7153C8.5995 12.9803 7.02354 11.4165 6.28853 9.91182C6.26254 9.85722 6.25046 9.7971 6.25341 9.73668C6.25636 9.67632 6.27422 9.61764 6.30541 9.56586L8.29296 7.2024C8.30232 7.19112 8.31078 7.17894 8.31918 7.16676C8.42196 7.01094 8.4843 6.83202 8.50068 6.6461C8.51706 6.46018 8.48688 6.27311 8.41296 6.10175L6.42823 1.6823C6.33241 1.45846 6.16656 1.27175 5.95559 1.15021C5.74461 1.02866 5.4999 0.97884 5.25821 1.00822C4.07841 1.16378 2.99558 1.74348 2.21196 2.63907C1.42835 3.53465 0.997544 4.68486 1.00001 5.87487C1.00001 13.1125 6.8876 19.0001 14.1252 19.0001C15.3153 19.0026 16.4655 18.5718 17.361 17.7881C18.2566 17.0045 18.8363 15.9217 18.9919 14.7419C19.021 14.5013 18.9717 14.2577 18.8513 14.0474C18.7308 13.8371 18.5457 13.6713 18.3234 13.5747ZM18.2503 14.6481C18.1179 15.6473 17.6262 16.564 16.8669 17.2269C16.1077 17.8899 15.1331 18.2536 14.1252 18.25C7.302 18.25 1.75002 12.6981 1.75002 5.87487C1.74653 4.86699 2.11024 3.89234 2.77316 3.13314C3.43607 2.37395 4.3528 1.88219 5.35196 1.7498C5.36694 1.7489 5.38197 1.7489 5.39696 1.7498C5.47094 1.75043 5.54308 1.77293 5.6043 1.81447C5.66553 1.85601 5.7131 1.91473 5.74103 1.98324L7.72014 6.40269C7.74324 6.4567 7.75332 6.51538 7.74954 6.57401C7.74582 6.63264 7.72836 6.68956 7.69854 6.74019L5.71196 9.10272C5.70259 9.1149 5.69321 9.12618 5.68478 9.13932C5.57894 9.30114 5.51661 9.48756 5.5038 9.68052C5.49099 9.87348 5.52813 10.0664 5.61165 10.2409C6.42635 11.9087 8.10636 13.5766 9.79296 14.3913C9.96858 14.4742 10.1627 14.5104 10.3564 14.496C10.55 14.4817 10.7368 14.4175 10.8983 14.3097L10.933 14.2834L13.2609 12.3034C13.3107 12.273 13.3669 12.2548 13.4251 12.2504C13.4833 12.246 13.5417 12.2555 13.5955 12.2781L18.0216 14.2619C18.0962 14.293 18.1588 14.3474 18.2001 14.417C18.2413 14.4866 18.2589 14.5677 18.2503 14.6481Z" fill="#313131"/>
<path d="M5.22169 0.71005C5.52784 0.672829 5.83825 0.736756 6.10548 0.890714C6.37114 1.04384 6.58053 1.27828 6.70216 1.55966L8.68653 5.9786L8.68849 5.98349C8.78196 6.20039 8.82055 6.43754 8.79982 6.67294C8.77902 6.90826 8.69948 7.13482 8.56935 7.33212L8.56642 7.337C8.55879 7.34806 8.54253 7.37064 8.52345 7.39364L8.52247 7.3956L6.55958 9.72958C6.55661 9.73659 6.55315 9.74346 6.55274 9.75107C6.55222 9.76192 6.55486 9.77338 6.55958 9.78329C7.26485 11.2248 8.78855 12.7372 10.249 13.4434C10.259 13.448 10.2697 13.4499 10.2803 13.4493H10.2813C10.2897 13.4488 10.2971 13.445 10.3047 13.4415L12.5996 11.4854L12.6006 11.4845C12.6205 11.4676 12.6417 11.4521 12.6641 11.4376L12.8174 11.3487C12.9757 11.2704 13.1482 11.2227 13.3252 11.2071C13.5022 11.1916 13.6801 11.2083 13.8496 11.2579L14.0156 11.3184L14.0186 11.3204L18.4463 13.3009H18.4453C18.7259 13.4234 18.9592 13.633 19.1113 13.8985C19.2639 14.1649 19.327 14.4737 19.29 14.7784L19.2891 14.7813C19.1239 16.0333 18.5089 17.1822 17.5586 18.0138C16.6677 18.7933 15.5394 19.2438 14.3613 19.295L14.125 19.2999C6.83743 19.2998 0.888149 13.4648 0.704112 6.22079L0.700206 5.87509C0.697707 4.61238 1.15484 3.3918 1.98634 2.4415C2.81788 1.4912 3.96687 0.876147 5.21876 0.711026L5.22169 0.71005ZM5.25782 1.0079C4.07824 1.16351 2.99545 1.74337 2.21192 2.63876C1.42831 3.53434 0.997543 4.68508 1.00001 5.87509L1.00392 6.21298C1.18381 13.2949 7.0005 19 14.125 19.0001C15.2408 19.0024 16.3218 18.6239 17.1904 17.9308L17.3613 17.7882C18.2008 17.0536 18.7629 16.0559 18.958 14.962L18.9922 14.7423C19.0141 14.5618 18.9911 14.3795 18.9277 14.211L18.8516 14.0479C18.7311 13.8376 18.5456 13.6709 18.3233 13.5743L13.8965 11.5938C13.7249 11.5196 13.5377 11.4896 13.3516 11.5059L13.2129 11.5265C13.0766 11.5558 12.9461 11.6103 12.8291 11.6876C12.8168 11.6955 12.8051 11.7045 12.794 11.714L10.4688 13.6954C10.417 13.727 10.3584 13.7457 10.2979 13.7491C10.2677 13.7508 10.2375 13.7489 10.208 13.7433L10.1221 13.7149C8.69464 13.0258 7.21983 11.6088 6.43556 10.1944L6.2881 9.9122C6.2621 9.8576 6.24999 9.79684 6.25294 9.73642C6.25593 9.67617 6.27454 9.6172 6.30567 9.56552L8.29298 7.20224L8.31935 7.16708C8.39638 7.05029 8.45023 6.92023 8.4795 6.78427L8.50099 6.64657C8.51326 6.50726 8.4988 6.367 8.45997 6.23349L8.4131 6.10165L6.42872 1.68271C6.35679 1.51467 6.24483 1.36735 6.1045 1.25302L5.95606 1.15048C5.74509 1.02893 5.49952 0.978517 5.25782 1.0079ZM5.39649 1.75009C5.47048 1.75072 5.54328 1.773 5.6045 1.81454C5.66567 1.85608 5.71331 1.91502 5.74122 1.98349L7.71974 6.40243C7.74284 6.45644 7.75379 6.51568 7.75001 6.57431C7.74627 6.63287 7.72804 6.68974 7.69825 6.74032L5.71192 9.10263C5.70255 9.11481 5.69302 9.1266 5.68458 9.13974L5.61329 9.26474C5.55046 9.39452 5.51353 9.53597 5.50392 9.68075V9.82528C5.5129 9.96904 5.54874 10.1106 5.61134 10.2413C6.42607 11.9091 8.10643 13.577 9.79298 14.3917C9.92453 14.4538 10.0666 14.4891 10.2109 14.4972L10.3565 14.4962C10.5017 14.4855 10.6428 14.4461 10.7725 14.3819L10.8984 14.3097L10.9326 14.2833L13.2608 12.3038C13.3105 12.2734 13.3667 12.2545 13.4248 12.2501C13.483 12.2456 13.5419 12.2558 13.5957 12.2784L18.0215 14.2618C18.0961 14.2929 18.1589 14.3475 18.2002 14.4171C18.2414 14.4867 18.2586 14.5681 18.25 14.6485C18.1176 15.6474 17.6262 16.5639 16.8672 17.2267L16.7217 17.3477C15.9854 17.9338 15.0698 18.2534 14.125 18.2501C7.40837 18.25 1.92346 12.8701 1.75392 6.19345L1.75001 5.87509C1.74674 4.9303 2.0663 4.01469 2.65235 3.27841L2.77345 3.1329C3.43625 2.374 4.35272 1.88254 5.35157 1.75009C5.36641 1.7492 5.38166 1.74922 5.39649 1.75009ZM2.04981 5.87509C2.04989 12.5325 7.46762 17.9502 14.125 17.9503H14.126C15.0609 17.9536 15.9657 17.616 16.6699 17.0011C17.3727 16.3874 17.8273 15.539 17.9512 14.6143C17.9525 14.599 17.9501 14.5836 17.9424 14.5704C17.9341 14.5563 17.9211 14.5454 17.9063 14.5392L17.8984 14.5362L13.4795 12.5548L13.4483 12.5499H13.4473C13.4398 12.5505 13.4327 12.5527 13.4258 12.5558L11.127 14.5118L11.1211 14.5177L11.1143 14.5225L11.0791 14.5489L11.0723 14.5548L11.0645 14.5597C10.8601 14.696 10.6239 14.7769 10.3789 14.795C10.1335 14.8132 9.88746 14.7673 9.66505 14.6622L9.66212 14.6612C7.91565 13.8175 6.18624 12.1009 5.34181 10.3722L5.34083 10.3702C5.23524 10.1495 5.18799 9.90535 5.20411 9.66122C5.22033 9.41698 5.29967 9.18059 5.4336 8.97567C5.45107 8.94878 5.47391 8.92094 5.47462 8.92001L5.48243 8.90927L7.44337 6.57626C7.44606 6.56927 7.44973 6.56232 7.45021 6.55478L7.44435 6.5206H7.44337L5.46681 2.10556L5.4629 2.09677C5.45731 2.08306 5.44782 2.07091 5.43556 2.06259C5.42342 2.05444 5.40916 2.05004 5.39454 2.04989H5.38673L5.37892 2.04892H5.37794C4.45635 2.17433 3.61101 2.62939 2.99903 3.33017C2.38408 4.03443 2.04658 4.93915 2.04981 5.87411V5.87509Z" fill="#313131"/>
</svg>
