<svg width="60" height="60" viewBox="0 0 60 60" fill="none" xmlns="http://www.w3.org/2000/svg">
<rect width="60" height="60" rx="30" fill="#5667CA"/>
<path d="M44.6429 33.2085H34.6429C34.264 33.2085 33.9007 33.359 33.6328 33.6269C33.3649 33.8948 33.2144 34.2582 33.2144 34.6371V44.6371C33.2144 45.0159 33.3649 45.3793 33.6328 45.6472C33.9007 45.9151 34.264 46.0656 34.6429 46.0656H44.6429C45.0218 46.0656 45.3852 45.9151 45.6531 45.6472C45.921 45.3793 46.0715 45.0159 46.0715 44.6371V34.6371C46.0715 34.2582 45.921 33.8948 45.6531 33.6269C45.3852 33.359 45.0218 33.2085 44.6429 33.2085Z" stroke="white" stroke-width="1.28571" stroke-linecap="round" stroke-linejoin="round"/>
<path d="M37.6343 37.8956C37.4923 37.8956 37.356 37.8392 37.2555 37.7387C37.1551 37.6383 37.0986 37.502 37.0986 37.3599C37.0986 37.2179 37.1551 37.0816 37.2555 36.9811C37.356 36.8807 37.4923 36.8242 37.6343 36.8242M37.6343 37.8956C37.7764 37.8956 37.9127 37.8392 38.0132 37.7387C38.1136 37.6383 38.1701 37.502 38.1701 37.3599C38.1701 37.2179 38.1136 37.0816 38.0132 36.9811C37.9127 36.8807 37.7764 36.8242 37.6343 36.8242" stroke="white" stroke-width="1.28571"/>
<path d="M45.907 44.747L42.747 40.0085C42.6457 39.8566 42.5072 39.7331 42.3448 39.6498C42.1823 39.5664 42.0013 39.526 41.8188 39.5323C41.6363 39.5386 41.4585 39.5914 41.3022 39.6858C41.1459 39.7801 41.0162 39.9128 40.9256 40.0713L37.497 46.0713M28.9285 46.0713H16.0713C15.503 46.0713 14.958 45.8456 14.5561 45.4437C14.1542 45.0418 13.9285 44.4968 13.9285 43.9285V16.0713C13.9285 15.503 14.1542 14.958 14.5561 14.5561C14.958 14.1542 15.503 13.9285 16.0713 13.9285H37.4999C38.0588 13.9285 38.5955 14.1469 38.9956 14.537L43.2813 18.6556C43.4861 18.8552 43.6489 19.0938 43.76 19.3573C43.8712 19.6208 43.9284 19.9039 43.9285 20.1899V28.9285M20.357 24.6428H37.4999M20.357 31.0713H28.9285M20.357 37.4999H28.9285" stroke="white" stroke-width="1.28571" stroke-linecap="round" stroke-linejoin="round"/>
</svg>
