<svg width="40" height="26" viewBox="0 0 40 26" fill="none" xmlns="http://www.w3.org/2000/svg">
<g clip-path="url(#clip0_21_746)">
<path d="M27.0971 20.0154L14.4939 20.0154V24.8594H27.0971V20.0154Z" fill="#DADEF2" stroke="#3F50B1" stroke-width="0.719904" stroke-miterlimit="10"/>
<path d="M12.3071 7.10259C11.8692 7.55394 11.555 8.11048 11.3947 8.71857C11.2344 9.32665 11.2334 9.96577 11.3919 10.5743C11.3919 10.5743 12.5516 14.1616 15.5 16.9441L15.5 20.0154H26.2224V17.137L27.6819 15.8717C27.6819 15.8717 28.7298 15.0633 28.7236 13.6603V5.71069L23.0553 5.71069" fill="white"/>
<path d="M12.3071 7.10259C11.8692 7.55394 11.555 8.11048 11.3947 8.71857C11.2344 9.32665 11.2334 9.96577 11.3919 10.5743C11.3919 10.5743 12.5516 14.1616 15.5 16.9441L15.5 20.0154H26.2224V17.137L27.6819 15.8717C27.6819 15.8717 28.7298 15.0633 28.7236 13.6603V5.71069L23.0553 5.71069" stroke="#3F50B1" stroke-width="0.719904" stroke-miterlimit="10"/>
<path d="M29.4976 4.51289C29.4706 4.51289 29.4448 4.51289 29.4165 4.51289L10.855 4.51289C10.7461 4.51286 10.6375 4.52356 10.5307 4.54483C10.1349 3.55355 9.45445 2.70165 8.57518 2.09652C7.6959 1.4914 6.65715 1.16014 5.58988 1.1445C4.52262 1.12887 3.47462 1.42956 2.57799 2.00867C1.68137 2.58778 0.976264 3.41938 0.551575 4.39864L5.51105 4.39864V8.70454H0.551575C0.976264 9.6838 1.68137 10.5154 2.57799 11.0945C3.47462 11.6736 4.52262 11.9743 5.58988 11.9587C6.65715 11.943 7.6959 11.6118 8.57518 11.0067C9.45445 10.4015 10.1349 9.54963 10.5307 8.55835C10.6375 8.57962 10.7461 8.59032 10.855 8.59029L29.4165 8.59029H29.4632C29.8563 9.58418 30.5352 10.4392 31.4142 11.0473C32.2931 11.6555 33.3326 11.9894 34.4013 12.0068C35.4699 12.0243 36.5198 11.7246 37.4182 11.1456C38.3165 10.5665 39.0231 9.73417 39.4485 8.75369L34.489 8.75369V4.43918L39.4485 4.43918C39.0266 3.46565 38.3276 2.63779 37.4385 2.05879C36.5494 1.47978 35.5096 1.17523 34.4487 1.18309C33.3877 1.19095 32.3525 1.51087 31.4721 2.10298C30.5917 2.69509 29.905 3.53321 29.4976 4.51289Z" fill="#DADEF2" stroke="#3F50B1" stroke-width="0.719904" stroke-miterlimit="10"/>
<path d="M28.129 6.03748C28.1989 6.03748 28.2681 6.05124 28.3326 6.07797C28.3971 6.10471 28.4558 6.14389 28.5052 6.19328C28.5546 6.24268 28.5937 6.30131 28.6205 6.36585C28.6472 6.43039 28.661 6.49957 28.661 6.56942C28.6611 6.63938 28.6475 6.70868 28.6208 6.77337C28.5942 6.83805 28.555 6.89683 28.5056 6.94636C28.4562 6.99588 28.3975 7.03518 28.3329 7.06199C28.2682 7.0888 28.199 7.1026 28.129 7.1026L11.8722 7.1026C11.7308 7.1026 11.5952 7.04642 11.4952 6.94643C11.3952 6.84644 11.3391 6.71083 11.3391 6.56942C11.3391 6.49946 11.3529 6.43019 11.3797 6.36558C11.4065 6.30096 11.4458 6.24226 11.4953 6.19285C11.5448 6.14344 11.6036 6.10428 11.6683 6.07761C11.733 6.05095 11.8023 6.03732 11.8722 6.03748L28.129 6.03748Z" fill="white" stroke="#3F50B1" stroke-width="0.719904" stroke-miterlimit="10"/>
<path d="M5.78131 2.56567C6.30127 2.57795 6.8137 2.69256 7.28933 2.90299C7.76497 3.11341 8.19446 3.41551 8.55328 3.79201C8.9121 4.16851 9.1932 4.61204 9.38052 5.09724C9.56784 5.58243 9.65769 6.09979 9.64495 6.61974" stroke="#3F50B1" stroke-width="0.719904" stroke-miterlimit="10"/>
<path d="M35.2618 10.5743C34.7417 10.5621 34.2291 10.4475 33.7534 10.2371C33.2776 10.0267 32.8479 9.72461 32.4889 9.34814C32.1299 8.97167 31.8486 8.52816 31.661 8.04295C31.4734 7.55774 31.3833 7.04033 31.3957 6.52026" stroke="#3F50B1" stroke-width="0.719904" stroke-miterlimit="10"/>
<path d="M18.7531 6.51903C18.7539 6.73325 18.7124 6.94552 18.6309 7.14365C18.5495 7.34178 18.4297 7.52187 18.2784 7.67358C18.1272 7.82528 17.9474 7.94562 17.7496 8.02767C17.5517 8.10972 17.3395 8.15188 17.1253 8.15171C16.6941 8.15139 16.2807 7.97987 15.976 7.67487C15.6712 7.36987 15.5 6.95635 15.5 6.52518L15.5 3.4748C15.5003 3.04384 15.6717 2.63062 15.9764 2.32589C16.2811 2.02115 16.6943 1.84981 17.1253 1.84949C17.3389 1.84933 17.5505 1.89123 17.7479 1.97283C17.9453 2.05442 18.1247 2.1741 18.2758 2.32502C18.427 2.47595 18.5469 2.65516 18.6288 2.85244C18.7107 3.04972 18.7529 3.2612 18.7531 3.4748V6.51903Z" fill="white" stroke="#3F50B1" stroke-width="0.719904" stroke-miterlimit="10"/>
<path d="M22.2212 6.28929C22.2212 6.72068 22.0498 7.13439 21.7448 7.43943C21.4397 7.74446 21.026 7.91583 20.5946 7.91583C20.1633 7.91551 19.7498 7.74403 19.4448 7.43907C19.1399 7.1341 18.9684 6.72058 18.9681 6.28929V2.76593C18.9687 2.33486 19.1403 1.92165 19.4453 1.61696C19.7502 1.31226 20.1635 1.14095 20.5946 1.14063C21.0258 1.14062 21.4393 1.31183 21.7443 1.6166C22.0493 1.92137 22.2208 2.33476 22.2212 2.76593V6.28929Z" fill="white" stroke="#3F50B1" stroke-width="0.719904" stroke-miterlimit="10"/>
<path d="M25.4718 5.70577C25.472 5.91931 25.4301 6.13078 25.3484 6.32812C25.2668 6.52545 25.1471 6.70477 24.9962 6.85582C24.8453 7.00688 24.666 7.12671 24.4688 7.20846C24.2715 7.29022 24.0601 7.3323 23.8465 7.3323C23.633 7.3323 23.4215 7.29022 23.2242 7.20846C23.027 7.12671 22.8477 7.00688 22.6968 6.85582C22.5459 6.70477 22.4262 6.52545 22.3446 6.32812C22.263 6.13078 22.221 5.91931 22.2212 5.70577V3.4748C22.221 3.26131 22.263 3.04989 22.3446 2.85263C22.4262 2.65536 22.5459 2.47612 22.6969 2.32517C22.8478 2.17421 23.0271 2.0545 23.2243 1.97288C23.4216 1.89126 23.633 1.84933 23.8465 1.84949C24.0599 1.84949 24.2713 1.89153 24.4685 1.97321C24.6657 2.05489 24.8448 2.1746 24.9958 2.32553C25.1467 2.47645 25.2664 2.65563 25.3481 2.85282C25.4298 3.05001 25.4718 3.26136 25.4718 3.4748V5.70577Z" fill="white" stroke="#3F50B1" stroke-width="0.719904" stroke-miterlimit="10"/>
<path d="M28.7237 5.71064C28.7237 6.14182 28.5525 6.55535 28.2477 6.86035C27.9429 7.16535 27.5295 7.33686 27.0983 7.33718C26.667 7.33718 26.2532 7.16581 25.9482 6.86078C25.6432 6.55574 25.4718 6.14203 25.4718 5.71064V4.19098C25.4718 3.97744 25.5139 3.76599 25.5956 3.56872C25.6774 3.37144 25.7972 3.19222 25.9483 3.04128C26.0993 2.89034 26.2786 2.77064 26.476 2.68903C26.6733 2.60743 26.8848 2.56551 27.0983 2.56567C27.5294 2.56567 27.9428 2.73691 28.2476 3.04171C28.5524 3.34652 28.7237 3.75992 28.7237 4.19098V5.71064Z" fill="white" stroke="#3F50B1" stroke-width="0.719904" stroke-miterlimit="10"/>
<path d="M18.8244 14.1615C19.4386 9.26713 15.3575 8.14182 15.3575 8.14182L20.0787 8.14182C22.2212 7.6799 22.2212 4.99316 22.2212 4.99316L14.8023 4.99316L12.3072 7.09882C12.3072 7.09882 10.9558 8.56689 11.3919 10.5706C11.3919 10.5706 12.4091 13.8703 15.5 16.9404" fill="white"/>
<path d="M18.8244 14.1615C19.4386 9.26713 15.3575 8.14182 15.3575 8.14182L20.0787 8.14182C22.2212 7.6799 22.2212 4.99316 22.2212 4.99316L14.8023 4.99316L12.3072 7.09882C12.3072 7.09882 10.9558 8.56689 11.3919 10.5706C11.3919 10.5706 12.4091 13.8703 15.5 16.9404" stroke="#3F50B1" stroke-width="0.719904" stroke-linejoin="round"/>
<path d="M26.0111 22.438C26.0111 22.608 25.9607 22.7743 25.8662 22.9157C25.7717 23.0571 25.6374 23.1674 25.4802 23.2324C25.3231 23.2975 25.1502 23.3146 24.9834 23.2814C24.8166 23.2482 24.6633 23.1663 24.5431 23.046C24.4228 22.9258 24.3409 22.7725 24.3077 22.6057C24.2745 22.4389 24.2916 22.266 24.3567 22.1089C24.4217 21.9517 24.532 21.8174 24.6734 21.7229C24.8148 21.6284 24.9811 21.578 25.1512 21.578C25.3792 21.578 25.598 21.6686 25.7592 21.8299C25.9205 21.9912 26.0111 22.2099 26.0111 22.438Z" fill="white" stroke="#3F50B1" stroke-width="0.719904" stroke-miterlimit="10"/>
</g>
<defs>
<clipPath id="clip0_21_746">
<rect width="40" height="24.4386" fill="white" transform="translate(0 0.78064)"/>
</clipPath>
</defs>
</svg>
