<svg width="148" height="42" viewBox="0 0 148 42" fill="none" xmlns="http://www.w3.org/2000/svg">
<g clip-path="url(#clip0_16_345)">
<path d="M18.6049 3.80913H11.4589V22.3511H7.14605V3.80913H0L4.84314 0H18.6049V3.80913Z" fill="white"/>
<path d="M36.8995 18.542V22.3511H21.3796V0H36.6161V3.80913H25.7239V9.19228H35.1366V12.7181H25.7239V18.542H36.8995Z" fill="white"/>
<path d="M42.6159 0L48.1564 8.24787L53.6655 0H58.3875L50.6434 11.3329L58.1357 22.3511H53.4136L48.1564 14.418L42.8677 22.3511H38.1142L45.6065 11.3329L37.8623 0H42.6159Z" fill="white"/>
<path d="M79.4317 0V22.3511H75.1189V12.8125H64.9822V22.3511H60.6379V0H64.9822V9.03488H75.1189V0H79.4317Z" fill="white"/>
<path d="M93.3633 0.0726318C94.9791 0.0726318 96.4484 0.397734 97.7705 1.04822C99.1137 1.69881 100.258 2.57018 101.202 3.6615C102.083 4.67954 102.779 5.80809 103.295 7.04529L99.668 9.83044C99.5903 9.42399 99.484 9.02515 99.3447 8.63513C99.0509 7.73276 98.6203 6.93508 98.0537 6.24255C97.5081 5.52917 96.8262 4.97327 96.0078 4.57458C95.2104 4.15488 94.3081 3.94473 93.3008 3.9447C92.2306 3.9447 91.2862 4.16523 90.4678 4.60583C89.6703 5.02557 88.9978 5.59247 88.4521 6.30603C87.9066 7.01949 87.4871 7.81731 87.1934 8.69861C86.9206 9.57996 86.7842 10.4823 86.7842 11.4056C86.7842 12.371 86.9308 13.305 87.2246 14.2074C87.5184 15.1098 87.9387 15.9177 88.4844 16.6312C88.7913 17.0064 89.1331 17.3401 89.5078 17.6351L86.2646 20.1263C85.951 19.8504 85.6502 19.5583 85.3672 19.2445C84.4228 18.1532 83.6887 16.9353 83.1641 15.5922C82.6394 14.2281 82.377 12.8327 82.377 11.4056C82.377 9.91557 82.6497 8.4988 83.1953 7.15564C83.7619 5.79158 84.5278 4.58482 85.4932 3.53552C86.4795 2.46523 87.6339 1.62558 88.9561 1.01697C90.2992 0.387392 91.7684 0.0726634 93.3633 0.0726318Z" fill="white"/>
<path d="M91.4933 22.9142V11.8241H100.475V22.9142H98.3348V13.7141H93.6332V22.9142H91.4933ZM107.544 22.9923C106.732 22.9923 105.992 22.8361 105.326 22.5237C104.67 22.2113 104.102 21.7896 103.623 21.2585C103.155 20.717 102.79 20.1131 102.53 19.4466C102.269 18.7697 102.139 18.0773 102.139 17.3692C102.139 16.6298 102.275 15.9269 102.545 15.2605C102.827 14.5836 103.207 13.9848 103.686 13.4642C104.175 12.9331 104.748 12.5165 105.404 12.2146C106.07 11.9022 106.799 11.746 107.591 11.746C108.392 11.746 109.121 11.9074 109.777 12.2302C110.444 12.553 111.011 12.9851 111.48 13.5266C111.949 14.0681 112.313 14.6721 112.573 15.3386C112.834 16.005 112.964 16.6923 112.964 17.4004C112.964 18.1293 112.829 18.8322 112.558 19.5091C112.287 20.1755 111.907 20.7743 111.418 21.3054C110.939 21.8261 110.366 22.2374 109.699 22.5394C109.043 22.8414 108.325 22.9923 107.544 22.9923ZM104.326 17.3692C104.326 17.8482 104.399 18.3116 104.545 18.7593C104.691 19.2071 104.899 19.608 105.17 19.9621C105.451 20.3057 105.789 20.5817 106.185 20.7899C106.591 20.9878 107.049 21.0867 107.559 21.0867C108.08 21.0867 108.543 20.9826 108.95 20.7743C109.356 20.5556 109.694 20.2693 109.965 19.9152C110.236 19.5507 110.439 19.1498 110.574 18.7125C110.72 18.2647 110.793 17.8169 110.793 17.3692C110.793 16.8901 110.715 16.432 110.558 15.9946C110.413 15.5468 110.199 15.1511 109.918 14.8075C109.647 14.4534 109.309 14.1775 108.903 13.9796C108.507 13.7713 108.059 13.6672 107.559 13.6672C107.028 13.6672 106.56 13.7766 106.154 13.9952C105.758 14.2035 105.425 14.4847 105.154 14.8387C104.883 15.1928 104.675 15.5885 104.529 16.0258C104.394 16.4632 104.326 16.911 104.326 17.3692ZM121.678 22.9142V13.7141H118.429L118.366 15.5885C118.314 17.0568 118.194 18.2699 118.007 19.2279C117.82 20.186 117.549 20.9409 117.195 21.4928C116.841 22.0343 116.393 22.4196 115.851 22.6487C115.32 22.8674 114.68 22.9767 113.93 22.9767V21.1179C114.315 21.1179 114.649 21.0346 114.93 20.868C115.211 20.7014 115.445 20.3994 115.633 19.9621C115.831 19.5247 115.987 18.9051 116.101 18.1033C116.216 17.3015 116.294 16.2653 116.336 14.9949L116.445 11.8241H123.818V22.9142H121.678ZM126.227 22.9142V11.8241H128.367V19.884L133.741 11.8241H135.74V22.9142H133.6V14.9481L128.289 22.9142H126.227ZM137.452 17.2911C137.452 16.6142 137.572 15.9529 137.811 15.3073C138.061 14.6513 138.42 14.0577 138.889 13.5266C139.358 12.9851 139.93 12.5582 140.607 12.2458C141.284 11.923 142.055 11.7616 142.919 11.7616C143.94 11.7616 144.819 11.9855 145.559 12.4332C146.309 12.881 146.866 13.4642 147.23 14.1827L145.574 15.3229C145.387 14.9064 145.142 14.5784 144.84 14.3389C144.538 14.089 144.215 13.9171 143.872 13.8234C143.528 13.7193 143.19 13.6672 142.857 13.6672C142.315 13.6672 141.841 13.7766 141.435 13.9952C141.039 14.2139 140.706 14.5003 140.435 14.8543C140.165 15.2084 139.962 15.6041 139.826 16.0415C139.701 16.4788 139.639 16.9162 139.639 17.3535C139.639 17.843 139.717 18.3168 139.873 18.7749C140.029 19.2227 140.248 19.6236 140.529 19.9777C140.821 20.3213 141.164 20.5973 141.56 20.8055C141.966 21.0034 142.409 21.1023 142.888 21.1023C143.231 21.1023 143.58 21.0451 143.934 20.9305C144.288 20.816 144.616 20.6337 144.918 20.3838C145.22 20.1339 145.455 19.8111 145.621 19.4154L147.386 20.4307C147.168 20.9826 146.808 21.4512 146.309 21.8365C145.819 22.2218 145.267 22.5133 144.653 22.7112C144.038 22.909 143.429 23.008 142.825 23.008C142.034 23.008 141.31 22.8466 140.654 22.5237C139.998 22.1905 139.431 21.7532 138.952 21.2117C138.483 20.6598 138.113 20.0454 137.843 19.3685C137.582 18.6812 137.452 17.9887 137.452 17.2911Z" fill="#BCC5FF"/>
<line y1="27.2878" x2="148" y2="27.2878" stroke="white"/>
<path d="M4.2718 31.9508C3.45913 31.9508 2.8196 32.2228 2.3532 32.767C1.8868 33.3111 1.6536 34.0566 1.6536 35.0036C1.6536 35.9434 1.86913 36.689 2.3002 37.2402C2.73833 37.7843 3.392 38.0564 4.2612 38.0564C4.59333 38.0564 4.9078 38.0281 5.2046 37.9716C5.5014 37.915 5.79113 37.8444 6.0738 37.7596V38.5864C5.79113 38.6924 5.49787 38.7701 5.194 38.8196C4.8972 38.869 4.54033 38.8938 4.1234 38.8938C3.35313 38.8938 2.71007 38.7348 2.1942 38.4168C1.67833 38.0988 1.28967 37.6465 1.0282 37.06C0.7738 36.4734 0.6466 35.7844 0.6466 34.993C0.6466 34.2298 0.7844 33.5584 1.06 32.979C1.34267 32.3924 1.75607 31.9366 2.3002 31.6116C2.84433 31.2794 3.50507 31.1134 4.2824 31.1134C5.08093 31.1134 5.777 31.2618 6.3706 31.5586L5.989 32.3642C5.7558 32.2582 5.49433 32.1628 5.2046 32.078C4.92193 31.9932 4.611 31.9508 4.2718 31.9508ZM10.1213 38.7878H9.16726V32.0568H6.80346V31.2194H12.4745V32.0568H10.1213V38.7878ZM15.6191 31.2194C16.6084 31.2194 17.3292 31.4137 17.7815 31.8024C18.2338 32.191 18.4599 32.7387 18.4599 33.4454C18.4599 33.8623 18.3645 34.2545 18.1737 34.622C17.99 34.9824 17.6755 35.2756 17.2303 35.5018C16.7922 35.7279 16.195 35.841 15.4389 35.841H14.5697V38.7878H13.6157V31.2194H15.6191ZM15.5343 32.0356H14.5697V35.0248H15.3329C16.0537 35.0248 16.5908 34.9082 16.9441 34.675C17.2974 34.4418 17.4741 34.046 17.4741 33.4878C17.4741 33.0002 17.3186 32.6362 17.0077 32.396C16.6968 32.1557 16.2056 32.0356 15.5343 32.0356ZM26.6375 34.993C26.6375 35.7774 26.5032 36.4628 26.2347 37.0494C25.9732 37.6288 25.5845 38.0811 25.0687 38.4062C24.5528 38.7312 23.9133 38.8938 23.1501 38.8938C22.3657 38.8938 21.712 38.7312 21.1891 38.4062C20.6732 38.0811 20.2881 37.6253 20.0337 37.0388C19.7793 36.4522 19.6521 35.7668 19.6521 34.9824C19.6521 34.205 19.7793 33.5266 20.0337 32.9472C20.2881 32.3677 20.6732 31.9154 21.1891 31.5904C21.712 31.2653 22.3692 31.1028 23.1607 31.1028C23.9168 31.1028 24.5528 31.2653 25.0687 31.5904C25.5845 31.9084 25.9732 32.3606 26.2347 32.9472C26.5032 33.5266 26.6375 34.2086 26.6375 34.993ZM20.6591 34.993C20.6591 35.947 20.8605 36.6996 21.2633 37.2508C21.6661 37.7949 22.295 38.067 23.1501 38.067C24.0122 38.067 24.6411 37.7949 25.0369 37.2508C25.4326 36.6996 25.6305 35.947 25.6305 34.993C25.6305 34.039 25.4326 33.2934 25.0369 32.7564C24.6411 32.2122 24.0157 31.9402 23.1607 31.9402C22.3056 31.9402 21.6731 32.2122 21.2633 32.7564C20.8605 33.2934 20.6591 34.039 20.6591 34.993ZM28.3255 31.2194H29.2159V35.3746C29.2159 35.6078 29.2124 35.8692 29.2053 36.159C29.1983 36.4487 29.1877 36.7137 29.1735 36.954C29.1665 37.1942 29.1559 37.3709 29.1417 37.484H29.1841L33.3499 31.2194H34.4099V38.7878H33.5195V34.675C33.5195 34.4135 33.5231 34.1344 33.5301 33.8376C33.5443 33.5408 33.5584 33.2687 33.5725 33.0214C33.5867 32.774 33.5973 32.5974 33.6043 32.4914H33.5619L29.3855 38.7878H28.3255V31.2194ZM38.8469 38.7878H37.8929V32.0568H35.529V31.2194H41.2001V32.0568H38.8469V38.7878ZM46.5707 38.7878H42.3413V31.2194H46.5707V32.0568H43.2953V34.4206H46.3799V35.2474H43.2953V37.9504H46.5707V38.7878ZM53.6797 38.7878H52.7257V32.0568H50.3301C50.2665 32.5797 50.1959 33.1309 50.1181 33.7104C50.0404 34.2828 49.9627 34.8304 49.8849 35.3534C49.8072 35.8763 49.7295 36.3215 49.6517 36.689C49.5599 37.1624 49.4468 37.5652 49.3125 37.8974C49.1783 38.2295 48.9981 38.4804 48.7719 38.65C48.5529 38.8196 48.2631 38.9044 47.9027 38.9044C47.7826 38.9044 47.6589 38.8902 47.5317 38.862C47.4116 38.8408 47.3056 38.8125 47.2137 38.7772V37.9822C47.2915 38.0175 47.3798 38.0493 47.4787 38.0776C47.5777 38.0988 47.6837 38.1094 47.7967 38.1094C48.0087 38.1094 48.1748 38.0246 48.2949 37.855C48.4221 37.6783 48.5211 37.4628 48.5917 37.2084C48.6624 36.9469 48.7225 36.689 48.7719 36.4346C48.8285 36.166 48.8956 35.7738 48.9733 35.258C49.0581 34.735 49.1465 34.1273 49.2383 33.4348C49.3373 32.7422 49.4362 32.0038 49.5351 31.2194H53.6797V38.7878ZM55.7362 38.7878V31.2194H56.6902V34.4206H58.1106C58.8173 34.4206 59.3791 34.516 59.796 34.7068C60.2129 34.8976 60.5133 35.1555 60.697 35.4806C60.8807 35.8056 60.9726 36.1696 60.9726 36.5724C60.9726 37.2366 60.7465 37.7737 60.2942 38.1836C59.8419 38.5864 59.1529 38.7878 58.2272 38.7878H55.7362ZM58.1318 37.9716C59.3685 37.9716 59.9868 37.5052 59.9868 36.5724C59.9868 36.0848 59.8172 35.742 59.478 35.5442C59.1388 35.3463 58.6441 35.2474 57.994 35.2474H56.6902V37.9716H58.1318ZM68.3248 38.7878H67.3708V35.258H63.4912V38.7878H62.5372V31.2194H63.4912V34.4206H67.3708V31.2194H68.3248V38.7878ZM75.1428 38.7878L74.2312 36.4452H71.2314L70.3304 38.7878H69.3658L72.3232 31.1876H73.1818L76.1286 38.7878H75.1428ZM73.097 33.3076C73.0758 33.251 73.0405 33.1486 72.991 33.0002C72.9416 32.8518 72.8921 32.6998 72.8426 32.5444C72.8002 32.3818 72.7649 32.2582 72.7366 32.1734C72.6872 32.3924 72.6306 32.608 72.567 32.82C72.5034 33.0249 72.4504 33.1874 72.408 33.3076L71.5494 35.5972H73.945L73.097 33.3076ZM79.4429 35.6502L77.4819 38.7878H76.3689L78.4889 35.4806C78.2204 35.3887 77.966 35.2615 77.7257 35.099C77.4925 34.9364 77.3017 34.7138 77.1533 34.4312C77.0049 34.1485 76.9307 33.7846 76.9307 33.3394C76.9307 32.6539 77.1675 32.131 77.6409 31.7706C78.1144 31.4031 78.8211 31.2194 79.7609 31.2194H81.8809V38.7878H80.9269V35.6502H79.4429ZM79.7821 32.0356C79.1815 32.0356 78.7186 32.1416 78.3935 32.3536C78.0755 32.5585 77.9165 32.9012 77.9165 33.3818C77.9165 33.8482 78.072 34.2086 78.3829 34.463C78.6939 34.7174 79.1744 34.8446 79.8245 34.8446H80.9269V32.0356H79.7821ZM92.2824 38.7878H91.1376L87.7138 34.9506V38.7878H86.7598V31.2194H87.7138V34.887L91.0528 31.2194H92.134L88.848 34.8976L92.2824 38.7878ZM99.7092 34.993C99.7092 35.7774 99.5749 36.4628 99.3064 37.0494C99.0449 37.6288 98.6562 38.0811 98.1404 38.4062C97.6245 38.7312 96.985 38.8938 96.2218 38.8938C95.4374 38.8938 94.7837 38.7312 94.2608 38.4062C93.7449 38.0811 93.3598 37.6253 93.1054 37.0388C92.851 36.4522 92.7238 35.7668 92.7238 34.9824C92.7238 34.205 92.851 33.5266 93.1054 32.9472C93.3598 32.3677 93.7449 31.9154 94.2608 31.5904C94.7837 31.2653 95.4409 31.1028 96.2324 31.1028C96.9885 31.1028 97.6245 31.2653 98.1404 31.5904C98.6562 31.9084 99.0449 32.3606 99.3064 32.9472C99.5749 33.5266 99.7092 34.2086 99.7092 34.993ZM93.7308 34.993C93.7308 35.947 93.9322 36.6996 94.335 37.2508C94.7378 37.7949 95.3667 38.067 96.2218 38.067C97.0839 38.067 97.7128 37.7949 98.1086 37.2508C98.5043 36.6996 98.7022 35.947 98.7022 34.993C98.7022 34.039 98.5043 33.2934 98.1086 32.7564C97.7128 32.2122 97.0874 31.9402 96.2324 31.9402C95.3773 31.9402 94.7448 32.2122 94.335 32.7564C93.9322 33.2934 93.7308 34.039 93.7308 34.993ZM104.726 38.7878L102.235 32.1522H102.192C102.213 32.3712 102.231 32.668 102.245 33.0426C102.259 33.41 102.266 33.7952 102.266 34.198V38.7878H101.387V31.2194H102.796L105.128 37.4204H105.171L107.545 31.2194H108.944V38.7878H108.001V34.1344C108.001 33.7669 108.008 33.403 108.022 33.0426C108.043 32.6822 108.061 32.3889 108.075 32.1628H108.033L105.51 38.7878H104.726ZM111.003 38.7878V31.2194H116.685V38.7878H115.741V32.0568H111.957V38.7878H111.003ZM123.505 38.7878L122.594 36.4452H119.594L118.693 38.7878H117.728L120.686 31.1876H121.544L124.491 38.7878H123.505ZM121.46 33.3076C121.438 33.251 121.403 33.1486 121.354 33.0002C121.304 32.8518 121.255 32.6998 121.205 32.5444C121.163 32.3818 121.127 32.2582 121.099 32.1734C121.05 32.3924 120.993 32.608 120.93 32.82C120.866 33.0249 120.813 33.1874 120.771 33.3076L119.912 35.5972H122.308L121.46 33.3076ZM131.314 38.7878H130.36V35.258H126.48V38.7878H125.526V31.2194H126.48V34.4206H130.36V31.2194H131.314V38.7878ZM133.394 31.2194H134.284V35.3746C134.284 35.6078 134.281 35.8692 134.274 36.159C134.267 36.4487 134.256 36.7137 134.242 36.954C134.235 37.1942 134.224 37.3709 134.21 37.484H134.252L138.418 31.2194H139.478V38.7878H138.588V34.675C138.588 34.4135 138.591 34.1344 138.598 33.8376C138.613 33.5408 138.627 33.2687 138.641 33.0214C138.655 32.774 138.666 32.5974 138.673 32.4914H138.63L134.454 38.7878H133.394V31.2194ZM143.799 35.6502L141.838 38.7878H140.725L142.845 35.4806C142.576 35.3887 142.322 35.2615 142.081 35.099C141.848 34.9364 141.657 34.7138 141.509 34.4312C141.361 34.1485 141.286 33.7846 141.286 33.3394C141.286 32.6539 141.523 32.131 141.997 31.7706C142.47 31.4031 143.177 31.2194 144.117 31.2194H146.237V38.7878H145.283V35.6502H143.799ZM144.138 32.0356C143.537 32.0356 143.074 32.1416 142.749 32.3536C142.431 32.5585 142.272 32.9012 142.272 33.3818C142.272 33.8482 142.428 34.2086 142.739 34.463C143.05 34.7174 143.53 34.8446 144.18 34.8446H145.283V32.0356H144.138Z" fill="white"/>
</g>
<defs>
<clipPath id="clip0_16_345">
<rect width="148" height="41.7878" fill="white"/>
</clipPath>
</defs>
</svg>
