<svg width="30" height="30" viewBox="0 0 30 30" fill="none" xmlns="http://www.w3.org/2000/svg">
<path d="M28.8723 20.9577L21.4941 17.6561C21.208 17.5323 20.8957 17.4818 20.5852 17.5091C20.2747 17.5364 19.976 17.6406 19.7159 17.8124C19.6951 17.8256 19.6753 17.8402 19.6565 17.8561L15.7815 21.1593C15.6953 21.2119 15.5974 21.2424 15.4965 21.2481C15.3957 21.2539 15.295 21.2346 15.2034 21.1921C12.6658 19.9671 10.0392 17.3608 8.8142 14.853C8.77087 14.762 8.75075 14.6618 8.75566 14.5611C8.76057 14.4605 8.79035 14.3627 8.84233 14.2764L12.1549 10.3373C12.1705 10.3185 12.1846 10.2982 12.1986 10.2779C12.3699 10.0182 12.4738 9.72001 12.5011 9.41015C12.5284 9.10028 12.4781 8.7885 12.3549 8.50289L9.04702 1.13716C8.88732 0.764102 8.61091 0.452921 8.25929 0.250345C7.90767 0.0477686 7.49982 -0.0352669 7.09699 0.0137074C5.13067 0.272961 3.32595 1.23913 2.01993 2.73177C0.713915 4.2244 -0.00409373 6.14142 1.75584e-05 8.12476C1.75584e-05 20.1874 9.81265 30.0001 21.8753 30.0001C23.8587 30.0042 25.7757 29.2862 27.2683 27.9801C28.7609 26.6741 29.7271 24.8694 29.9864 22.9031C30.035 22.5021 29.9528 22.0961 29.7521 21.7456C29.5513 21.3951 29.2428 21.1187 28.8723 20.9577ZM28.7504 22.7468C28.5298 24.4121 27.7102 25.94 26.4448 27.0448C25.1795 28.1497 23.5551 28.7559 21.8753 28.75C10.5033 28.75 1.25003 19.4968 1.25003 8.12476C1.24422 6.44496 1.8504 4.82055 2.95526 3.55523C4.06011 2.28991 5.58799 1.47031 7.25324 1.24966C7.27822 1.24816 7.30327 1.24816 7.32824 1.24966C7.45155 1.25071 7.57178 1.28821 7.67382 1.35744C7.77586 1.42668 7.85514 1.52454 7.90169 1.63873L11.2002 9.00446C11.2387 9.09448 11.2555 9.19228 11.2492 9.28999C11.243 9.3877 11.2139 9.48257 11.1642 9.56696L7.85325 13.5045C7.83763 13.5248 7.822 13.5436 7.80794 13.5655C7.63154 13.8352 7.52766 14.1459 7.50631 14.4675C7.48496 14.7891 7.54687 15.1107 7.68606 15.4014C9.04389 18.1811 11.8439 20.9609 14.6549 22.3187C14.9476 22.457 15.2711 22.5172 15.5939 22.4933C15.9167 22.4695 16.2279 22.3625 16.4971 22.1828L16.5549 22.139L20.4347 18.839C20.5177 18.7883 20.6115 18.758 20.7085 18.7507C20.8055 18.7433 20.9028 18.7591 20.9925 18.7968L28.3692 22.1031C28.4936 22.1549 28.598 22.2456 28.6668 22.3616C28.7355 22.4776 28.7648 22.6128 28.7504 22.7468Z" fill="#313131"/>
</svg>
