<svg width="14" height="12" viewBox="0 0 14 12" fill="none" xmlns="http://www.w3.org/2000/svg">
<path d="M13.3926 0.0760697C13.3495 0.0388008 13.297 0.0140343 13.2408 0.00445014C13.1846 -0.00513398 13.1269 0.000829311 13.0739 0.0216947L0.407612 4.97857C0.27849 5.02869 0.169159 5.11942 0.096096 5.23709C0.0230334 5.35477 -0.00980091 5.493 0.00254188 5.63095C0.0148847 5.76891 0.0717357 5.89912 0.164526 6.00195C0.257317 6.10478 0.381019 6.17467 0.516987 6.20107L4.00074 6.88482V10.7498C4.00072 10.8993 4.04539 11.0455 4.12903 11.1694C4.21267 11.2934 4.33144 11.3895 4.47011 11.4454C4.55935 11.4812 4.65459 11.4997 4.75074 11.4998C4.85138 11.4996 4.95094 11.4791 5.0435 11.4396C5.13605 11.4001 5.21971 11.3423 5.28949 11.2698L7.03949 9.45732L9.72699 11.8142C9.86323 11.9344 10.0385 12.001 10.2201 12.0017C10.2994 12.0013 10.3783 11.9889 10.4539 11.9648C10.5776 11.9256 10.6889 11.8547 10.7766 11.7591C10.8644 11.6634 10.9255 11.5465 10.9539 11.4198L13.4926 0.38232C13.5053 0.327004 13.5027 0.26927 13.4851 0.215315C13.4675 0.161361 13.4355 0.113223 13.3926 0.0760697ZM0.500737 5.58607C0.497071 5.55584 0.503881 5.52526 0.520032 5.49944C0.536183 5.47363 0.560697 5.45412 0.589487 5.44419L11.5051 1.17232L4.19261 6.41294L0.613862 5.71044C0.583528 5.706 0.555674 5.69118 0.535046 5.6685C0.514418 5.64582 0.502293 5.61669 0.500737 5.58607ZM4.93011 10.9223C4.89555 10.9579 4.85117 10.9824 4.80263 10.9927C4.75409 11.003 4.70358 10.9987 4.65753 10.9802C4.61149 10.9617 4.57199 10.9299 4.54407 10.8889C4.51614 10.8478 4.50106 10.7994 4.50074 10.7498V7.23107L6.66199 9.12482L4.93011 10.9223ZM10.4664 11.3061C10.4567 11.3485 10.4361 11.3877 10.4067 11.4197C10.3772 11.4518 10.3399 11.4756 10.2984 11.4888C10.2569 11.502 10.2127 11.5041 10.1701 11.495C10.1276 11.4858 10.0882 11.4657 10.0557 11.4367L4.65261 6.69857L12.8839 0.79982L10.4664 11.3061Z" fill="#313131"/>
</svg>
