<svg width="30" height="24" viewBox="0 0 30 24" fill="none" xmlns="http://www.w3.org/2000/svg">
<path d="M29.0231 0.20728C29.2625 0.113945 29.5344 0.154895 29.7346 0.314734C29.9346 0.474517 30.0325 0.728158 29.9903 0.97875L26.2302 23.2531C26.1901 23.4906 26.0304 23.6914 25.8061 23.7858C25.5817 23.8802 25.3238 23.8548 25.1225 23.7188L16.2137 17.6995L11.7476 22.1492C11.5439 22.3518 11.2366 22.4129 10.9692 22.3044C10.7016 22.1956 10.5265 21.9381 10.5265 21.6523V14.0956L0.613155 12.6987C0.292512 12.6533 0.0427343 12.4001 0.00490897 12.0824C-0.032917 11.7646 0.150868 11.4615 0.452258 11.344L29.0231 0.20728ZM12.4907 13.4747L25.0044 21.9297L28.2977 2.41791L12.4907 13.4747ZM11.955 19.9386L15.0158 16.8903L11.955 14.8221V19.9386ZM3.48512 11.6783L11.0594 12.7464L24.0446 3.66328L3.48512 11.6783Z" fill="#313131"/>
</svg>
