<svg width="19" height="17" viewBox="0 0 19 17" fill="none" xmlns="http://www.w3.org/2000/svg">
<path d="M18.7358 0.185602C18.6306 0.0948166 18.5027 0.0344384 18.3658 0.0109721C18.2289 -0.0124942 18.0882 0.00184103 17.9588 0.0524332L0.769022 6.77957C0.525404 6.8743 0.319153 7.04561 0.18132 7.26771C0.0434865 7.4898 -0.0184684 7.75066 0.00478247 8.01101C0.0280333 8.27137 0.135231 8.51712 0.310238 8.71128C0.485245 8.90543 0.718588 9.03748 0.975137 9.08755L5.42908 9.96205V14.9283C5.4282 15.1988 5.50859 15.4634 5.65983 15.6876C5.81106 15.9119 6.02617 16.0856 6.27729 16.1862C6.52801 16.2886 6.80374 16.3132 7.06862 16.2567C7.33349 16.2003 7.57527 16.0655 7.7625 15.8698L9.91016 13.6424L13.3174 16.6247C13.5632 16.8428 13.8803 16.9634 14.2089 16.964C14.3529 16.9639 14.496 16.9413 14.633 16.897C14.8569 16.826 15.0582 16.6975 15.217 16.5244C15.3758 16.3514 15.4865 16.1397 15.538 15.9105L18.9809 0.932873C19.0117 0.797796 19.0052 0.656884 18.962 0.525242C18.9188 0.3936 18.8406 0.276192 18.7358 0.185602ZM13.5498 3.23915L5.95073 8.68126L1.74361 7.85595L13.5498 3.23915ZM6.78621 14.9283V10.901L8.88892 12.745L6.78621 14.9283ZM14.2106 15.6069L7.19759 9.45737L17.2913 2.223L14.2106 15.6069Z" fill="#313131"/>
</svg>
