<svg width="330" height="95" viewBox="0 0 330 95" fill="none" xmlns="http://www.w3.org/2000/svg">
<g clip-path="url(#clip0_58_3925)">
<path d="M41.4839 9.35465H25.5502V50.6982H15.9338V9.35465H0L10.7989 0.861328H41.4839V9.35465Z" fill="#F1F3FF"/>
<path d="M82.2758 42.2049V50.6982H47.6708V0.861328H81.6441V9.35465H57.3574V21.3576H78.345V29.2192H57.3574V42.2049H82.2758Z" fill="#F1F3FF"/>
<path d="M95.0218 0.861328L107.376 19.2518L119.66 0.861328H130.188L112.921 26.1307L129.627 50.6982H119.098L107.376 33.0096L95.5834 50.6982H84.9843L101.69 26.1307L84.4227 0.861328H95.0218Z" fill="#F1F3FF"/>
<path d="M177.111 0.861328V50.6982H167.495V29.4298H144.893V50.6982H135.206V0.861328H144.893V21.0067H167.495V0.861328H177.111Z" fill="#F1F3FF"/>
<path d="M208.175 1.02344C211.779 1.02344 215.054 1.74858 218.003 3.19922C220.997 4.64987 223.548 6.59204 225.654 9.02539C227.618 11.2955 229.175 13.8105 230.325 16.5693L222.238 22.7812C222.065 21.8746 221.823 20.9862 221.512 20.1162C220.857 18.1041 219.898 16.3255 218.634 14.7812C217.418 13.1902 215.897 11.9497 214.072 11.0605C212.294 10.1247 210.281 9.65723 208.035 9.65723C205.648 9.65728 203.542 10.1482 201.717 11.1309C199.939 12.0668 198.442 13.3309 197.225 14.9219C196.009 16.5128 195.073 18.2907 194.418 20.2559C193.809 22.2213 193.505 24.234 193.505 26.293C193.506 28.4455 193.833 30.5279 194.488 32.54C195.143 34.5522 196.079 36.3543 197.296 37.9453C197.98 38.7822 198.742 39.5283 199.578 40.1865L192.344 45.7432C191.644 45.1277 190.978 44.4706 190.346 43.7705C188.241 41.3374 186.603 38.6235 185.433 35.6289C184.263 32.5873 183.678 29.475 183.678 26.293C183.678 22.9705 184.287 19.8113 185.504 16.8164C186.767 13.775 188.475 11.0847 190.628 8.74512C192.827 6.3586 195.4 4.48596 198.348 3.12891C201.343 1.72507 204.619 1.02345 208.175 1.02344Z" fill="#F1F3FF"/>
<path d="M204.668 51.0762V26.348H224.694V51.0762H219.922V30.5623H209.439V51.0762H204.668ZM240.456 51.2503C238.645 51.2503 236.996 50.902 235.51 50.2055C234.047 49.5089 232.782 48.5685 231.714 47.3844C230.669 46.177 229.856 44.8303 229.276 43.3443C228.696 41.8351 228.405 40.291 228.405 38.7121C228.405 37.0636 228.707 35.4963 229.311 34.0103C229.938 32.5011 230.785 31.166 231.853 30.005C232.945 28.8209 234.222 27.8921 235.684 27.2188C237.17 26.5222 238.796 26.1739 240.56 26.1739C242.348 26.1739 243.974 26.5338 245.436 27.2536C246.922 27.9734 248.188 28.937 249.233 30.1443C250.277 31.3517 251.09 32.6984 251.671 34.1844C252.251 35.6704 252.541 37.2029 252.541 38.7818C252.541 40.4071 252.239 41.9744 251.636 43.4836C251.032 44.9696 250.185 46.3047 249.093 47.4889C248.025 48.6498 246.748 49.5669 245.262 50.2403C243.799 50.9136 242.197 51.2503 240.456 51.2503ZM233.281 38.7121C233.281 39.7802 233.444 40.8134 233.769 41.8118C234.094 42.8102 234.558 43.7042 235.162 44.4936C235.789 45.2598 236.544 45.8751 237.426 46.3395C238.331 46.7807 239.353 47.0013 240.491 47.0013C241.652 47.0013 242.685 46.7691 243.59 46.3047C244.496 45.8171 245.251 45.1786 245.854 44.3891C246.458 43.5765 246.911 42.6825 247.213 41.7073C247.538 40.7089 247.7 39.7105 247.7 38.7121C247.7 37.644 247.526 36.6224 247.178 35.6472C246.853 34.6488 246.377 33.7665 245.75 33.0003C245.146 32.2108 244.391 31.5955 243.486 31.1544C242.604 30.69 241.605 30.4578 240.491 30.4578C239.307 30.4578 238.262 30.7016 237.356 31.1892C236.474 31.6536 235.731 32.2805 235.127 33.0699C234.523 33.8594 234.059 34.7417 233.734 35.7169C233.432 36.6921 233.281 37.6905 233.281 38.7121ZM271.971 51.0762V30.5623H264.726L264.587 34.7417C264.471 38.0155 264.204 40.7205 263.786 42.8567C263.368 44.9928 262.764 46.6762 261.975 47.9068C261.185 49.1142 260.187 49.9733 258.98 50.4841C257.796 50.9717 256.368 51.2155 254.696 51.2155V47.0709C255.555 47.0709 256.298 46.8852 256.925 46.5137C257.552 46.1422 258.074 45.4688 258.492 44.4936C258.933 43.5184 259.282 42.1369 259.537 40.349C259.792 38.5612 259.966 36.2509 260.059 33.4182L260.303 26.348H276.742V51.0762H271.971ZM282.115 51.0762V26.348H286.887V44.3195L298.868 26.348H303.326V51.0762H298.554V33.3137L286.713 51.0762H282.115ZM307.143 38.538C307.143 37.0287 307.41 35.5543 307.944 34.1148C308.501 32.652 309.303 31.3285 310.347 30.1443C311.392 28.937 312.669 27.985 314.179 27.2884C315.688 26.5686 317.406 26.2087 319.333 26.2087C321.609 26.2087 323.571 26.7079 325.219 27.7064C326.891 28.7048 328.133 30.005 328.946 31.6071L325.254 34.1496C324.836 33.2208 324.29 32.4894 323.617 31.9554C322.944 31.3982 322.224 31.015 321.458 30.8061C320.691 30.5739 319.937 30.4578 319.194 30.4578C317.986 30.4578 316.93 30.7016 316.024 31.1892C315.142 31.6768 314.399 32.3153 313.795 33.1047C313.192 33.8942 312.739 34.7765 312.437 35.7517C312.158 36.7269 312.019 37.7021 312.019 38.6773C312.019 39.7686 312.193 40.825 312.542 41.8467C312.89 42.8451 313.377 43.739 314.004 44.5284C314.655 45.2947 315.421 45.91 316.303 46.3743C317.209 46.8155 318.195 47.0361 319.263 47.0361C320.03 47.0361 320.808 46.9084 321.597 46.653C322.386 46.3976 323.118 45.9912 323.791 45.434C324.464 44.8767 324.987 44.1569 325.358 43.2746L329.294 45.5385C328.806 46.7691 328.005 47.8139 326.891 48.673C325.8 49.5321 324.569 50.1822 323.199 50.6234C321.829 51.0646 320.471 51.2851 319.124 51.2851C317.36 51.2851 315.746 50.9252 314.283 50.2055C312.82 49.4625 311.555 48.4873 310.487 47.2799C309.442 46.0493 308.618 44.6794 308.014 43.1701C307.433 41.6377 307.143 40.0936 307.143 38.538Z" fill="white"/>
<line y1="61.7054" x2="330" y2="61.7054" stroke="#F1F3FF" stroke-width="2.22973"/>
<path d="M9.52496 71.5756C7.71293 71.5756 6.28695 72.1823 5.247 73.3956C4.20705 74.6088 3.68708 76.2712 3.68708 78.3826C3.68708 80.4782 4.16766 82.1406 5.12882 83.3696C6.10574 84.5829 7.56324 85.1895 9.50132 85.1895C10.2419 85.1895 10.9431 85.1265 11.6049 85.0004C12.2666 84.8744 12.9127 84.7168 13.5429 84.5277V86.3712C12.9127 86.6076 12.2588 86.7809 11.5812 86.8912C10.9194 87.0015 10.1237 87.0567 9.19407 87.0567C7.47658 87.0567 6.04272 86.7021 4.89247 85.9931C3.74223 85.284 2.87561 84.2756 2.29261 82.9678C1.72536 81.66 1.44174 80.1237 1.44174 78.3589C1.44174 76.6572 1.749 75.1603 2.36351 73.8683C2.99378 72.5604 3.91555 71.5441 5.12882 70.8193C6.34209 70.0788 7.81535 69.7085 9.5486 69.7085C11.3291 69.7085 12.8811 70.0394 14.2047 70.7011L13.3539 72.4974C12.8339 72.2611 12.2509 72.0484 11.6049 71.8593C10.9746 71.6702 10.2813 71.5756 9.52496 71.5756ZM22.5677 86.8203H20.4405V71.812H15.1699V69.9448H27.8147V71.812H22.5677V86.8203ZM34.8264 69.9448C37.0323 69.9448 38.6395 70.3781 39.6479 71.2448C40.6564 72.1114 41.1606 73.3325 41.1606 74.9082C41.1606 75.8379 40.9479 76.7124 40.5224 77.5317C40.1128 78.3353 39.4116 78.9892 38.4189 79.4934C37.442 79.9976 36.1105 80.2497 34.4246 80.2497H32.4865V86.8203H30.3593V69.9448H34.8264ZM34.6373 71.7647H32.4865V78.4298H34.1882C35.7954 78.4298 36.9929 78.1699 37.7808 77.6499C38.5686 77.1299 38.9625 76.2475 38.9625 75.0027C38.9625 73.9155 38.6159 73.1041 37.9226 72.5683C37.2293 72.0326 36.1342 71.7647 34.6373 71.7647ZM59.3944 78.3589C59.3944 80.1079 59.095 81.6363 58.4962 82.9442C57.9132 84.2362 57.0466 85.2446 55.8964 85.9694C54.7461 86.6943 53.3201 87.0567 51.6184 87.0567C49.8694 87.0567 48.4119 86.6943 47.2459 85.9694C46.0957 85.2446 45.2369 84.2283 44.6697 82.9205C44.1024 81.6127 43.8188 80.0843 43.8188 78.3353C43.8188 76.6021 44.1024 75.0894 44.6697 73.7974C45.2369 72.5053 46.0957 71.4969 47.2459 70.7721C48.4119 70.0472 49.8773 69.6848 51.642 69.6848C53.328 69.6848 54.7461 70.0472 55.8964 70.7721C57.0466 71.4811 57.9132 72.4895 58.4962 73.7974C59.095 75.0894 59.3944 76.6099 59.3944 78.3589ZM46.0641 78.3589C46.0641 80.4861 46.5132 82.1642 47.4113 83.3932C48.3095 84.6065 49.7118 85.2131 51.6184 85.2131C53.5407 85.2131 54.9431 84.6065 55.8255 83.3932C56.7078 82.1642 57.149 80.4861 57.149 78.3589C57.149 76.2318 56.7078 74.5694 55.8255 73.3719C54.9431 72.1586 53.5486 71.552 51.642 71.552C49.7355 71.552 48.3252 72.1586 47.4113 73.3719C46.5132 74.5694 46.0641 76.2318 46.0641 78.3589ZM63.1583 69.9448H65.1436V79.2098C65.1436 79.7298 65.1357 80.3128 65.12 80.9588C65.1042 81.6048 65.0806 82.1957 65.0491 82.7314C65.0333 83.2672 65.0097 83.6611 64.9782 83.9132H65.0727L74.3613 69.9448H76.7248V86.8203H74.7395V77.6499C74.7395 77.0669 74.7473 76.4445 74.7631 75.7827C74.7946 75.1209 74.8261 74.5143 74.8576 73.9628C74.8892 73.4113 74.9128 73.0174 74.9286 72.781H74.834L65.5218 86.8203H63.1583V69.9448ZM86.618 86.8203H84.4908V71.812H79.2202V69.9448H91.865V71.812H86.618V86.8203ZM103.84 86.8203H94.4096V69.9448H103.84V71.812H96.5368V77.0826H103.415V78.9262H96.5368V84.9531H103.84V86.8203ZM119.691 86.8203H117.564V71.812H112.223C112.081 72.978 111.923 74.207 111.75 75.4991C111.577 76.7754 111.403 77.9965 111.23 79.1625C111.057 80.3285 110.883 81.3212 110.71 82.1406C110.505 83.1963 110.253 84.0944 109.954 84.835C109.654 85.5755 109.252 86.1349 108.748 86.5131C108.26 86.8912 107.614 87.0803 106.81 87.0803C106.542 87.0803 106.267 87.0488 105.983 86.9858C105.715 86.9385 105.479 86.8755 105.274 86.7967V85.024C105.447 85.1028 105.644 85.1737 105.865 85.2368C106.085 85.284 106.322 85.3077 106.574 85.3077C107.046 85.3077 107.417 85.1186 107.685 84.7404C107.968 84.3465 108.189 83.8659 108.346 83.2987C108.504 82.7157 108.638 82.1406 108.748 81.5733C108.874 80.9746 109.024 80.1001 109.197 78.9498C109.386 77.7838 109.583 76.4287 109.788 74.8846C110.009 73.3404 110.229 71.6938 110.45 69.9448H119.691V86.8203ZM124.277 86.8203V69.9448H126.404V77.0826H129.571C131.147 77.0826 132.399 77.2954 133.329 77.7208C134.259 78.1462 134.928 78.7213 135.338 79.4462C135.748 80.171 135.952 80.9824 135.952 81.8806C135.952 83.3617 135.448 84.5592 134.44 85.4731C133.431 86.3712 131.895 86.8203 129.831 86.8203H124.277ZM129.618 85.0004C132.376 85.0004 133.754 83.9605 133.754 81.8806C133.754 80.7934 133.376 80.0291 132.62 79.588C131.864 79.1468 130.761 78.9262 129.311 78.9262H126.404V85.0004H129.618ZM152.346 86.8203H150.219V78.9498H141.568V86.8203H139.441V69.9448H141.568V77.0826H150.219V69.9448H152.346V86.8203ZM167.548 86.8203L165.516 81.5969H158.827L156.818 86.8203H154.667L161.261 69.8739H163.176L169.746 86.8203H167.548ZM162.987 74.6009C162.939 74.4749 162.861 74.2464 162.75 73.9155C162.64 73.5846 162.53 73.2459 162.419 72.8992C162.325 72.5368 162.246 72.2611 162.183 72.072C162.073 72.5604 161.947 73.041 161.805 73.5137C161.663 73.9707 161.545 74.3331 161.45 74.6009L159.536 79.7061H164.877L162.987 74.6009ZM177.136 79.8243L172.764 86.8203H170.282L175.009 79.4462C174.41 79.2413 173.843 78.9577 173.307 78.5953C172.787 78.2329 172.362 77.7365 172.031 77.1063C171.7 76.476 171.535 75.6645 171.535 74.6719C171.535 73.1434 172.063 71.9774 173.118 71.1739C174.174 70.3545 175.75 69.9448 177.845 69.9448H182.572V86.8203H180.445V79.8243H177.136ZM177.893 71.7647C176.553 71.7647 175.521 72.0011 174.796 72.4738C174.087 72.9307 173.733 73.6949 173.733 74.7664C173.733 75.8063 174.079 76.6099 174.773 77.1772C175.466 77.7444 176.538 78.028 177.987 78.028H180.445V71.7647H177.893ZM205.765 86.8203H203.212L195.578 78.2644V86.8203H193.451V69.9448H195.578V78.1226L203.023 69.9448H205.434L198.107 78.1462L205.765 86.8203ZM222.324 78.3589C222.324 80.1079 222.025 81.6363 221.426 82.9442C220.843 84.2362 219.977 85.2446 218.826 85.9694C217.676 86.6943 216.25 87.0567 214.548 87.0567C212.799 87.0567 211.342 86.6943 210.176 85.9694C209.026 85.2446 208.167 84.2283 207.6 82.9205C207.033 81.6127 206.749 80.0843 206.749 78.3353C206.749 76.6021 207.033 75.0894 207.6 73.7974C208.167 72.5053 209.026 71.4969 210.176 70.7721C211.342 70.0472 212.807 69.6848 214.572 69.6848C216.258 69.6848 217.676 70.0472 218.826 70.7721C219.977 71.4811 220.843 72.4895 221.426 73.7974C222.025 75.0894 222.324 76.6099 222.324 78.3589ZM208.994 78.3589C208.994 80.4861 209.443 82.1642 210.341 83.3932C211.24 84.6065 212.642 85.2131 214.548 85.2131C216.471 85.2131 217.873 84.6065 218.756 83.3932C219.638 82.1642 220.079 80.4861 220.079 78.3589C220.079 76.2318 219.638 74.5694 218.756 73.3719C217.873 72.1586 216.479 71.552 214.572 71.552C212.666 71.552 211.255 72.1586 210.341 73.3719C209.443 74.5694 208.994 76.2318 208.994 78.3589ZM233.51 86.8203L227.956 72.0247H227.861C227.908 72.5132 227.948 73.175 227.979 74.0101C228.011 74.8294 228.026 75.6882 228.026 76.5863V86.8203H226.065V69.9448H229.208L234.408 83.7714H234.502L239.797 69.9448H242.917V86.8203H240.813V76.4445C240.813 75.6251 240.829 74.8137 240.86 74.0101C240.908 73.2065 240.947 72.5526 240.978 72.0484H240.884L235.259 86.8203H233.51ZM247.507 86.8203V69.9448H260.176V86.8203H258.072V71.812H249.634V86.8203H247.507ZM275.383 86.8203L273.351 81.5969H266.662L264.653 86.8203H262.502L269.097 69.8739H271.011L277.582 86.8203H275.383ZM270.822 74.6009C270.775 74.4749 270.696 74.2464 270.586 73.9155C270.475 73.5846 270.365 73.2459 270.255 72.8992C270.16 72.5368 270.081 72.2611 270.018 72.072C269.908 72.5604 269.782 73.041 269.64 73.5137C269.498 73.9707 269.38 74.3331 269.286 74.6009L267.371 79.7061H272.713L270.822 74.6009ZM292.795 86.8203H290.668V78.9498H282.017V86.8203H279.89V69.9448H282.017V77.0826H290.668V69.9448H292.795V86.8203ZM297.432 69.9448H299.418V79.2098C299.418 79.7298 299.41 80.3128 299.394 80.9588C299.378 81.6048 299.355 82.1957 299.323 82.7314C299.307 83.2672 299.284 83.6611 299.252 83.9132H299.347L308.635 69.9448H310.999V86.8203H309.014V77.6499C309.014 77.0669 309.021 76.4445 309.037 75.7827C309.069 75.1209 309.1 74.5143 309.132 73.9628C309.163 73.4113 309.187 73.0174 309.203 72.781H309.108L299.796 86.8203H297.432V69.9448ZM320.632 79.8243L316.26 86.8203H313.778L318.505 79.4462C317.906 79.2413 317.339 78.9577 316.803 78.5953C316.283 78.2329 315.858 77.7365 315.527 77.1063C315.196 76.476 315.031 75.6645 315.031 74.6719C315.031 73.1434 315.558 71.9774 316.614 71.1739C317.67 70.3545 319.245 69.9448 321.341 69.9448H326.068V86.8203H323.941V79.8243H320.632ZM321.388 71.7647C320.049 71.7647 319.017 72.0011 318.292 72.4738C317.583 72.9307 317.229 73.6949 317.229 74.7664C317.229 75.8063 317.575 76.6099 318.269 77.1772C318.962 77.7444 320.033 78.028 321.483 78.028H323.941V71.7647H321.388Z" fill="white"/>
</g>
<defs>
<clipPath id="clip0_58_3925">
<rect width="330" height="93.1757" fill="white" transform="translate(0 0.861328)"/>
</clipPath>
</defs>
</svg>
