<svg width="36" height="40" viewBox="0 0 36 40" fill="none" xmlns="http://www.w3.org/2000/svg">
<g clip-path="url(#clip0_20_580)">
<path d="M19.8036 8.11486L19.1761 0.496216H18.0017H16.8256L16.1981 8.11486H19.8036Z" fill="#DADEF2" stroke="#3F50B1" stroke-width="0.776894" stroke-miterlimit="10"/>
<path d="M33.6618 20.6057C33.6618 15.5557 31.5445 10.4252 27.4122 7.06129C26.389 6.22976 25.2608 5.53649 24.0567 4.99933L23.7212 2.78136C22.316 2.12256 20.8114 1.70131 19.2684 1.53478L19.812 8.11826H16.2049L16.7484 1.51465C14.0221 1.75792 12.2974 2.78136 12.2974 2.78136L11.8998 5.00269C7.76748 6.90022 4.76263 10.5745 3.34326 14.6296C2.67559 16.5513 2.33531 18.5714 2.33661 20.6057H33.6618Z" stroke="#3F50B1" stroke-width="0.776894" stroke-miterlimit="10"/>
<path d="M23.7128 2.77795L24.9107 10.5107" stroke="#3F50B1" stroke-width="0.776894" stroke-miterlimit="10"/>
<path d="M10.9082 10.5107L12.289 2.77795" stroke="#3F50B1" stroke-width="0.776894" stroke-miterlimit="10"/>
<path d="M5.99573 13.3914C5.99573 13.3914 4.40859 16.1781 4.53274 18.3038H14.3257" stroke="#3F50B1" stroke-width="0.776894" stroke-miterlimit="10"/>
<path d="M33.8296 20.6057H2.18558C2.18558 20.6057 0.759494 20.6594 0.774594 22.8556H35.2254C35.2405 20.6561 33.8296 20.6057 33.8296 20.6057Z" stroke="#3F50B1" stroke-width="0.776894" stroke-miterlimit="10"/>
<path d="M32.2994 22.8522H25.122C25.0731 24.6745 24.3149 26.4058 23.0086 27.6775C21.7024 28.9492 19.9514 29.6607 18.1284 29.6607C16.3053 29.6607 14.5543 28.9492 13.2481 27.6775C11.9419 26.4058 11.1836 24.6745 11.1347 22.8522H3.95558C3.95558 23.1525 3.97069 23.4478 3.98747 23.7447L1.17725 24.4796L2.44897 29.345L5.20048 28.6253C5.7949 29.9435 6.58696 31.1633 7.54932 32.2425L5.83971 34.4572L9.81764 37.5291L11.4954 35.348C12.7856 36.0324 14.1747 36.5113 15.6126 36.7674V39.5072H20.6458V36.7674C22.0143 36.5224 23.3389 36.0764 24.5768 35.4436L26.2293 37.6499L30.2559 34.6299L28.5782 32.3935C29.2896 31.6159 29.9125 30.7617 30.4355 29.8467L33.0897 30.8231L34.8245 26.107L32.1166 25.1004C32.2364 24.3569 32.2975 23.6052 32.2994 22.8522Z" fill="#DADEF2" stroke="#3F50B1" stroke-width="0.776894" stroke-linecap="round" stroke-linejoin="round"/>
<path d="M18.1292 32.5446C15.9646 32.5307 13.863 31.8141 12.1407 30.5028C10.4184 29.1914 9.16867 27.3562 8.57947 25.2732" stroke="#3F50B1" stroke-width="0.776894" stroke-miterlimit="10"/>
</g>
<defs>
<clipPath id="clip0_20_580">
<rect width="35.434" height="40" fill="white" transform="translate(0.28302)"/>
</clipPath>
</defs>
</svg>
