<svg width="30" height="30" viewBox="0 0 30 30" fill="none" xmlns="http://www.w3.org/2000/svg">
<path d="M11.1183 6.74492L11.1174 6.74585C11.647 6.76998 12.0746 7.04072 12.3656 7.37738L12.4818 7.52526L13.7774 9.34079C14.0626 9.7405 14.1966 10.2289 14.1559 10.7183C14.1152 11.2075 13.9023 11.6667 13.5551 12.0139L12.6557 12.9123C12.9596 13.6501 13.5635 14.8237 14.3708 15.631C15.1778 16.4379 16.3508 17.0412 17.0884 17.3451L17.9878 16.4467C18.3346 16.0996 18.7935 15.8868 19.2824 15.8458C19.7715 15.8049 20.2591 15.9387 20.6589 16.2234L22.4744 17.5191C22.8759 17.8062 23.2289 18.2782 23.2566 18.8835L23.2612 19.1495C23.2543 19.8232 23.0961 20.8409 22.3079 21.6291C20.8442 23.0928 18.5495 23.1039 16.4746 22.5341C14.3596 21.9533 12.2034 20.7062 10.7491 19.2518C9.29489 17.7975 8.04773 15.6421 7.46693 13.5271C6.89708 11.452 6.90899 9.15654 8.37281 7.69268C9.27366 6.79213 10.4743 6.71454 11.1183 6.74492ZM11.0505 8.17167C10.5409 8.14767 9.85332 8.2332 9.38286 8.70368C8.47941 9.60723 8.31562 11.223 8.84435 13.1486C9.36216 15.0342 10.487 16.9695 11.7592 18.2417C13.0313 19.5139 14.9666 20.6388 16.8522 21.1566C18.7777 21.6854 20.3943 21.5225 21.2978 20.619C21.7684 20.1485 21.8529 19.4601 21.8289 18.9505V18.9486C21.8268 18.9031 21.8042 18.833 21.7331 18.7579L21.6448 18.6817L19.8302 17.387C19.7057 17.2983 19.5538 17.257 19.4015 17.2698C19.2491 17.2826 19.1059 17.3485 18.9978 17.4567L17.7711 18.6817C17.58 18.8725 17.2982 18.9396 17.0419 18.8547C16.3078 18.6109 14.558 17.8393 13.3598 16.6411C12.1618 15.4429 11.39 13.6939 11.1462 12.9598C11.0611 12.7034 11.1283 12.4207 11.3192 12.2296L12.5451 11.0038C12.6531 10.8957 12.7193 10.7524 12.732 10.6001C12.7446 10.4479 12.7034 10.2958 12.6148 10.1714L11.3192 8.35583C11.2176 8.21396 11.113 8.1744 11.0523 8.17167H11.0505Z" fill="#313131"/>
<path d="M28.5714 15.0005C28.5714 7.50493 22.4953 1.42862 15 1.42862C7.50469 1.42862 1.42857 7.50493 1.42857 15.0005C1.42857 17.4731 2.08917 19.7908 3.24405 21.7855C3.32953 21.9331 3.35899 22.107 3.32775 22.2747L2.32143 27.6785L7.726 26.6731L7.85249 26.661C7.97893 26.6602 8.10447 26.6927 8.21522 26.7568C10.2768 27.9496 12.6173 28.5761 14.9991 28.5723H15L15.3506 28.5677C22.6839 28.3817 28.5714 22.3788 28.5714 15.0005ZM30 15.0005C30 23.285 23.2843 30 15 30C12.4565 30.0038 9.95691 29.3565 7.73531 28.124L1.55971 29.2745C1.32822 29.3176 1.09005 29.2439 0.923549 29.0774C0.757047 28.9108 0.683263 28.6727 0.726376 28.4412L1.87593 22.2654C0.680886 20.1124 0 17.6342 0 15.0005C1.84085e-07 6.71592 6.71572 1.84079e-07 15 0C23.2843 0 30 6.71592 30 15.0005Z" fill="#313131"/>
</svg>
