<svg width="20" height="20" viewBox="0 0 20 20" fill="none" xmlns="http://www.w3.org/2000/svg">
<path d="M6.80199 5.17004C6.98499 5.17504 7.18799 5.18504 7.38099 5.61304C7.50899 5.89804 7.72399 6.42304 7.89999 6.85104C8.03699 7.18404 8.14899 7.45804 8.17699 7.51404C8.24099 7.64204 8.28099 7.78904 8.19699 7.96204L8.16899 8.02004C8.1121 8.15462 8.0345 8.27946 7.93899 8.39004L7.79599 8.56004C7.71099 8.66404 7.62599 8.76604 7.55399 8.83804C7.42499 8.96604 7.29199 9.10404 7.43999 9.36004C7.58799 9.61604 8.10799 10.458 8.87499 11.137C9.43598 11.643 10.0797 12.0489 10.778 12.337C10.848 12.367 10.9047 12.3924 10.948 12.413C11.205 12.541 11.358 12.521 11.506 12.349C11.655 12.176 12.149 11.6 12.323 11.344C12.491 11.088 12.663 11.128 12.901 11.216C13.139 11.305 14.405 11.926 14.662 12.053L14.805 12.123C14.984 12.208 15.105 12.267 15.157 12.353C15.221 12.462 15.221 12.973 15.009 13.575C14.791 14.175 13.742 14.751 13.267 14.795L13.132 14.811C12.696 14.863 12.144 14.931 10.176 14.156C7.74999 13.202 6.14899 10.836 5.82599 10.357L5.77299 10.281L5.76699 10.273C5.61999 10.076 4.71899 8.87104 4.71899 7.62704C4.71899 6.43704 5.30599 5.81704 5.57299 5.53504L5.61999 5.48504C5.70642 5.38741 5.81201 5.30862 5.9302 5.25357C6.04839 5.19851 6.17665 5.16838 6.30699 5.16504C6.47999 5.16504 6.65399 5.16504 6.80199 5.17004Z" fill="#313131"/>
<path fill-rule="evenodd" clip-rule="evenodd" d="M0.0999999 19.331C0.0811567 19.3988 0.0805292 19.4704 0.0981808 19.5385C0.115832 19.6066 0.151138 19.6689 0.200536 19.719C0.249933 19.7691 0.311674 19.8053 0.379527 19.8239C0.447381 19.8425 0.518946 19.8429 0.587 19.825L5.194 18.621C6.65568 19.4128 8.29168 19.8276 9.954 19.828H9.958C15.444 19.828 19.916 15.382 19.916 9.91605C19.9194 8.61259 19.6635 7.32149 19.1632 6.11785C18.6629 4.91422 17.9283 3.8221 17.002 2.90505C16.0773 1.98046 14.9789 1.24782 13.77 0.749271C12.5612 0.25072 11.2656 -0.00390357 9.958 4.52349e-05C4.472 4.52349e-05 0 4.44604 0 9.91105C0 11.65 0.458 13.358 1.33 14.865L0.0999999 19.331ZM2.777 15.263C2.82987 15.0711 2.84402 14.8706 2.81861 14.6732C2.7932 14.4757 2.72874 14.2853 2.629 14.113C1.89014 12.8358 1.50075 11.3866 1.5 9.91105C1.5 5.28104 5.293 1.50005 9.958 1.50005C12.228 1.50005 14.346 2.37705 15.944 3.96805C16.7302 4.74575 17.3538 5.67223 17.7782 6.69344C18.2026 7.71465 18.4194 8.81016 18.416 9.91605C18.416 14.546 14.623 18.328 9.958 18.328H9.953C8.5407 18.3273 7.15083 17.9747 5.909 17.302C5.57429 17.1208 5.18321 17.0737 4.815 17.17L2.053 17.891L2.777 15.263Z" fill="#313131"/>
</svg>
