<svg width="13" height="13" viewBox="0 0 13 13" fill="none" xmlns="http://www.w3.org/2000/svg">
<path d="M9.86304 7.52625L7.86304 6.52625C7.82367 6.50663 7.77983 6.49775 7.73594 6.50049C7.69204 6.50324 7.64965 6.51751 7.61304 6.54187L6.57304 7.23563C6.00135 6.96146 5.54033 6.50044 5.26616 5.92875L5.95991 4.88875C5.98428 4.85214 5.99855 4.80974 6.00129 4.76585C6.00404 4.72195 5.99515 4.67811 5.97554 4.63875L4.97554 2.63875C4.95479 2.597 4.92279 2.56189 4.88314 2.53737C4.84349 2.51285 4.79778 2.49991 4.75116 2.5C4.15442 2.5 3.58213 2.73705 3.16017 3.15901C2.73821 3.58097 2.50116 4.15326 2.50116 4.75C2.50265 6.14193 3.05625 7.47642 4.0405 8.46067C5.02474 9.44491 6.35923 9.99851 7.75116 10C8.3479 10 8.92019 9.76295 9.34215 9.34099C9.76411 8.91903 10.0012 8.34674 10.0012 7.75C10.0012 7.70356 9.98829 7.65802 9.96389 7.6185C9.93949 7.57898 9.90457 7.54703 9.86304 7.52625ZM7.75116 9.5C6.49179 9.49868 5.28438 8.99781 4.39387 8.1073C3.50336 7.21678 3.00249 6.00937 3.00116 4.75C3.00109 4.312 3.16526 3.8899 3.46126 3.56706C3.75725 3.24422 4.16355 3.04411 4.59991 3.00625L5.46241 4.73187L4.77491 5.76562C4.752 5.79973 4.73784 5.83896 4.7337 5.87984C4.72956 5.92072 4.73555 5.96199 4.75116 6C5.08332 6.78966 5.7115 7.41784 6.50116 7.75C6.53921 7.76581 6.58057 7.77197 6.62156 7.76793C6.66256 7.7639 6.70193 7.74979 6.73616 7.72688L7.76991 7.03938L9.49554 7.90187C9.45752 8.33823 9.25726 8.74446 8.9343 9.04035C8.61134 9.33623 8.18917 9.50024 7.75116 9.5ZM6.25116 1.07979e-07C5.16309 -0.00020212 4.09382 0.283655 3.14911 0.823494C2.2044 1.36333 1.41699 2.14045 0.864767 3.07797C0.312544 4.01549 0.0146414 5.08094 0.000526066 6.16892C-0.0135893 7.2569 0.256572 8.32972 0.784287 9.28125L0.0405366 11.5119C-0.00353307 11.644 -0.00992853 11.7858 0.0220669 11.9214C0.0540624 12.057 0.123184 12.181 0.221686 12.2795C0.320187 12.378 0.444175 12.4471 0.579752 12.4791C0.71533 12.5111 0.85714 12.5047 0.989287 12.4606L3.21991 11.7169C4.05432 12.1792 4.98349 12.4444 5.93623 12.4922C6.88897 12.5399 7.83999 12.3689 8.71645 11.9923C9.5929 11.6157 10.3715 11.0435 10.9926 10.3195C11.6138 9.5955 12.0609 8.73892 12.2999 7.81539C12.5388 6.89186 12.5631 5.92589 12.371 4.99149C12.179 4.0571 11.7755 3.17907 11.1917 2.42468C10.6078 1.67029 9.85903 1.05956 9.00266 0.639279C8.1463 0.218998 7.2051 0.000320021 6.25116 1.07979e-07ZM6.25116 12C5.2402 12.0003 4.24703 11.7341 3.37179 11.2281C3.33375 11.2062 3.29067 11.1946 3.24679 11.1944C3.21979 11.1944 3.19299 11.1989 3.16741 11.2075L0.831162 11.9862C0.787113 12.0009 0.739843 12.0031 0.69465 11.9924C0.649458 11.9817 0.608128 11.9587 0.575295 11.9259C0.542461 11.893 0.51942 11.8517 0.508755 11.8065C0.49809 11.7613 0.500222 11.714 0.514912 11.67L1.29366 9.33375C1.30489 9.30017 1.30886 9.26458 1.30531 9.22935C1.30175 9.19411 1.29075 9.16004 1.27304 9.12938C0.639101 8.03359 0.384508 6.75923 0.548755 5.50398C0.713001 4.24874 1.2869 3.08278 2.18143 2.187C3.07596 1.29121 4.24111 0.715666 5.49612 0.549655C6.75114 0.383644 8.02586 0.636445 9.12253 1.26884C10.2192 1.90123 11.0765 2.87787 11.5615 4.04724C12.0465 5.21661 12.132 6.51334 11.8047 7.73626C11.4775 8.95918 10.7559 10.0399 9.75173 10.8109C8.74759 11.5818 7.51711 11.9998 6.25116 12Z" fill="#313131"/>
</svg>
